<svg width="174" height="622" viewBox="0 0 174 622" fill="none" xmlns="http://www.w3.org/2000/svg">
<path d="M85.2781 621.049L85.2776 608.687L42.2681 583.853L42.2681 593L54.0001 600L68.2681 611.228L85.2781 621.049Z" fill="#F0C8B9"/>
<path d="M85.2787 608.685L107.543 595.83L107.543 608.192L85.2782 621.047L85.2787 608.685Z" fill="#F0C8B9"/>
<path d="M42.2681 583.853L64.5337 571L96.0002 589.166L101.772 592.498L107.545 595.831L85.2787 608.685L79.6398 605.429L74.0002 602.173L42.2681 583.853Z" fill="#F0C8B9"/>
<path d="M129.01 596.049L129.01 583.687L86.0001 558.853L86.0001 570L100 574.33L104 577L116 588.537L129.01 596.049Z" fill="#F0C8B9"/>
<path d="M129.011 583.685L151.275 570.83L151.275 583.192L129.01 596.047L129.011 583.685Z" fill="#F0C8B9"/>
<path d="M86.0001 558.853L108.266 546L139.732 564.166L145.504 567.498L151.277 570.831L129.011 583.685L123.372 580.429L117.732 577.173L86.0001 558.853Z" fill="#F0C8B9"/>
<path d="M102.811 363.779L123 352L118.056 556.499L102.81 565.019L102.811 363.779Z" fill="#F0C8B9"/>
<path d="M102.808 364.018L90.8291 357.588L90.8305 558.546L102.81 564.976L102.808 364.018Z" fill="#F0C8B9"/>
<path d="M58.0002 390L80.0002 377L76.6732 580.458L61.4268 588.977L58.0002 390Z" fill="#F0C8B9"/>
<path d="M58.0002 390L46.021 383.572L49.4472 582.504L61.4264 588.932L58.0002 390Z" fill="#F0C8B9"/>
<path d="M62.0005 242L24.1311 220L29.0005 376L58.0002 390L62.0005 242Z" fill="#F0C8B9"/>
<path d="M123 352L58.0002 390L62.0005 242L145 194L123 352Z" fill="#F0C8B9"/>
<path d="M24.0001 220L106.889 172.144L144.984 194.139L62.0005 242L24.0001 220Z" fill="#F0C8B9"/>
<path d="M38.0002 404L50.0002 410.901L48.0002 399.829L38.0002 404Z" fill="#F0C8B9"/>
<path d="M38.0002 390.294L24.0002 382.294L20.0002 412L34.0002 420.127L38.0002 390.294Z" fill="#F0C8B9"/>
<path d="M34.0002 420.127L38.0002 390.294L49.0002 384.294L53.0003 392.294V410.294L50.0002 410.901L48.0002 399.829L44.0003 415.514L46.0003 421.972L53.0003 424.74L52.0003 428.431L40.0002 426.586L34.0002 420.127Z" fill="#F0C8B9"/>
<path d="M20.0002 412L34.0002 420.127L40.0002 426.586L26.0002 418.458L20.0002 412Z" fill="#F0C8B9"/>
<path d="M38.0003 245.294L22.009 236.294L24.0002 382.414L38.0002 390.294L38.0003 245.294Z" fill="#F0C8B9"/>
<path d="M38.0003 245.294L49.0002 239.294V384.294L38.0002 390.294L38.0003 245.294Z" fill="#F0C8B9"/>
<path d="M22.0002 236.294L33.0042 230.294L49.0002 239.294L38.0003 245.294L22.0002 236.294Z" fill="#F0C8B9"/>
<path fill-rule="evenodd" clip-rule="evenodd" d="M108 183.47C108 180.022 105.852 176.575 101.557 173.945C92.9651 168.685 79.0354 168.685 70.4439 173.945C66.1481 176.575 64.0002 180.022 64.0002 183.47V204.53C64.0002 207.977 66.1481 211.425 70.4439 214.055C79.0354 219.315 92.9651 219.315 101.557 214.055C105.852 211.425 108 207.977 108 204.53V183.47Z" fill="#F0C8B9"/>
<path d="M9.73682e-06 49.9999L86 99.9999V200L0 150L9.73682e-06 49.9999Z" fill="#F0C8B9"/>
<path d="M86 99.9999L174 49.9999V150L86 200V99.9999Z" fill="#F0C8B9"/>
<path d="M9.73682e-06 49.9999L86.0002 0L174 49.9999L86 99.9999L9.73682e-06 49.9999Z" fill="#F0C8B9"/>
<path d="M86.0034 99.9979L174 49.9999V150L86.0002 199.988L86.0034 99.9979Z" fill="#F0C8B9"/>
<path d="M111.981 128.995L111.981 120.995L108.517 122.995L105.053 128.995L105.053 132.995L111.981 128.995Z" fill="#F0C8B9"/>
<path d="M146.617 108.996L153.545 104.996L153.545 100.996L150.081 98.9959L146.617 100.996L146.617 108.996Z" fill="#F0C8B9"/>
<path d="M128.001 139.997L128 114L140 146L128.001 139.997Z" fill="#F0C8B9"/>
<path d="M133.196 111L128 114L140 146L145.196 143L133.196 111Z" fill="#F0C8B9"/>
</svg>
