<svg width="112" height="144" viewBox="0 0 112 144" fill="none" xmlns="http://www.w3.org/2000/svg">
<path d="M65.4339 107.44V101.89" stroke="#003F4C" stroke-miterlimit="10"/>
<path d="M70.5539 107.42L69.8939 101.62" stroke="#003F4C" stroke-miterlimit="10"/>
<path d="M74.3639 101.62L75.2139 107.42" stroke="#003F4C" stroke-miterlimit="10"/>
<path d="M64.0339 30.32L63.924 42.83L64.0339 48.67" stroke="#003F4C" stroke-miterlimit="10"/>
<path d="M66.5739 30.32L66.4639 42.83L67.7539 48.67" stroke="#003F4C" stroke-miterlimit="10"/>
<path d="M61.4339 30.32L61.3239 42.83L60.2539 48.67" stroke="#003F4C" stroke-miterlimit="10"/>
<path d="M48.3739 30.32L48.2639 42.83L48.3739 48.67" stroke="#003F4C" stroke-miterlimit="10"/>
<path d="M50.9239 30.32L50.8139 42.83L52.0939 48.67" stroke="#003F4C" stroke-miterlimit="10"/>
<path d="M45.7739 30.32L45.6639 42.83L44.6039 48.67" stroke="#003F4C" stroke-miterlimit="10"/>
<path d="M39.6239 30.6H71.7539C75.6939 30.6 79.2739 32.76 79.7339 35.48L89.8939 96.4C90.8539 102.18 86.6939 107.16 80.5839 107.16H30.7939C24.6839 107.16 20.5239 102.18 21.4839 96.4L31.6439 35.48C32.1039 32.76 35.6839 30.6 39.6239 30.6Z" stroke="#003F4C" stroke-miterlimit="10"/>
<path d="M38.5939 27.36H72.7839C76.9739 27.36 80.7939 29.61 81.2739 32.45L92.0839 95.96C93.1139 101.99 88.6739 107.18 82.1839 107.18H29.2039C22.7039 107.18 18.2739 101.99 19.3039 95.96L30.1139 32.45C30.5939 29.6 34.4039 27.36 38.5939 27.36Z" stroke="#003F4C" stroke-miterlimit="10"/>
<path d="M87.0039 111.9C86.7039 111.91 86.4039 111.93 86.0939 111.93H25.2739C24.9639 111.93 24.6439 111.92 24.3439 111.89C17.4139 111.42 12.9239 105.71 14.2239 99.15L27.7239 30.28C28.3139 27.33 32.4939 25 37.0739 25H74.2939C78.8739 25 83.0539 27.33 83.6439 30.28L97.1439 99.15C98.4439 105.71 93.9539 111.43 87.0039 111.9Z" stroke="#003F4C" stroke-miterlimit="10"/>
<path d="M46.8439 53.26H64.5339C66.7039 53.26 68.6739 54.42 68.9239 55.89L74.5139 88.75C75.0439 91.87 72.7539 94.56 69.3939 94.56H41.9739C38.6139 94.56 36.3139 91.87 36.8539 88.75L42.4439 55.89C42.7039 54.43 44.6739 53.26 46.8439 53.26Z" stroke="#003F4C" stroke-miterlimit="10"/>
<path d="M46.054 107.42V101.62" stroke="#003F4C" stroke-miterlimit="10"/>
<path d="M40.9439 107.39L41.5439 101.31" stroke="#003F4C" stroke-miterlimit="10"/>
<path d="M37.0339 101.45L36.2739 107.39" stroke="#003F4C" stroke-miterlimit="10"/>
<path d="M44.6339 48.38H66.7339C69.4439 48.38 71.9339 49.8 72.2739 51.61L80.2939 93.78C81.0439 97.7 78.5239 101.13 74.5739 101.56C74.2939 101.59 74.0139 101.61 73.7239 101.61H37.6139C33.1839 101.61 30.2539 97.97 31.0539 93.78L39.0739 51.61C39.4339 49.81 41.9239 48.38 44.6339 48.38Z" stroke="#003F4C" stroke-miterlimit="10"/>
<path d="M51.8039 59.95H59.5839C60.5339 59.95 61.4039 60.66 61.5139 61.55L63.9739 81.58C64.2039 83.48 63.2039 85.12 61.7239 85.12H49.6739C48.1939 85.12 47.1839 83.48 47.4239 81.58L49.8839 61.55C49.9839 60.65 50.8439 59.95 51.8039 59.95Z" stroke="#003F4C" stroke-miterlimit="10"/>
<path d="M34.6839 118.39H31.5239C29.1739 118.39 27.0139 117.23 25.7639 115.31C25.1939 114.45 24.6539 112.63 24.3439 111.93C24.6239 111.95 24.9139 111.97 25.1939 111.97H34.6539V118.19C34.6639 118.26 34.6739 118.32 34.6839 118.39Z" stroke="#003F4C" stroke-miterlimit="10"/>
<path d="M38.3139 111.94V118.18C38.3139 118.26 38.2939 118.32 38.2839 118.39C38.2639 118.43 38.2639 118.45 38.2539 118.48C38.0639 119.06 37.3539 119.47 36.5039 119.47C35.6539 119.47 34.9439 119.06 34.7539 118.48C34.7339 118.44 34.7339 118.42 34.7239 118.39C34.7039 118.32 34.6939 118.26 34.6939 118.18V111.94H38.3139Z" stroke="#003F4C" stroke-miterlimit="10"/>
<path d="M39.7939 118.39H38.3139C38.3239 118.31 38.3339 118.24 38.3339 118.15V111.94H39.7839V118.15C39.7739 118.25 39.7839 118.31 39.7939 118.39Z" stroke="#003F4C" stroke-miterlimit="10"/>
<path d="M43.4239 111.94V118.18C43.4239 118.26 43.4039 118.32 43.3939 118.39C43.3739 118.43 43.3739 118.45 43.3639 118.48C43.1739 119.06 42.4639 119.47 41.6139 119.47C40.7839 119.47 40.0539 119.06 39.8639 118.48C39.8439 118.44 39.8439 118.42 39.8339 118.39C39.8139 118.32 39.8039 118.26 39.8039 118.18V111.94H43.4239Z" stroke="#003F4C" stroke-miterlimit="10"/>
<path d="M44.9139 118.39H43.4339C43.4439 118.31 43.4539 118.24 43.4539 118.15V111.94H44.9039V118.15C44.9039 118.25 44.9039 118.31 44.9139 118.39Z" stroke="#003F4C" stroke-miterlimit="10"/>
<path d="M48.5639 111.94V118.18C48.5639 118.26 48.5439 118.32 48.5339 118.39C48.5339 118.43 48.5139 118.45 48.5139 118.48C48.3039 119.06 47.5939 119.47 46.7339 119.47C45.8939 119.47 45.1839 119.06 44.9739 118.48C44.9539 118.44 44.9539 118.42 44.9539 118.39C44.9239 118.32 44.9239 118.26 44.9239 118.18V111.94H48.5639Z" stroke="#003F4C" stroke-miterlimit="10"/>
<path d="M66.6439 111.93V118.18C66.6439 118.26 66.6239 118.32 66.6139 118.39C66.5939 118.43 66.5939 118.45 66.5839 118.48C66.3939 119.06 65.6839 119.47 64.8339 119.47C63.9839 119.47 63.2739 119.06 63.0839 118.48C63.0639 118.44 63.0639 118.42 63.0539 118.39C63.0339 118.32 63.0239 118.26 63.0239 118.18V111.93H66.6439Z" stroke="#003F4C" stroke-miterlimit="10"/>
<path d="M68.1239 118.28H66.5839C66.5939 118.2 66.6039 118.14 66.6039 118.05V111.94H68.1039V118.05C68.1039 118.13 68.1139 118.2 68.1239 118.28Z" stroke="#003F4C" stroke-miterlimit="10"/>
<path d="M71.7539 111.93V118.18C71.7539 118.26 71.7339 118.32 71.7239 118.39C71.7039 118.43 71.7039 118.45 71.6939 118.48C71.5039 119.06 70.7939 119.47 69.9439 119.47C69.1139 119.47 68.3839 119.06 68.1939 118.48C68.1739 118.44 68.1739 118.42 68.1639 118.39C68.1439 118.32 68.1339 118.26 68.1339 118.18V111.93H71.7539Z" stroke="#003F4C" stroke-miterlimit="10"/>
<path d="M73.2439 118.28H71.7539C71.7639 118.2 71.7739 118.14 71.7739 118.05V111.94H73.2339V118.05C73.2239 118.13 73.2239 118.2 73.2439 118.28Z" stroke="#003F4C" stroke-miterlimit="10"/>
<path d="M76.8839 111.93V118.18C76.8839 118.26 76.8639 118.32 76.8539 118.39C76.8539 118.43 76.8339 118.45 76.8339 118.48C76.6239 119.06 75.9139 119.47 75.0539 119.47C74.2139 119.47 73.5039 119.06 73.2939 118.48C73.2739 118.44 73.2739 118.42 73.2739 118.39C73.2439 118.32 73.2439 118.26 73.2439 118.18V111.93H76.8839Z" stroke="#003F4C" stroke-miterlimit="10"/>
<path d="M63.0139 118.28H48.5639C48.5739 118.2 48.5839 118.14 48.5839 118.05V111.94H62.9839V118.05C62.9839 118.13 62.9939 118.2 63.0139 118.28Z" stroke="#003F4C" stroke-miterlimit="10"/>
<path d="M87.0039 111.93L86.1039 114.1C85.5239 115.5 84.5339 116.75 83.1639 117.47C82.1839 117.99 81.0639 118.28 79.9039 118.28H76.8839C76.8939 118.21 76.9039 118.15 76.9039 118.07V111.95H86.1639C86.4539 111.95 86.7339 111.94 87.0039 111.93Z" stroke="#003F4C" stroke-miterlimit="10"/>
<path d="M23.3439 85.3C23.3439 85.3 26.7639 93.28 28.0239 94.62C28.4039 95.02 30.0539 95.13 30.9439 95.16" stroke="#003F4C" stroke-miterlimit="10"/>
<path d="M23.6139 83.35C23.6139 83.35 26.9739 91.3 28.2339 92.64C28.6139 93.05 30.3039 93.15 31.1839 93.18" stroke="#003F4C" stroke-miterlimit="10"/>
<path d="M23.9239 81.56C23.9239 81.56 27.1139 89.35 28.3739 90.69C28.8939 91.25 31.8639 91.24 31.8639 91.24" stroke="#003F4C" stroke-miterlimit="10"/>
<path d="M25.4539 72.25C25.4539 72.25 29.0039 80.64 30.2739 81.97C30.6539 82.37 32.3339 82.48 33.2139 82.51" stroke="#003F4C" stroke-miterlimit="10"/>
<path d="M25.7239 70.31C25.7239 70.31 29.2139 78.67 30.4839 80.01C30.8939 80.44 32.7639 80.54 33.5839 80.56" stroke="#003F4C" stroke-miterlimit="10"/>
<path d="M26.0439 68.51C26.0439 68.51 29.3739 76.71 30.6339 78.04C31.1539 78.6 34.1239 78.59 34.1239 78.59" stroke="#003F4C" stroke-miterlimit="10"/>
<path d="M27.5839 59.49C27.5839 59.49 31.2139 68.34 32.5139 69.78C32.9039 70.21 34.6139 70.33 35.5239 70.36" stroke="#003F4C" stroke-miterlimit="10"/>
<path d="M27.8639 57.41C27.8639 57.41 31.4239 66.23 32.7339 67.67C33.1339 68.12 34.9539 68.23 35.8339 68.26" stroke="#003F4C" stroke-miterlimit="10"/>
<path d="M28.1838 55.47C28.1838 55.47 31.5738 64.11 32.8738 65.55C33.4138 66.15 36.4638 66.14 36.4638 66.14" stroke="#003F4C" stroke-miterlimit="10"/>
<path d="M29.6939 47.15C29.6939 47.15 33.3739 55.71 34.7339 57.15C35.2939 57.75 38.1639 57.74 38.1639 57.74" stroke="#003F4C" stroke-miterlimit="10"/>
<path d="M29.9839 45.06C29.9839 45.06 33.5939 53.59 34.9539 55.03C35.4039 55.5 37.4739 55.6 38.3339 55.62" stroke="#003F4C" stroke-miterlimit="10"/>
<path d="M30.3139 43.12C30.3139 43.12 33.7439 51.47 35.1039 52.91C35.6639 53.51 38.8539 53.5 38.8539 53.5" stroke="#003F4C" stroke-miterlimit="10"/>
<path d="M88.0439 85.33C88.0439 85.33 84.6539 93.28 83.3939 94.61C83.0139 95.02 81.3139 95.12 80.4439 95.15" stroke="#003F4C" stroke-miterlimit="10"/>
<path d="M87.7839 83.35C87.7839 83.35 84.4439 91.3 83.1839 92.64C82.7939 93.05 81.0639 93.16 80.1939 93.18" stroke="#003F4C" stroke-miterlimit="10"/>
<path d="M87.4439 81.7C87.4439 81.7 84.3039 89.34 83.0439 90.68C82.5239 91.24 79.5539 91.23 79.5539 91.23" stroke="#003F4C" stroke-miterlimit="10"/>
<path d="M85.9439 72.42C85.9439 72.42 82.4039 80.63 81.1439 81.97C80.7539 82.38 79.0439 82.49 78.1639 82.51" stroke="#003F4C" stroke-miterlimit="10"/>
<path d="M85.6739 70.48C85.6739 70.48 82.1939 78.67 80.9339 80C80.5239 80.44 78.5939 80.53 77.7939 80.55" stroke="#003F4C" stroke-miterlimit="10"/>
<path d="M85.3639 68.68C85.3639 68.68 82.0439 76.7 80.7839 78.04C80.2639 78.6 77.2939 78.59 77.2939 78.59" stroke="#003F4C" stroke-miterlimit="10"/>
<path d="M83.7939 59.62C83.7939 59.62 80.0539 68.35 78.6939 69.79C78.2839 70.22 76.6939 70.34 75.8539 70.37" stroke="#003F4C" stroke-miterlimit="10"/>
<path d="M83.5039 57.53C83.5039 57.53 79.8339 66.23 78.4739 67.67C78.0539 68.12 76.3639 68.23 75.5539 68.26" stroke="#003F4C" stroke-miterlimit="10"/>
<path d="M83.1639 55.59C83.1639 55.59 79.6639 64.11 78.3139 65.55C77.7539 66.15 74.9439 66.14 74.9439 66.14" stroke="#003F4C" stroke-miterlimit="10"/>
<path d="M81.7239 47.11C81.7239 47.11 78.0439 55.7 76.6839 57.14C76.1239 57.74 73.2439 57.73 73.2439 57.73" stroke="#003F4C" stroke-miterlimit="10"/>
<path d="M81.4339 45.02C81.4339 45.02 77.8239 53.59 76.4639 55.03C75.9039 55.63 72.8039 55.62 72.8039 55.62" stroke="#003F4C" stroke-miterlimit="10"/>
<path d="M81.1039 43.09C81.1039 43.09 77.6739 51.48 76.3139 52.92C75.7539 53.52 72.5639 53.51 72.5639 53.51" stroke="#003F4C" stroke-miterlimit="10"/>
</svg>
