<svg width="102" height="64" viewBox="0 0 102 64" fill="none" xmlns="http://www.w3.org/2000/svg">
<mask id="path-1-inside-1" fill="white">
<path d="M47.5582 0.467041H53.7693C53.4332 1.82978 53.12 3.08589 52.7762 4.46491L52.7129 4.71877L52.4646 5.71384C53.472 5.47598 54.3835 5.2561 55.305 5.0338L55.3387 5.02569L56.8364 4.66558V10.782C56.3556 10.6633 55.8932 10.5487 55.4328 10.4348L55.4253 10.4328L55.4212 10.4314L55.4185 10.4307L55.0536 10.3404C54.2357 10.1378 53.4096 9.93312 52.4817 9.70574C52.9332 11.5683 53.3287 13.1854 53.7359 14.8468H47.5697C47.9544 13.2297 48.3391 11.6188 48.8015 9.69482L47.9599 9.90625L47.6253 9.99011C46.5107 10.2695 45.4833 10.527 44.369 10.8099V4.59874C45.8858 4.99499 47.1789 5.33464 48.7626 5.75272C48.6083 5.07436 48.4606 4.42683 48.3154 3.79086L48.262 3.55661C48.0274 2.53016 47.7989 1.52759 47.5582 0.467041Z"/>
<path d="M25.5526 30.3131C26.1215 29.3262 26.6118 28.8413 27.2141 28.8413C27.6546 28.8413 28.1621 29.1032 28.8032 29.6222C31.4126 31.7351 32.3047 34.4673 31.5292 37.7342C31.3921 38.2989 31.2591 38.865 31.1268 39.429L31.0938 39.57C31.0386 39.8056 30.9834 40.0414 30.9277 40.2768L31.4071 40.5502C31.5346 40.4161 31.6648 40.2835 31.7953 40.1507L31.8436 40.1015L31.845 40.0994C32.1758 39.7632 32.5072 39.4256 32.8121 39.0668C33.5255 38.2361 34.3787 37.8235 35.1924 37.8235C36.1738 37.8235 37.0938 38.4203 37.6401 39.6186C38.0978 40.6055 38.3092 41.8379 38.1926 42.9196C38.0309 44.4248 36.9097 45.3115 35.5941 45.3115C35.0976 45.3115 34.5738 45.1832 34.0554 44.9159C33.7438 44.7536 33.4334 44.5831 33.029 44.36C32.7528 44.2086 32.4322 44.032 32.0366 43.8171C32.1106 44.1676 32.1621 44.4625 32.2068 44.7179L32.2112 44.7433L32.2132 44.7547C32.2927 45.2112 32.3501 45.5411 32.4772 45.8414C33.726 48.7741 36.6928 50.6415 39.8758 50.6415C40.2441 50.6415 40.6179 50.6142 40.9909 50.5637C44.7155 50.0454 47.9217 47.0956 48.3957 43.6944L48.2286 42.3958L46.8509 42.7355L46.8359 42.7457L46.831 42.7489C45.3493 43.7106 44.5231 44.2468 43.8684 44.2468C43.0595 44.2468 42.5187 43.4161 41.3313 41.5426C41.1089 41.1982 41.1621 40.6717 41.2146 40.1574L41.2158 40.1459C41.2352 39.9555 41.2543 39.7678 41.259 39.5913L41.5379 39.1671C42.681 37.5002 43.1939 36.7527 43.9461 36.7527C44.5496 36.7527 45.3119 37.2312 46.6865 38.094L46.6968 38.1004L46.7172 38.1134C47.0466 38.3194 47.4088 38.4728 47.7702 38.6256C47.9469 38.6999 48.1229 38.7743 48.2954 38.8547L48.7469 38.4367C48.558 38.1093 48.3745 37.7765 48.1924 37.445C47.773 36.6825 47.3542 35.9214 46.857 35.2141C46.1818 34.2606 46.2657 33.7089 47.2471 33.0064C48.9699 31.7576 49.8954 31.122 50.7875 31.122C51.713 31.122 52.6051 31.8129 54.3279 33.224C55.0359 33.7982 55.042 34.2552 54.596 34.9413C54.0913 35.7304 53.6138 36.5365 53.1378 37.342C52.9352 37.6851 52.732 38.0281 52.5274 38.3698L53.0177 38.9223C53.3328 38.7313 53.6554 38.5506 53.9773 38.3705C54.6805 37.977 55.381 37.5848 56.0009 37.0876C56.4749 36.703 56.865 36.5188 57.2217 36.5188C57.7067 36.5188 58.1247 36.8646 58.5987 37.5227C60.9408 40.7842 60.9572 40.879 58.1861 43.9119C57.8294 44.3082 57.5116 44.5196 57.1658 44.5196C56.9094 44.5196 56.6366 44.3969 56.3187 44.135C55.6101 43.5552 54.8742 43.0035 54.1049 42.507C53.8321 42.329 53.592 42.2396 53.3915 42.2396C53.0177 42.2396 52.8056 42.5629 52.7838 43.2211C52.6945 46.505 56.642 50.2234 60.6564 50.6306C60.8903 50.6531 61.1243 50.664 61.3589 50.664C64.9886 50.664 68.6347 47.9263 69.1421 44.6758L68.9416 44.107C68.6098 44.233 68.2686 44.3898 67.924 44.5482L67.9165 44.5517L67.9088 44.5553C67.0826 44.9347 66.237 45.323 65.4456 45.323C64.5869 45.323 63.8012 44.86 63.1819 43.4325C62.5238 41.9102 63.1765 39.5299 64.4307 38.5485C65.1332 38.0022 65.73 37.7846 66.2599 37.7846C67.319 37.7846 68.0924 38.6725 68.8664 39.5611L68.8666 39.5613C69.1837 39.9262 69.5016 40.2911 69.8392 40.5946L70.2961 40.3218C70.2402 40.0565 70.1891 39.7898 70.1386 39.5231C70.0431 39.0218 69.9476 38.5212 69.8167 38.0302C68.9191 34.6344 70.0397 31.3225 72.6327 29.4769C73.162 29.0977 73.6196 28.9081 74.0322 28.9081C74.6065 28.9081 75.1024 29.2764 75.5818 30.0457C77.3046 32.7943 77.0707 36.1567 74.8739 39C74.7491 39.1651 74.6229 39.3281 74.4967 39.4911L74.4865 39.5043C74.2321 39.8327 73.9786 40.1599 73.7424 40.4998L73.7253 41.2473C74.2276 41.1375 74.7515 40.936 75.2768 40.734L75.2865 40.7303L75.2937 40.7276C76.0756 40.427 76.8587 40.126 77.5726 40.126C78.5091 40.126 79.3289 40.645 79.8642 42.3624C80.3996 44.0852 79.6078 46.3263 78.2581 47.1011C77.6784 47.436 77.1764 47.5805 76.7249 47.5805C75.503 47.5805 74.6656 46.5472 73.7684 45.4399L73.7676 45.439L73.7663 45.437L73.7367 45.4005C73.5634 45.1872 73.3877 44.9707 73.207 44.7597C72.1922 46.9845 72.9117 48.7686 73.7533 50.4464C75.0076 52.9447 77.9293 54.5727 80.7618 54.5727C81.0073 54.5727 81.2522 54.5617 81.4977 54.5338C84.5586 54.216 87.1851 52.3424 88.0547 49.5209C87.7109 49.5659 87.3815 49.598 87.065 49.628L87.0605 49.6284C86.3973 49.6924 85.7877 49.7511 85.2113 49.9172C84.843 50.0229 84.5197 50.0843 84.2463 50.0843C83.4769 50.0843 83.0534 49.6273 82.8747 48.4617C82.7604 47.6937 82.6434 47.102 82.5512 46.6358L82.5473 46.6162L82.5468 46.6134C82.3828 45.7872 82.2979 45.3595 82.4437 45.0352C82.5996 44.6879 83.0201 44.4596 83.8906 43.9869L83.8943 43.9849L83.9145 43.974C84.3711 43.726 84.9486 43.4125 85.6737 42.981C86.0918 42.73 86.4485 42.5909 86.7554 42.5909C87.2403 42.5909 87.5916 42.9367 87.8371 43.7394C88.0481 44.4296 88.3386 45.0968 88.6279 45.7611L88.6296 45.765L88.6581 45.8306C88.7789 46.1088 88.8998 46.3871 89.0136 46.6666L89.7604 46.5998C89.7933 46.2545 89.8389 45.9085 89.8843 45.5637L89.8893 45.5256L89.8913 45.5106C89.997 44.7033 90.1025 43.8981 90.0564 43.0983C89.967 41.4587 90.6082 40.8401 92.0465 40.8401H92.0468C92.1531 40.8401 92.2642 40.8401 92.376 40.8456C92.9891 40.8844 93.6023 40.896 94.2379 40.896C94.6933 40.896 95.1587 40.8897 95.6416 40.8832L95.6988 40.8824L95.7768 40.8814C96.2985 40.8749 96.8412 40.8681 97.4161 40.8681C97.2858 41.1425 97.1745 41.3864 97.0737 41.6072L97.0471 41.6654C96.8378 42.1257 96.6727 42.4879 96.4736 42.8303C95.3823 44.7106 94.2877 46.5896 93.1923 48.4679L93.191 48.4706L93.1896 48.4726L93.1883 48.4754L93.1869 48.4774L93.1855 48.4801L93.1842 48.4822L93.1828 48.4849L93.1814 48.4876L93.1801 48.4897L93.1787 48.4924L93.1774 48.4945C90.5338 53.0292 87.891 57.5647 85.3 62.1274C84.8321 62.9472 84.3745 63.265 83.7559 63.265C83.449 63.265 83.1093 63.1866 82.7076 63.0584C72.2979 59.6578 61.6262 58.0292 50.7432 58.0292C49.5722 58.0292 48.4011 58.0462 47.2301 58.0851C37.4676 58.3974 27.894 59.9641 18.611 63.0529C18.1984 63.1921 17.8526 63.265 17.5518 63.265C16.8657 63.265 16.4142 62.8804 15.9238 62.0163C13.3301 57.4563 10.6859 52.9249 8.04101 48.3956L8.03897 48.3928L8.03624 48.3881L8.03418 48.384L8.03283 48.3819L7.64497 47.7174C6.70338 46.1042 5.76164 44.4908 4.82254 42.8753C4.62487 42.5372 4.45308 42.1882 4.23638 41.748L4.23599 41.7472C4.11595 41.5051 3.98296 41.2343 3.82473 40.9233C4.4386 40.9233 5.02353 40.9165 5.5871 40.91L5.67507 40.909C6.22137 40.9022 6.74721 40.896 7.25941 40.896C8.2122 40.896 9.12133 40.9179 10.0243 40.9963C10.4485 41.0352 11.0337 41.9382 11.1394 42.5179C11.3023 43.4494 11.3375 44.4031 11.3728 45.357L11.3734 45.3722L11.3735 45.3756C11.3878 45.7577 11.4021 46.1406 11.4238 46.5214L12.1045 46.6946C12.2272 46.4292 12.355 46.1661 12.4828 45.9032L12.5171 45.8325C12.7886 45.2739 13.0593 44.7161 13.2919 44.1404C13.738 43.0199 13.9501 42.5459 14.4234 42.5459C14.7583 42.5459 15.2152 42.7805 15.9791 43.1986C19.2242 44.9773 19.542 45.7241 18.1704 49.2092C18.0088 49.6328 17.0662 49.9506 16.481 49.9506C16.4647 49.956 16.4476 49.956 16.4306 49.956C16.0447 49.956 15.663 49.9121 15.2738 49.8672L15.2691 49.8667L15.1259 49.8503C14.6798 49.7999 14.2229 49.7494 13.7489 49.7494C13.6206 49.7494 13.4924 49.7494 13.3587 49.761C14.2563 52.3534 16.1189 53.6697 18.5387 54.2773C19.3026 54.4724 20.033 54.5672 20.741 54.5672C23.0605 54.5672 25.0677 53.5469 26.7012 51.612C28.2569 49.7664 28.9648 47.5867 28.2009 44.7092C27.9493 44.9716 27.705 45.2491 27.4627 45.5243L27.4507 45.5379C26.5286 46.5882 25.6365 47.6031 24.4873 47.6031C23.913 47.6031 23.272 47.3466 22.5306 46.711C21.3541 45.6961 20.936 43.4161 21.5103 41.9327C21.9454 40.8231 22.7148 40.1206 23.8019 40.1206C23.9581 40.1206 24.1252 40.1376 24.2977 40.171C25.0404 40.3034 25.7525 40.5973 26.4652 40.8926L26.4828 40.8999C26.7872 41.0257 27.0911 41.1512 27.3982 41.2636L27.7215 40.9124C27.5976 40.7307 27.4786 40.5464 27.3595 40.362L27.3587 40.3606L27.3496 40.3467C27.1058 39.9701 26.8621 39.5939 26.5839 39.2455C24.3202 36.4356 23.9247 33.1237 25.5526 30.3131Z"/>
<path d="M50.6361 17.2496C47.5254 17.2496 44.8764 19.8815 44.8546 23.0038C44.8266 26.1759 47.4136 28.7969 50.5918 28.8133H50.6197C53.7864 28.8133 56.4013 26.2489 56.4347 23.0986C56.4736 19.9763 53.8198 17.2776 50.6866 17.2496H50.6361Z"/>
<path d="M92.1741 31.54C92.1352 28.9136 94.1533 26.8177 96.7184 26.8177H96.7627C99.2494 26.8395 101.351 28.9361 101.368 31.4118C101.385 33.876 99.2828 35.995 96.8016 36.0284H96.7348C94.2256 36.0284 92.213 34.0601 92.1741 31.54Z"/>
<path d="M24.1545 11.0555C21.6119 11.05 19.4485 13.2686 19.5324 15.7894C19.6102 18.259 21.6903 20.2553 24.177 20.2553H24.2322C26.7585 20.2273 28.7431 18.1812 28.7206 15.6271C28.6927 13.079 26.68 11.0609 24.1545 11.0555Z"/>
<path d="M32.5195 21.4931C32.5025 18.9894 34.6433 16.8595 37.1361 16.8595H37.2419C39.7674 16.9209 41.7637 18.9894 41.7357 21.5204C41.7077 24.0351 39.6562 26.0593 37.1471 26.0593H37.13C34.6549 26.0538 32.5359 23.9573 32.5195 21.4931Z"/>
<path d="M77.9559 11.0555H77.9443C75.4693 11.0609 73.3557 13.1575 73.3393 15.6332C73.3223 18.1417 75.3574 20.2157 77.8666 20.2553H77.9389C80.4371 20.2553 82.4832 18.2815 82.5501 15.7948C82.6278 13.2523 80.4924 11.0555 77.9559 11.0555Z"/>
<path d="M0.821792 31.4398C0.827248 28.8467 2.82897 26.8232 5.34359 26.8232H5.49364C8.04168 26.9064 9.94862 28.9361 9.9152 31.523C9.88723 34.0656 7.8971 36.0284 5.36542 36.0284H5.32654C2.78942 36.0059 0.815653 33.9987 0.821792 31.4398Z"/>
<path d="M64.9723 16.8595C62.5027 16.8595 60.4007 18.911 60.3502 21.3813C60.3004 23.8454 62.369 25.9979 64.844 26.0593C64.8836 26.0647 64.9224 26.0647 64.9613 26.0647H64.9613C67.5039 26.0647 69.55 24.0296 69.55 21.459C69.55 18.9226 67.5319 16.8765 65.0057 16.8595H64.9723Z"/>
<path d="M6.37345 19.5412C6.40142 16.9706 8.34724 15.0698 10.9457 15.0698H10.9737C13.5436 15.0808 15.5624 17.0716 15.5624 19.6026C15.5624 22.0838 13.4713 24.1967 10.9955 24.2247H10.9403C8.38612 24.2247 6.34003 22.1397 6.37345 19.5412Z"/>
<path d="M91.177 15.0698C88.545 15.0644 86.6163 16.9932 86.6217 19.608C86.6272 22.1895 88.6064 24.2021 91.1661 24.2247H91.2104C93.7086 24.2247 95.7097 22.1895 95.7213 19.6251C95.7322 17.0102 93.8028 15.0698 91.177 15.0698Z"/>
</mask>
<path d="M47.5582 0.467041H53.7693C53.4332 1.82978 53.12 3.08589 52.7762 4.46491L52.7129 4.71877L52.4646 5.71384C53.472 5.47598 54.3835 5.2561 55.305 5.0338L55.3387 5.02569L56.8364 4.66558V10.782C56.3556 10.6633 55.8932 10.5487 55.4328 10.4348L55.4253 10.4328L55.4212 10.4314L55.4185 10.4307L55.0536 10.3404C54.2357 10.1378 53.4096 9.93312 52.4817 9.70574C52.9332 11.5683 53.3287 13.1854 53.7359 14.8468H47.5697C47.9544 13.2297 48.3391 11.6188 48.8015 9.69482L47.9599 9.90625L47.6253 9.99011C46.5107 10.2695 45.4833 10.527 44.369 10.8099V4.59874C45.8858 4.99499 47.1789 5.33464 48.7626 5.75272C48.6083 5.07436 48.4606 4.42683 48.3154 3.79086L48.262 3.55661C48.0274 2.53016 47.7989 1.52759 47.5582 0.467041Z" stroke="black" stroke-width="0.5" mask="url(#path-1-inside-1)"/>
<path d="M25.5526 30.3131C26.1215 29.3262 26.6118 28.8413 27.2141 28.8413C27.6546 28.8413 28.1621 29.1032 28.8032 29.6222C31.4126 31.7351 32.3047 34.4673 31.5292 37.7342C31.3921 38.2989 31.2591 38.865 31.1268 39.429L31.0938 39.57C31.0386 39.8056 30.9834 40.0414 30.9277 40.2768L31.4071 40.5502C31.5346 40.4161 31.6648 40.2835 31.7953 40.1507L31.8436 40.1015L31.845 40.0994C32.1758 39.7632 32.5072 39.4256 32.8121 39.0668C33.5255 38.2361 34.3787 37.8235 35.1924 37.8235C36.1738 37.8235 37.0938 38.4203 37.6401 39.6186C38.0978 40.6055 38.3092 41.8379 38.1926 42.9196C38.0309 44.4248 36.9097 45.3115 35.5941 45.3115C35.0976 45.3115 34.5738 45.1832 34.0554 44.9159C33.7438 44.7536 33.4334 44.5831 33.029 44.36C32.7528 44.2086 32.4322 44.032 32.0366 43.8171C32.1106 44.1676 32.1621 44.4625 32.2068 44.7179L32.2112 44.7433L32.2132 44.7547C32.2927 45.2112 32.3501 45.5411 32.4772 45.8414C33.726 48.7741 36.6928 50.6415 39.8758 50.6415C40.2441 50.6415 40.6179 50.6142 40.9909 50.5637C44.7155 50.0454 47.9217 47.0956 48.3957 43.6944L48.2286 42.3958L46.8509 42.7355L46.8359 42.7457L46.831 42.7489C45.3493 43.7106 44.5231 44.2468 43.8684 44.2468C43.0595 44.2468 42.5187 43.4161 41.3313 41.5426C41.1089 41.1982 41.1621 40.6717 41.2146 40.1574L41.2158 40.1459C41.2352 39.9555 41.2543 39.7678 41.259 39.5913L41.5379 39.1671C42.681 37.5002 43.1939 36.7527 43.9461 36.7527C44.5496 36.7527 45.3119 37.2312 46.6865 38.094L46.6968 38.1004L46.7172 38.1134C47.0466 38.3194 47.4088 38.4728 47.7702 38.6256C47.9469 38.6999 48.1229 38.7743 48.2954 38.8547L48.7469 38.4367C48.558 38.1093 48.3745 37.7765 48.1924 37.445C47.773 36.6825 47.3542 35.9214 46.857 35.2141C46.1818 34.2606 46.2657 33.7089 47.2471 33.0064C48.9699 31.7576 49.8954 31.122 50.7875 31.122C51.713 31.122 52.6051 31.8129 54.3279 33.224C55.0359 33.7982 55.042 34.2552 54.596 34.9413C54.0913 35.7304 53.6138 36.5365 53.1378 37.342C52.9352 37.6851 52.732 38.0281 52.5274 38.3698L53.0177 38.9223C53.3328 38.7313 53.6554 38.5506 53.9773 38.3705C54.6805 37.977 55.381 37.5848 56.0009 37.0876C56.4749 36.703 56.865 36.5188 57.2217 36.5188C57.7067 36.5188 58.1247 36.8646 58.5987 37.5227C60.9408 40.7842 60.9572 40.879 58.1861 43.9119C57.8294 44.3082 57.5116 44.5196 57.1658 44.5196C56.9094 44.5196 56.6366 44.3969 56.3187 44.135C55.6101 43.5552 54.8742 43.0035 54.1049 42.507C53.8321 42.329 53.592 42.2396 53.3915 42.2396C53.0177 42.2396 52.8056 42.5629 52.7838 43.2211C52.6945 46.505 56.642 50.2234 60.6564 50.6306C60.8903 50.6531 61.1243 50.664 61.3589 50.664C64.9886 50.664 68.6347 47.9263 69.1421 44.6758L68.9416 44.107C68.6098 44.233 68.2686 44.3898 67.924 44.5482L67.9165 44.5517L67.9088 44.5553C67.0826 44.9347 66.237 45.323 65.4456 45.323C64.5869 45.323 63.8012 44.86 63.1819 43.4325C62.5238 41.9102 63.1765 39.5299 64.4307 38.5485C65.1332 38.0022 65.73 37.7846 66.2599 37.7846C67.319 37.7846 68.0924 38.6725 68.8664 39.5611L68.8666 39.5613C69.1837 39.9262 69.5016 40.2911 69.8392 40.5946L70.2961 40.3218C70.2402 40.0565 70.1891 39.7898 70.1386 39.5231C70.0431 39.0218 69.9476 38.5212 69.8167 38.0302C68.9191 34.6344 70.0397 31.3225 72.6327 29.4769C73.162 29.0977 73.6196 28.9081 74.0322 28.9081C74.6065 28.9081 75.1024 29.2764 75.5818 30.0457C77.3046 32.7943 77.0707 36.1567 74.8739 39C74.7491 39.1651 74.6229 39.3281 74.4967 39.4911L74.4865 39.5043C74.2321 39.8327 73.9786 40.1599 73.7424 40.4998L73.7253 41.2473C74.2276 41.1375 74.7515 40.936 75.2768 40.734L75.2865 40.7303L75.2937 40.7276C76.0756 40.427 76.8587 40.126 77.5726 40.126C78.5091 40.126 79.3289 40.645 79.8642 42.3624C80.3996 44.0852 79.6078 46.3263 78.2581 47.1011C77.6784 47.436 77.1764 47.5805 76.7249 47.5805C75.503 47.5805 74.6656 46.5472 73.7684 45.4399L73.7676 45.439L73.7663 45.437L73.7367 45.4005C73.5634 45.1872 73.3877 44.9707 73.207 44.7597C72.1922 46.9845 72.9117 48.7686 73.7533 50.4464C75.0076 52.9447 77.9293 54.5727 80.7618 54.5727C81.0073 54.5727 81.2522 54.5617 81.4977 54.5338C84.5586 54.216 87.1851 52.3424 88.0547 49.5209C87.7109 49.5659 87.3815 49.598 87.065 49.628L87.0605 49.6284C86.3973 49.6924 85.7877 49.7511 85.2113 49.9172C84.843 50.0229 84.5197 50.0843 84.2463 50.0843C83.4769 50.0843 83.0534 49.6273 82.8747 48.4617C82.7604 47.6937 82.6434 47.102 82.5512 46.6358L82.5473 46.6162L82.5468 46.6134C82.3828 45.7872 82.2979 45.3595 82.4437 45.0352C82.5996 44.6879 83.0201 44.4596 83.8906 43.9869L83.8943 43.9849L83.9145 43.974C84.3711 43.726 84.9486 43.4125 85.6737 42.981C86.0918 42.73 86.4485 42.5909 86.7554 42.5909C87.2403 42.5909 87.5916 42.9367 87.8371 43.7394C88.0481 44.4296 88.3386 45.0968 88.6279 45.7611L88.6296 45.765L88.6581 45.8306C88.7789 46.1088 88.8998 46.3871 89.0136 46.6666L89.7604 46.5998C89.7933 46.2545 89.8389 45.9085 89.8843 45.5637L89.8893 45.5256L89.8913 45.5106C89.997 44.7033 90.1025 43.8981 90.0564 43.0983C89.967 41.4587 90.6082 40.8401 92.0465 40.8401H92.0468C92.1531 40.8401 92.2642 40.8401 92.376 40.8456C92.9891 40.8844 93.6023 40.896 94.2379 40.896C94.6933 40.896 95.1587 40.8897 95.6416 40.8832L95.6988 40.8824L95.7768 40.8814C96.2985 40.8749 96.8412 40.8681 97.4161 40.8681C97.2858 41.1425 97.1745 41.3864 97.0737 41.6072L97.0471 41.6654C96.8378 42.1257 96.6727 42.4879 96.4736 42.8303C95.3823 44.7106 94.2877 46.5896 93.1923 48.4679L93.191 48.4706L93.1896 48.4726L93.1883 48.4754L93.1869 48.4774L93.1855 48.4801L93.1842 48.4822L93.1828 48.4849L93.1814 48.4876L93.1801 48.4897L93.1787 48.4924L93.1774 48.4945C90.5338 53.0292 87.891 57.5647 85.3 62.1274C84.8321 62.9472 84.3745 63.265 83.7559 63.265C83.449 63.265 83.1093 63.1866 82.7076 63.0584C72.2979 59.6578 61.6262 58.0292 50.7432 58.0292C49.5722 58.0292 48.4011 58.0462 47.2301 58.0851C37.4676 58.3974 27.894 59.9641 18.611 63.0529C18.1984 63.1921 17.8526 63.265 17.5518 63.265C16.8657 63.265 16.4142 62.8804 15.9238 62.0163C13.3301 57.4563 10.6859 52.9249 8.04101 48.3956L8.03897 48.3928L8.03624 48.3881L8.03418 48.384L8.03283 48.3819L7.64497 47.7174C6.70338 46.1042 5.76164 44.4908 4.82254 42.8753C4.62487 42.5372 4.45308 42.1882 4.23638 41.748L4.23599 41.7472C4.11595 41.5051 3.98296 41.2343 3.82473 40.9233C4.4386 40.9233 5.02353 40.9165 5.5871 40.91L5.67507 40.909C6.22137 40.9022 6.74721 40.896 7.25941 40.896C8.2122 40.896 9.12133 40.9179 10.0243 40.9963C10.4485 41.0352 11.0337 41.9382 11.1394 42.5179C11.3023 43.4494 11.3375 44.4031 11.3728 45.357L11.3734 45.3722L11.3735 45.3756C11.3878 45.7577 11.4021 46.1406 11.4238 46.5214L12.1045 46.6946C12.2272 46.4292 12.355 46.1661 12.4828 45.9032L12.5171 45.8325C12.7886 45.2739 13.0593 44.7161 13.2919 44.1404C13.738 43.0199 13.9501 42.5459 14.4234 42.5459C14.7583 42.5459 15.2152 42.7805 15.9791 43.1986C19.2242 44.9773 19.542 45.7241 18.1704 49.2092C18.0088 49.6328 17.0662 49.9506 16.481 49.9506C16.4647 49.956 16.4476 49.956 16.4306 49.956C16.0447 49.956 15.663 49.9121 15.2738 49.8672L15.2691 49.8667L15.1259 49.8503C14.6798 49.7999 14.2229 49.7494 13.7489 49.7494C13.6206 49.7494 13.4924 49.7494 13.3587 49.761C14.2563 52.3534 16.1189 53.6697 18.5387 54.2773C19.3026 54.4724 20.033 54.5672 20.741 54.5672C23.0605 54.5672 25.0677 53.5469 26.7012 51.612C28.2569 49.7664 28.9648 47.5867 28.2009 44.7092C27.9493 44.9716 27.705 45.2491 27.4627 45.5243L27.4507 45.5379C26.5286 46.5882 25.6365 47.6031 24.4873 47.6031C23.913 47.6031 23.272 47.3466 22.5306 46.711C21.3541 45.6961 20.936 43.4161 21.5103 41.9327C21.9454 40.8231 22.7148 40.1206 23.8019 40.1206C23.9581 40.1206 24.1252 40.1376 24.2977 40.171C25.0404 40.3034 25.7525 40.5973 26.4652 40.8926L26.4828 40.8999C26.7872 41.0257 27.0911 41.1512 27.3982 41.2636L27.7215 40.9124C27.5976 40.7307 27.4786 40.5464 27.3595 40.362L27.3587 40.3606L27.3496 40.3467C27.1058 39.9701 26.8621 39.5939 26.5839 39.2455C24.3202 36.4356 23.9247 33.1237 25.5526 30.3131Z" stroke="black" stroke-width="0.5" mask="url(#path-1-inside-1)"/>
<path d="M50.6361 17.2496C47.5254 17.2496 44.8764 19.8815 44.8546 23.0038C44.8266 26.1759 47.4136 28.7969 50.5918 28.8133H50.6197C53.7864 28.8133 56.4013 26.2489 56.4347 23.0986C56.4736 19.9763 53.8198 17.2776 50.6866 17.2496H50.6361Z" stroke="black" stroke-width="0.5" mask="url(#path-1-inside-1)"/>
<path d="M92.1741 31.54C92.1352 28.9136 94.1533 26.8177 96.7184 26.8177H96.7627C99.2494 26.8395 101.351 28.9361 101.368 31.4118C101.385 33.876 99.2828 35.995 96.8016 36.0284H96.7348C94.2256 36.0284 92.213 34.0601 92.1741 31.54Z" stroke="black" stroke-width="0.5" mask="url(#path-1-inside-1)"/>
<path d="M24.1545 11.0555C21.6119 11.05 19.4485 13.2686 19.5324 15.7894C19.6102 18.259 21.6903 20.2553 24.177 20.2553H24.2322C26.7585 20.2273 28.7431 18.1812 28.7206 15.6271C28.6927 13.079 26.68 11.0609 24.1545 11.0555Z" stroke="black" stroke-width="0.5" mask="url(#path-1-inside-1)"/>
<path d="M32.5195 21.4931C32.5025 18.9894 34.6433 16.8595 37.1361 16.8595H37.2419C39.7674 16.9209 41.7637 18.9894 41.7357 21.5204C41.7077 24.0351 39.6562 26.0593 37.1471 26.0593H37.13C34.6549 26.0538 32.5359 23.9573 32.5195 21.4931Z" stroke="black" stroke-width="0.5" mask="url(#path-1-inside-1)"/>
<path d="M77.9559 11.0555H77.9443C75.4693 11.0609 73.3557 13.1575 73.3393 15.6332C73.3223 18.1417 75.3574 20.2157 77.8666 20.2553H77.9389C80.4371 20.2553 82.4832 18.2815 82.5501 15.7948C82.6278 13.2523 80.4924 11.0555 77.9559 11.0555Z" stroke="black" stroke-width="0.5" mask="url(#path-1-inside-1)"/>
<path d="M0.821792 31.4398C0.827248 28.8467 2.82897 26.8232 5.34359 26.8232H5.49364C8.04168 26.9064 9.94862 28.9361 9.9152 31.523C9.88723 34.0656 7.8971 36.0284 5.36542 36.0284H5.32654C2.78942 36.0059 0.815653 33.9987 0.821792 31.4398Z" stroke="black" stroke-width="0.5" mask="url(#path-1-inside-1)"/>
<path d="M64.9723 16.8595C62.5027 16.8595 60.4007 18.911 60.3502 21.3813C60.3004 23.8454 62.369 25.9979 64.844 26.0593C64.8836 26.0647 64.9224 26.0647 64.9613 26.0647H64.9613C67.5039 26.0647 69.55 24.0296 69.55 21.459C69.55 18.9226 67.5319 16.8765 65.0057 16.8595H64.9723Z" stroke="black" stroke-width="0.5" mask="url(#path-1-inside-1)"/>
<path d="M6.37345 19.5412C6.40142 16.9706 8.34724 15.0698 10.9457 15.0698H10.9737C13.5436 15.0808 15.5624 17.0716 15.5624 19.6026C15.5624 22.0838 13.4713 24.1967 10.9955 24.2247H10.9403C8.38612 24.2247 6.34003 22.1397 6.37345 19.5412Z" stroke="black" stroke-width="0.5" mask="url(#path-1-inside-1)"/>
<path d="M91.177 15.0698C88.545 15.0644 86.6163 16.9932 86.6217 19.608C86.6272 22.1895 88.6064 24.2021 91.1661 24.2247H91.2104C93.7086 24.2247 95.7097 22.1895 95.7213 19.6251C95.7322 17.0102 93.8028 15.0698 91.177 15.0698Z" stroke="black" stroke-width="0.5" mask="url(#path-1-inside-1)"/>
</svg>
