<svg width="130" height="145" viewBox="0 0 130 145" fill="none" xmlns="http://www.w3.org/2000/svg">
<path fill-rule="evenodd" clip-rule="evenodd" d="M62.6691 134.936C63.0373 134.332 63.4022 133.738 63.7623 133.15C64.8106 131.442 65.8261 129.787 66.8007 128.112C67.302 127.258 67.0626 126.712 65.9973 126.366C62.6077 125.262 61.0908 122.926 61.7995 120.155C62.4569 117.59 64.9831 115.828 67.7931 115.828C68.1109 115.828 68.4342 115.851 68.7629 115.895C72.6382 116.464 75.1971 119.854 74.0602 123.578C73.3632 125.848 72.0135 128.033 70.5307 129.907C68.5454 132.41 65.6577 133.765 62.6691 134.936ZM16.8248 134.769C8.05463 130.86 4.76455 122.519 9.19156 114.591C11.5002 110.46 15.0631 107.655 19.2446 105.569C25.7013 102.341 32.5925 101.153 39.6678 101.153C40.2312 101.153 40.8 101.159 41.3681 101.176C44.2469 101.252 47.1196 101.602 49.9929 101.953C51.1483 102.094 52.3057 102.235 53.4617 102.358C53.8757 102.404 54.2849 102.506 54.8033 102.634C55.0952 102.706 55.4225 102.787 55.8038 102.871C55.5283 103.008 55.3039 103.123 55.1115 103.221L55.1088 103.223C54.748 103.407 54.4998 103.534 54.2426 103.646C49.2243 105.826 44.9535 108.993 41.5188 113.258C41.0284 113.872 40.5544 114.145 39.8744 114.145C39.7067 114.145 39.5287 114.128 39.3336 114.095C37.739 113.838 36.1663 113.698 34.6051 113.698C30.6017 113.698 26.738 114.618 23.1137 116.787C18.107 119.781 14.9738 123.964 15.6319 130.135C15.7499 131.229 16.0814 132.299 16.404 133.341C16.5533 133.823 16.7013 134.299 16.8248 134.769ZM99.499 131.54C99.0864 131.54 98.7181 131.317 98.3055 130.777C94.6314 126.021 92.4796 120.735 92.4626 114.657C92.4578 112.868 92.453 111.078 92.4489 109.288C92.4332 103.021 92.4182 96.7543 92.3787 90.4878C92.3623 89.0099 92.273 87.5101 92.039 86.0554C91.4088 82.1576 89.6526 78.9296 86.0563 76.9115L86.3353 76.3536C87.6666 76.8685 89.0115 77.3575 90.3558 77.8472C93.3963 78.9541 96.4381 80.0611 99.3374 81.4606C104.924 84.1539 108.002 88.72 107.918 95.1488C107.897 96.727 107.913 98.3065 107.929 99.8861C107.947 101.677 107.965 103.468 107.93 105.257C107.801 111.652 109.686 117.407 113.232 122.67L113.783 123.534L113.918 124.025L112.552 124.856C111.183 125.58 109.813 126.298 108.443 127.016L108.432 127.022L108.427 127.025C105.806 128.399 103.187 129.772 100.586 131.184C100.168 131.412 99.8168 131.54 99.499 131.54ZM69.7348 100.033C62.7652 98.5105 55.8959 97.0107 48.8819 95.483C49.8381 94.9878 50.7868 94.4845 51.7342 93.9818C53.963 92.7992 56.1837 91.622 58.461 90.5656C60.1728 89.7737 60.7021 88.7534 60.6803 86.8915C60.6141 82.1692 60.6182 77.4455 60.6223 72.7218C60.625 69.4419 60.6278 66.1621 60.6073 62.8829C60.5964 61.5782 60.9476 60.7918 62.1909 60.2067C63.9601 59.38 65.6891 58.4614 67.5135 57.4929L67.5175 57.4909C68.2391 57.1076 68.975 56.7167 69.7348 56.3205V100.033ZM76.7317 74.2905C76.7153 74.0061 76.699 73.7605 76.6846 73.5409C76.6546 73.0894 76.6314 72.7491 76.6314 72.4115C76.628 70.4138 76.6294 68.4155 76.6314 66.4179C76.6348 62.4232 76.6389 58.4273 76.598 54.4361C76.5871 53.1204 77.0666 52.4957 78.2703 52.0776C79.3466 51.7039 80.328 51.5197 81.2037 51.5197C84.1637 51.5197 85.9261 53.6053 85.9649 57.4636C85.9827 59.0199 85.9772 60.575 85.9724 62.13V62.1327V62.1354V62.1381V62.1409C85.9656 64.0076 85.9595 65.8736 85.9929 67.7396C86.0154 68.9045 85.6751 69.6125 84.5763 70.1479C82.8003 71.0243 81.0544 71.9661 79.2013 72.9653L79.1993 72.9667C78.3999 73.3977 77.5815 73.839 76.7317 74.2905ZM92.6883 65.0524C92.6297 64.5812 92.5799 64.1856 92.5765 63.7914C92.5703 63.1844 92.5594 62.5767 92.5485 61.9697C92.5171 60.2346 92.4851 58.4982 92.5765 56.772C92.7824 52.6737 91.3945 49.5071 87.2574 47.4385C88.0533 47.0075 88.8329 46.5703 89.6022 46.1386C92.897 44.2903 96.0227 42.5368 99.6068 41.7682C100.321 41.612 101.001 41.5397 101.647 41.5397C105.249 41.5397 107.77 43.8592 108.082 47.8954C108.262 50.2648 108.174 52.6587 108.086 55.0492C108.065 55.6296 108.043 56.21 108.026 56.789L107.279 58.1661C103.338 60.2906 99.3735 62.3598 95.2391 64.5184C94.4254 64.9433 93.605 65.3716 92.777 65.8047C92.7477 65.5299 92.717 65.2816 92.6883 65.0524ZM37.4205 59.2143C38.5745 59.2143 38.9762 58.6564 38.9537 57.274C38.9148 54.2158 38.9176 51.1562 38.9203 48.0967C38.923 45.0371 38.9257 41.9776 38.8869 38.9194C38.876 37.5758 39.3275 36.8842 40.504 36.282C43.6767 34.6553 46.8209 32.9714 50.0687 31.2316L50.0721 31.2302C51.3427 30.5489 52.6297 29.86 53.9405 29.1616C53.9596 29.4836 53.9814 29.7673 54.0019 30.0264C54.0353 30.4595 54.0633 30.8258 54.0633 31.1913C54.0646 35.5952 54.0646 39.999 54.0646 44.4028C54.0646 57.6122 54.0646 70.8217 54.1028 84.0311C54.1083 85.4531 53.6118 86.172 52.3855 86.7851C49.2809 88.3394 46.2043 89.9442 42.9899 91.6207L42.9852 91.6227C41.6573 92.315 40.3062 93.0195 38.9203 93.7383V91.4965C38.9203 89.5125 38.9176 87.5286 38.9148 85.5439V85.5411V85.5384V85.5356C38.9073 79.8598 38.8998 74.1827 38.9537 68.5089C38.9708 67.0364 38.5411 66.5686 37.1641 66.5686C37.1136 66.5686 37.0638 66.5686 37.0134 66.574C35.2346 66.6074 33.4559 66.6184 31.6779 66.6184C30.5103 66.6184 29.3413 66.6143 28.1723 66.6102C27.0013 66.6061 25.8295 66.602 24.6578 66.602H22.6118C22.7959 64.4332 23.8605 63.0221 25.2266 61.7787C27.6758 59.5506 30.7462 59.3739 33.8078 59.198L33.9081 59.1918C34.4762 59.1584 35.0505 59.1359 35.6193 59.1359C36.0824 59.1359 36.5394 59.153 36.997 59.1918C37.147 59.2089 37.2868 59.2143 37.4205 59.2143ZM60.8194 54.1012C60.7921 53.8229 60.7628 53.5767 60.7355 53.351C60.6857 52.9301 60.6441 52.5823 60.6407 52.2338C60.6393 49.8672 60.64 47.5006 60.6414 45.1333V45.1305C60.6441 39.2113 60.6468 33.2899 60.6073 27.372C60.6018 26.0339 61.0642 25.298 62.2578 24.7353C64.016 23.8998 65.7436 22.9927 67.5557 22.0406L67.5585 22.0399L67.5619 22.0379L67.5714 22.0324L67.5762 22.0304L67.5837 22.0263L67.5871 22.0243L67.5946 22.0202L67.5987 22.0181C68.3005 21.6491 69.0166 21.274 69.7512 20.8935C69.7675 21.1499 69.7839 21.3777 69.7989 21.5864C69.8351 22.085 69.8624 22.471 69.8624 22.8563C69.8644 25.2223 69.863 27.5889 69.8617 29.9555V29.9582C69.8589 35.8782 69.8562 41.7995 69.8965 47.7175C69.9074 48.9942 69.4777 49.6749 68.3517 50.215C66.6241 51.0478 64.9245 51.9433 63.1342 52.8872C62.3819 53.2841 61.6126 53.6892 60.8194 54.1012ZM92.8936 23.805V23.7866C92.7858 18.8849 92.6856 14.3112 87.2894 11.7994C87.7389 11.5559 88.1549 11.3158 88.5512 11.0873C89.3689 10.6154 90.1048 10.1911 90.8857 9.87605C91.503 9.62439 92.1195 9.36316 92.7361 9.10194C94.8531 8.2044 96.9769 7.30415 99.188 6.78172C99.8121 6.63099 100.414 6.56416 100.989 6.56416C104.479 6.56416 106.91 9.19607 107.256 13.0652C107.49 15.736 106.81 17.336 104.183 18.462C101.589 19.5799 99.0946 20.9323 96.4865 22.3455C95.3209 22.977 94.1335 23.6209 92.9038 24.2613C92.9004 24.1085 92.897 23.9571 92.8936 23.805ZM100.661 0.614845C96.9141 0.614845 93.4351 1.74702 90.0898 3.49232C84.2305 6.54915 78.372 9.60802 72.5134 12.6669L72.5066 12.671L72.4997 12.6744C59.6102 19.4046 46.7206 26.1355 33.8215 32.8418C32.6668 33.4386 32.3272 34.1629 32.3381 35.3899C32.3647 37.9679 32.362 40.5446 32.3592 43.1213C32.3565 45.921 32.3531 48.7207 32.3886 51.5197C32.4049 52.9472 31.9643 53.3707 30.515 53.6722C27.8054 54.224 24.9504 54.8153 22.592 56.1588C17.1058 59.2702 14.9758 64.5498 14.379 70.6048C14.2399 71.9988 14.5461 72.5233 15.9681 72.5233H16.063C17.4236 72.5008 18.7781 72.4954 20.1387 72.4954C20.9804 72.4954 21.8172 72.4954 22.6533 72.5008C23.0912 72.5008 23.5298 72.5022 23.969 72.5035C24.4082 72.5049 24.8474 72.5063 25.2853 72.5063C26.9576 72.5063 28.6306 72.4953 30.3029 72.4565H30.4646C32.0312 72.4565 32.4158 73.058 32.394 74.6137C32.3156 80.9586 32.2938 87.3096 32.4049 93.6599C32.4383 95.3773 31.7972 95.8008 30.247 96.1357C26.5729 96.933 22.8593 97.7411 19.3414 99.0295C12.8738 101.399 7.31464 105.129 3.56828 111.117C-1.33274 118.94 -0.390187 127.782 6.02697 134.395C9.23862 137.702 13.0968 139.954 17.4291 141.476C24.3871 143.924 31.4794 145 38.6666 145C41.7827 145 44.9112 144.799 48.0553 144.414C55.7111 143.489 63.1151 141.549 69.8562 137.64C74.2553 135.092 77.857 131.73 79.8922 126.952C82.312 121.27 80.2659 115.031 74.9298 111.937C72.6491 110.61 70.2907 109.958 67.9104 109.958C65.9755 109.958 64.0242 110.387 62.0784 111.24C58.4425 112.834 55.8447 115.516 55.1982 119.614C54.5959 123.467 56.0903 126.55 59.1846 129.059C59.0441 129.289 58.9213 129.531 58.7999 129.77C58.5442 130.272 58.2952 130.76 57.9133 131.089C57.3595 131.565 56.8146 132.063 56.2683 132.562L56.2662 132.563C54.6512 134.038 53.0273 135.523 51.1442 136.48C47.1857 138.487 43.0486 139.396 38.8562 139.396C36.0067 139.396 33.1299 138.978 30.2641 138.204C27.9725 137.579 25.7368 135.956 23.9969 134.256C21.0922 131.406 21.1311 126.979 23.9581 124.041C25.3801 122.57 27.2366 121.304 29.1319 120.551C31.0109 119.804 32.9178 119.481 34.8247 119.481C37.1886 119.481 39.5587 119.976 41.8891 120.785C42.2179 120.902 42.4968 120.958 42.7424 120.958C43.2771 120.958 43.6679 120.679 44.1419 120.083C44.4263 119.728 44.71 119.372 44.9937 119.016L44.9958 119.013L44.9978 119.011L44.9999 119.008C46.6722 116.907 48.3588 114.787 50.3306 113.001C57.1658 106.807 65.5908 104.761 74.5342 104.415C76.1506 104.349 76.686 103.919 76.6635 102.252C76.6171 98.8378 76.6205 95.4236 76.6246 92.0094C76.628 88.9055 76.6314 85.7989 76.5967 82.693C76.5748 81.1816 77.2043 80.6858 78.5595 80.5466C78.7655 80.5296 78.9667 80.5187 79.1672 80.5187C81.6709 80.5187 84.0512 82.0798 84.8485 84.8229C85.5012 87.092 85.7965 89.5344 85.8415 91.9092C85.8885 94.5663 85.8428 97.2255 85.7965 99.8854C85.7508 102.545 85.7044 105.205 85.7521 107.861C85.7589 108.237 85.7658 108.614 85.7726 108.991V108.994C85.8435 113.073 85.9158 117.186 86.5992 121.181C87.7477 127.917 91.8235 133.258 96.0445 138.438C96.5574 139.062 96.9926 139.346 97.5 139.346C97.8567 139.346 98.2468 139.212 98.7317 138.956C106.353 134.908 113.997 130.9 121.639 126.894L121.642 126.892C123.873 125.723 126.103 124.554 128.332 123.383C128.665 123.211 128.986 123.019 129.342 122.806C129.517 122.701 129.702 122.59 129.9 122.475C128.795 120.729 127.775 119.107 126.727 117.44C126.132 117.749 125.556 118.044 124.993 118.331L124.982 118.337L124.979 118.338C123.713 118.985 122.517 119.597 121.346 120.255C120.967 120.473 120.644 120.601 120.343 120.601C119.952 120.601 119.601 120.378 119.222 119.86C116.758 116.453 114.973 112.762 114.778 108.519C114.643 105.613 114.596 102.704 114.549 99.792V99.7893C114.516 97.7862 114.483 95.781 114.422 93.7772C114.221 87.2039 111.511 81.8848 105.908 78.3942C103.694 77.0172 101.302 75.9273 98.9118 74.8388C97.9726 74.4105 97.0335 73.9828 96.1059 73.5382C95.5821 73.2885 95.0263 73.1024 94.3654 72.88C94.0203 72.7641 93.6472 72.6386 93.2346 72.4899C93.5477 72.3064 93.8089 72.151 94.0374 72.0145C94.4343 71.7772 94.733 71.5985 95.0406 71.4362C96.5915 70.6205 98.1432 69.8068 99.6948 68.9938L99.7132 68.9843C104.181 66.6422 108.649 64.3008 113.089 61.9069C113.714 61.5728 114.427 60.7195 114.461 60.0675C114.65 56.075 114.795 52.066 114.694 48.0687C114.527 40.9374 110.301 36.4381 103.215 35.6852C102.623 35.6184 102.038 35.5904 101.458 35.5904C98.18 35.5904 95.0911 36.5609 92.1359 38.0436C89.3573 39.4384 86.5897 40.8495 83.8213 42.2613L83.8193 42.2626L83.8159 42.264C82.1033 43.137 80.3914 44.0106 78.6768 44.8795C78.3065 45.0678 77.9232 45.2274 77.4703 45.4149C77.2139 45.5213 76.9349 45.6366 76.6246 45.7716V43.4077V19.5553C76.6246 17.0237 76.714 16.9125 79.1283 16.3212C79.9365 16.1261 80.684 16.0258 81.364 16.0258C84.3581 16.0258 86.0645 17.9328 86.2261 21.6239C86.3059 23.4613 86.2896 25.3041 86.2732 27.1469C86.265 27.9933 86.2575 28.8404 86.2596 29.6861V34.2693C86.484 34.1909 86.6715 34.1322 86.8332 34.0824C87.0978 33.9999 87.2949 33.9385 87.4749 33.8451L89.7815 32.64C97.4216 28.6488 105.063 24.6562 112.676 20.6091C113.184 20.3356 113.652 19.4994 113.686 18.8972C113.802 16.7338 113.809 14.554 113.714 12.3798C113.435 5.98442 108.996 1.39031 102.618 0.715103C101.954 0.648265 101.308 0.614845 100.661 0.614845ZM7.39102 27.3495C7.92095 31.8774 11.5343 35.0666 15.5487 35.0666C16.2341 35.0666 16.9257 34.9773 17.6166 34.7822C19.8973 34.1466 21.659 32.2116 21.854 30.1322C22.0552 27.9463 21.0513 26.1396 19.1334 25.2475C18.3975 24.9024 17.6391 24.7292 16.8923 24.7292C15.4757 24.7292 14.0987 25.3423 12.9393 26.5972C12.5546 27.0098 12.2034 27.2049 11.874 27.2049C11.5561 27.2049 11.2554 27.0317 10.9539 26.6975C10.175 25.8415 9.4405 24.946 8.59479 23.9141C8.21218 23.4476 7.80638 22.9525 7.36375 22.4212C7.36375 23.0248 7.34737 23.597 7.33237 24.1474C7.30031 25.2836 7.27099 26.3244 7.39102 27.3495ZM36.8108 16.33C35.8485 14.7034 34.9114 13.1204 33.7158 11.7659C32.4977 10.3882 31.015 9.24314 29.5827 8.13622C28.9696 7.66221 28.3646 7.19503 27.7945 6.72034C29.2049 6.16244 30.9781 5.89507 32.9014 5.89507C38.7559 5.89507 46.0659 8.35923 49.3218 12.6417C47.4804 13.6088 45.6682 14.5595 43.8841 15.4959L43.8766 15.4993L43.8568 15.5103L43.8145 15.5321L43.7668 15.5573L43.732 15.5757L43.7279 15.5778L43.6474 15.62C41.7807 16.5994 39.944 17.5631 38.1373 18.5125C37.6736 17.7875 37.2398 17.0543 36.8108 16.33ZM32.4888 0.236328C24.7942 0.236328 17.4406 2.97329 10.5208 8.08643C4.17597 12.7808 0.679909 19.3323 1.20439 27.4948C1.56654 33.1767 4.45491 37.3916 9.65671 39.6382C11.6973 40.5248 13.7325 40.9763 15.7179 40.9763C18.8006 40.9763 21.7613 39.8837 24.4709 37.6255C27.7385 34.894 29.0487 31.1804 28.1675 26.9873C27.3423 23.0514 24.6271 20.5197 20.8194 19.6331C20.1053 19.466 19.3585 19.3992 18.5946 19.3992C17.2203 19.3992 15.7956 19.6099 14.4431 19.8104L14.435 19.8118C14.1901 19.8506 13.978 19.8677 13.7884 19.8677C13.0689 19.8677 12.6678 19.5888 12.3166 18.7969C11.1456 16.2046 12.0602 13.6511 14.8196 11.9556C16.2082 11.1085 17.8308 10.6958 19.5031 10.6958C22.2523 10.6958 25.1346 11.8055 27.3034 13.8904C30.6208 17.0741 31.9534 21.1274 32.4329 25.5606C32.4861 26.0346 32.5638 26.5065 32.6525 27.0426C32.703 27.3502 32.7575 27.6789 32.8121 28.0411C36.746 25.9766 40.6417 23.9305 44.5231 21.8926C51.4463 18.2574 58.3232 14.6461 65.2901 10.9912C65.0084 10.5485 64.7451 10.1216 64.4914 9.70896L64.4901 9.70692C63.864 8.69002 63.2904 7.75906 62.6247 6.89902L61.0022 6.5587C59.5358 7.18889 58.1254 7.95822 56.7484 8.77801C56.3856 8.99489 56.0732 9.08969 55.7779 9.08969C55.3039 9.08969 54.8749 8.83936 54.3449 8.44311C53.7898 8.02912 53.2387 7.59876 52.6856 7.16772C50.7909 5.6891 48.8785 4.19684 46.7288 3.28565C41.8728 1.22253 37.1164 0.236328 32.4888 0.236328Z"/>

<path fill-rule="evenodd" clip-rule="evenodd" d="M62.6691 134.936C63.0373 134.332 63.4022 133.738 63.7623 133.15C64.8106 131.442 65.8261 129.787 66.8007 128.112C67.302 127.258 67.0626 126.712 65.9973 126.366C62.6077 125.262 61.0908 122.926 61.7995 120.155C62.4569 117.59 64.9831 115.828 67.7931 115.828C68.1109 115.828 68.4342 115.851 68.7629 115.895C72.6382 116.464 75.1971 119.854 74.0602 123.578C73.3632 125.848 72.0135 128.033 70.5307 129.907C68.5454 132.41 65.6577 133.765 62.6691 134.936ZM16.8248 134.769C8.05463 130.86 4.76455 122.519 9.19156 114.591C11.5002 110.46 15.0631 107.655 19.2446 105.569C25.7013 102.341 32.5925 101.153 39.6678 101.153C40.2312 101.153 40.8 101.159 41.3681 101.176C44.2469 101.252 47.1196 101.602 49.9929 101.953C51.1483 102.094 52.3057 102.235 53.4617 102.358C53.8757 102.404 54.2849 102.506 54.8033 102.634C55.0952 102.706 55.4225 102.787 55.8038 102.871C55.5283 103.008 55.3039 103.123 55.1115 103.221L55.1088 103.223C54.748 103.407 54.4998 103.534 54.2426 103.646C49.2243 105.826 44.9535 108.993 41.5188 113.258C41.0284 113.872 40.5544 114.145 39.8744 114.145C39.7067 114.145 39.5287 114.128 39.3336 114.095C37.739 113.838 36.1663 113.698 34.6051 113.698C30.6017 113.698 26.738 114.618 23.1137 116.787C18.107 119.781 14.9738 123.964 15.6319 130.135C15.7499 131.229 16.0814 132.299 16.404 133.341C16.5533 133.823 16.7013 134.299 16.8248 134.769ZM99.499 131.54C99.0864 131.54 98.7181 131.317 98.3055 130.777C94.6314 126.021 92.4796 120.735 92.4626 114.657C92.4578 112.868 92.453 111.078 92.4489 109.288C92.4332 103.021 92.4182 96.7543 92.3787 90.4878C92.3623 89.0099 92.273 87.5101 92.039 86.0554C91.4088 82.1576 89.6526 78.9296 86.0563 76.9115L86.3353 76.3536C87.6666 76.8685 89.0115 77.3575 90.3558 77.8472C93.3963 78.9541 96.4381 80.0611 99.3374 81.4606C104.924 84.1539 108.002 88.72 107.918 95.1488C107.897 96.727 107.913 98.3065 107.929 99.8861C107.947 101.677 107.965 103.468 107.93 105.257C107.801 111.652 109.686 117.407 113.232 122.67L113.783 123.534L113.918 124.025L112.552 124.856C111.183 125.58 109.813 126.298 108.443 127.016L108.432 127.022L108.427 127.025C105.806 128.399 103.187 129.772 100.586 131.184C100.168 131.412 99.8168 131.54 99.499 131.54ZM69.7348 100.033C62.7652 98.5105 55.8959 97.0107 48.8819 95.483C49.8381 94.9878 50.7868 94.4845 51.7342 93.9818C53.963 92.7992 56.1837 91.622 58.461 90.5656C60.1728 89.7737 60.7021 88.7534 60.6803 86.8915C60.6141 82.1692 60.6182 77.4455 60.6223 72.7218C60.625 69.4419 60.6278 66.1621 60.6073 62.8829C60.5964 61.5782 60.9476 60.7918 62.1909 60.2067C63.9601 59.38 65.6891 58.4614 67.5135 57.4929L67.5175 57.4909C68.2391 57.1076 68.975 56.7167 69.7348 56.3205V100.033ZM76.7317 74.2905C76.7153 74.0061 76.699 73.7605 76.6846 73.5409C76.6546 73.0894 76.6314 72.7491 76.6314 72.4115C76.628 70.4138 76.6294 68.4155 76.6314 66.4179C76.6348 62.4232 76.6389 58.4273 76.598 54.4361C76.5871 53.1204 77.0666 52.4957 78.2703 52.0776C79.3466 51.7039 80.328 51.5197 81.2037 51.5197C84.1637 51.5197 85.9261 53.6053 85.9649 57.4636C85.9827 59.0199 85.9772 60.575 85.9724 62.13V62.1327V62.1354V62.1381V62.1409C85.9656 64.0076 85.9595 65.8736 85.9929 67.7396C86.0154 68.9045 85.6751 69.6125 84.5763 70.1479C82.8003 71.0243 81.0544 71.9661 79.2013 72.9653L79.1993 72.9667C78.3999 73.3977 77.5815 73.839 76.7317 74.2905ZM92.6883 65.0524C92.6297 64.5812 92.5799 64.1856 92.5765 63.7914C92.5703 63.1844 92.5594 62.5767 92.5485 61.9697C92.5171 60.2346 92.4851 58.4982 92.5765 56.772C92.7824 52.6737 91.3945 49.5071 87.2574 47.4385C88.0533 47.0075 88.8329 46.5703 89.6022 46.1386C92.897 44.2903 96.0227 42.5368 99.6068 41.7682C100.321 41.612 101.001 41.5397 101.647 41.5397C105.249 41.5397 107.77 43.8592 108.082 47.8954C108.262 50.2648 108.174 52.6587 108.086 55.0492C108.065 55.6296 108.043 56.21 108.026 56.789L107.279 58.1661C103.338 60.2906 99.3735 62.3598 95.2391 64.5184C94.4254 64.9433 93.605 65.3716 92.777 65.8047C92.7477 65.5299 92.717 65.2816 92.6883 65.0524ZM37.4205 59.2143C38.5745 59.2143 38.9762 58.6564 38.9537 57.274C38.9148 54.2158 38.9176 51.1562 38.9203 48.0967C38.923 45.0371 38.9257 41.9776 38.8869 38.9194C38.876 37.5758 39.3275 36.8842 40.504 36.282C43.6767 34.6553 46.8209 32.9714 50.0687 31.2316L50.0721 31.2302C51.3427 30.5489 52.6297 29.86 53.9405 29.1616C53.9596 29.4836 53.9814 29.7673 54.0019 30.0264C54.0353 30.4595 54.0633 30.8258 54.0633 31.1913C54.0646 35.5952 54.0646 39.999 54.0646 44.4028C54.0646 57.6122 54.0646 70.8217 54.1028 84.0311C54.1083 85.4531 53.6118 86.172 52.3855 86.7851C49.2809 88.3394 46.2043 89.9442 42.9899 91.6207L42.9852 91.6227C41.6573 92.315 40.3062 93.0195 38.9203 93.7383V91.4965C38.9203 89.5125 38.9176 87.5286 38.9148 85.5439V85.5411V85.5384V85.5356C38.9073 79.8598 38.8998 74.1827 38.9537 68.5089C38.9708 67.0364 38.5411 66.5686 37.1641 66.5686C37.1136 66.5686 37.0638 66.5686 37.0134 66.574C35.2346 66.6074 33.4559 66.6184 31.6779 66.6184C30.5103 66.6184 29.3413 66.6143 28.1723 66.6102C27.0013 66.6061 25.8295 66.602 24.6578 66.602H22.6118C22.7959 64.4332 23.8605 63.0221 25.2266 61.7787C27.6758 59.5506 30.7462 59.3739 33.8078 59.198L33.9081 59.1918C34.4762 59.1584 35.0505 59.1359 35.6193 59.1359C36.0824 59.1359 36.5394 59.153 36.997 59.1918C37.147 59.2089 37.2868 59.2143 37.4205 59.2143ZM60.8194 54.1012C60.7921 53.8229 60.7628 53.5767 60.7355 53.351C60.6857 52.9301 60.6441 52.5823 60.6407 52.2338C60.6393 49.8672 60.64 47.5006 60.6414 45.1333V45.1305C60.6441 39.2113 60.6468 33.2899 60.6073 27.372C60.6018 26.0339 61.0642 25.298 62.2578 24.7353C64.016 23.8998 65.7436 22.9927 67.5557 22.0406L67.5585 22.0399L67.5619 22.0379L67.5714 22.0324L67.5762 22.0304L67.5837 22.0263L67.5871 22.0243L67.5946 22.0202L67.5987 22.0181C68.3005 21.6491 69.0166 21.274 69.7512 20.8935C69.7675 21.1499 69.7839 21.3777 69.7989 21.5864C69.8351 22.085 69.8624 22.471 69.8624 22.8563C69.8644 25.2223 69.863 27.5889 69.8617 29.9555V29.9582C69.8589 35.8782 69.8562 41.7995 69.8965 47.7175C69.9074 48.9942 69.4777 49.6749 68.3517 50.215C66.6241 51.0478 64.9245 51.9433 63.1342 52.8872C62.3819 53.2841 61.6126 53.6892 60.8194 54.1012ZM92.8936 23.805V23.7866C92.7858 18.8849 92.6856 14.3112 87.2894 11.7994C87.7389 11.5559 88.1549 11.3158 88.5512 11.0873C89.3689 10.6154 90.1048 10.1911 90.8857 9.87605C91.503 9.62439 92.1195 9.36316 92.7361 9.10194C94.8531 8.2044 96.9769 7.30415 99.188 6.78172C99.8121 6.63099 100.414 6.56416 100.989 6.56416C104.479 6.56416 106.91 9.19607 107.256 13.0652C107.49 15.736 106.81 17.336 104.183 18.462C101.589 19.5799 99.0946 20.9323 96.4865 22.3455C95.3209 22.977 94.1335 23.6209 92.9038 24.2613C92.9004 24.1085 92.897 23.9571 92.8936 23.805ZM100.661 0.614845C96.9141 0.614845 93.4351 1.74702 90.0898 3.49232C84.2305 6.54915 78.372 9.60802 72.5134 12.6669L72.5066 12.671L72.4997 12.6744C59.6102 19.4046 46.7206 26.1355 33.8215 32.8418C32.6668 33.4386 32.3272 34.1629 32.3381 35.3899C32.3647 37.9679 32.362 40.5446 32.3592 43.1213C32.3565 45.921 32.3531 48.7207 32.3886 51.5197C32.4049 52.9472 31.9643 53.3707 30.515 53.6722C27.8054 54.224 24.9504 54.8153 22.592 56.1588C17.1058 59.2702 14.9758 64.5498 14.379 70.6048C14.2399 71.9988 14.5461 72.5233 15.9681 72.5233H16.063C17.4236 72.5008 18.7781 72.4954 20.1387 72.4954C20.9804 72.4954 21.8172 72.4954 22.6533 72.5008C23.0912 72.5008 23.5298 72.5022 23.969 72.5035C24.4082 72.5049 24.8474 72.5063 25.2853 72.5063C26.9576 72.5063 28.6306 72.4953 30.3029 72.4565H30.4646C32.0312 72.4565 32.4158 73.058 32.394 74.6137C32.3156 80.9586 32.2938 87.3096 32.4049 93.6599C32.4383 95.3773 31.7972 95.8008 30.247 96.1357C26.5729 96.933 22.8593 97.7411 19.3414 99.0295C12.8738 101.399 7.31464 105.129 3.56828 111.117C-1.33274 118.94 -0.390187 127.782 6.02697 134.395C9.23862 137.702 13.0968 139.954 17.4291 141.476C24.3871 143.924 31.4794 145 38.6666 145C41.7827 145 44.9112 144.799 48.0553 144.414C55.7111 143.489 63.1151 141.549 69.8562 137.64C74.2553 135.092 77.857 131.73 79.8922 126.952C82.312 121.27 80.2659 115.031 74.9298 111.937C72.6491 110.61 70.2907 109.958 67.9104 109.958C65.9755 109.958 64.0242 110.387 62.0784 111.24C58.4425 112.834 55.8447 115.516 55.1982 119.614C54.5959 123.467 56.0903 126.55 59.1846 129.059C59.0441 129.289 58.9213 129.531 58.7999 129.77C58.5442 130.272 58.2952 130.76 57.9133 131.089C57.3595 131.565 56.8146 132.063 56.2683 132.562L56.2662 132.563C54.6512 134.038 53.0273 135.523 51.1442 136.48C47.1857 138.487 43.0486 139.396 38.8562 139.396C36.0067 139.396 33.1299 138.978 30.2641 138.204C27.9725 137.579 25.7368 135.956 23.9969 134.256C21.0922 131.406 21.1311 126.979 23.9581 124.041C25.3801 122.57 27.2366 121.304 29.1319 120.551C31.0109 119.804 32.9178 119.481 34.8247 119.481C37.1886 119.481 39.5587 119.976 41.8891 120.785C42.2179 120.902 42.4968 120.958 42.7424 120.958C43.2771 120.958 43.6679 120.679 44.1419 120.083C44.4263 119.728 44.71 119.372 44.9937 119.016L44.9958 119.013L44.9978 119.011L44.9999 119.008C46.6722 116.907 48.3588 114.787 50.3306 113.001C57.1658 106.807 65.5908 104.761 74.5342 104.415C76.1506 104.349 76.686 103.919 76.6635 102.252C76.6171 98.8378 76.6205 95.4236 76.6246 92.0094C76.628 88.9055 76.6314 85.7989 76.5967 82.693C76.5748 81.1816 77.2043 80.6858 78.5595 80.5466C78.7655 80.5296 78.9667 80.5187 79.1672 80.5187C81.6709 80.5187 84.0512 82.0798 84.8485 84.8229C85.5012 87.092 85.7965 89.5344 85.8415 91.9092C85.8885 94.5663 85.8428 97.2255 85.7965 99.8854C85.7508 102.545 85.7044 105.205 85.7521 107.861C85.7589 108.237 85.7658 108.614 85.7726 108.991V108.994C85.8435 113.073 85.9158 117.186 86.5992 121.181C87.7477 127.917 91.8235 133.258 96.0445 138.438C96.5574 139.062 96.9926 139.346 97.5 139.346C97.8567 139.346 98.2468 139.212 98.7317 138.956C106.353 134.908 113.997 130.9 121.639 126.894L121.642 126.892C123.873 125.723 126.103 124.554 128.332 123.383C128.665 123.211 128.986 123.019 129.342 122.806C129.517 122.701 129.702 122.59 129.9 122.475C128.795 120.729 127.775 119.107 126.727 117.44C126.132 117.749 125.556 118.044 124.993 118.331L124.982 118.337L124.979 118.338C123.713 118.985 122.517 119.597 121.346 120.255C120.967 120.473 120.644 120.601 120.343 120.601C119.952 120.601 119.601 120.378 119.222 119.86C116.758 116.453 114.973 112.762 114.778 108.519C114.643 105.613 114.596 102.704 114.549 99.792V99.7893C114.516 97.7862 114.483 95.781 114.422 93.7772C114.221 87.2039 111.511 81.8848 105.908 78.3942C103.694 77.0172 101.302 75.9273 98.9118 74.8388C97.9726 74.4105 97.0335 73.9828 96.1059 73.5382C95.5821 73.2885 95.0263 73.1024 94.3654 72.88C94.0203 72.7641 93.6472 72.6386 93.2346 72.4899C93.5477 72.3064 93.8089 72.151 94.0374 72.0145C94.4343 71.7772 94.733 71.5985 95.0406 71.4362C96.5915 70.6205 98.1432 69.8068 99.6948 68.9938L99.7132 68.9843C104.181 66.6422 108.649 64.3008 113.089 61.9069C113.714 61.5728 114.427 60.7195 114.461 60.0675C114.65 56.075 114.795 52.066 114.694 48.0687C114.527 40.9374 110.301 36.4381 103.215 35.6852C102.623 35.6184 102.038 35.5904 101.458 35.5904C98.18 35.5904 95.0911 36.5609 92.1359 38.0436C89.3573 39.4384 86.5897 40.8495 83.8213 42.2613L83.8193 42.2626L83.8159 42.264C82.1033 43.137 80.3914 44.0106 78.6768 44.8795C78.3065 45.0678 77.9232 45.2274 77.4703 45.4149C77.2139 45.5213 76.9349 45.6366 76.6246 45.7716V43.4077V19.5553C76.6246 17.0237 76.714 16.9125 79.1283 16.3212C79.9365 16.1261 80.684 16.0258 81.364 16.0258C84.3581 16.0258 86.0645 17.9328 86.2261 21.6239C86.3059 23.4613 86.2896 25.3041 86.2732 27.1469C86.265 27.9933 86.2575 28.8404 86.2596 29.6861V34.2693C86.484 34.1909 86.6715 34.1322 86.8332 34.0824C87.0978 33.9999 87.2949 33.9385 87.4749 33.8451L89.7815 32.64C97.4216 28.6488 105.063 24.6562 112.676 20.6091C113.184 20.3356 113.652 19.4994 113.686 18.8972C113.802 16.7338 113.809 14.554 113.714 12.3798C113.435 5.98442 108.996 1.39031 102.618 0.715103C101.954 0.648265 101.308 0.614845 100.661 0.614845ZM7.39102 27.3495C7.92095 31.8774 11.5343 35.0666 15.5487 35.0666C16.2341 35.0666 16.9257 34.9773 17.6166 34.7822C19.8973 34.1466 21.659 32.2116 21.854 30.1322C22.0552 27.9463 21.0513 26.1396 19.1334 25.2475C18.3975 24.9024 17.6391 24.7292 16.8923 24.7292C15.4757 24.7292 14.0987 25.3423 12.9393 26.5972C12.5546 27.0098 12.2034 27.2049 11.874 27.2049C11.5561 27.2049 11.2554 27.0317 10.9539 26.6975C10.175 25.8415 9.4405 24.946 8.59479 23.9141C8.21218 23.4476 7.80638 22.9525 7.36375 22.4212C7.36375 23.0248 7.34737 23.597 7.33237 24.1474C7.30031 25.2836 7.27099 26.3244 7.39102 27.3495ZM36.8108 16.33C35.8485 14.7034 34.9114 13.1204 33.7158 11.7659C32.4977 10.3882 31.015 9.24314 29.5827 8.13622C28.9696 7.66221 28.3646 7.19503 27.7945 6.72034C29.2049 6.16244 30.9781 5.89507 32.9014 5.89507C38.7559 5.89507 46.0659 8.35923 49.3218 12.6417C47.4804 13.6088 45.6682 14.5595 43.8841 15.4959L43.8766 15.4993L43.8568 15.5103L43.8145 15.5321L43.7668 15.5573L43.732 15.5757L43.7279 15.5778L43.6474 15.62C41.7807 16.5994 39.944 17.5631 38.1373 18.5125C37.6736 17.7875 37.2398 17.0543 36.8108 16.33ZM32.4888 0.236328C24.7942 0.236328 17.4406 2.97329 10.5208 8.08643C4.17597 12.7808 0.679909 19.3323 1.20439 27.4948C1.56654 33.1767 4.45491 37.3916 9.65671 39.6382C11.6973 40.5248 13.7325 40.9763 15.7179 40.9763C18.8006 40.9763 21.7613 39.8837 24.4709 37.6255C27.7385 34.894 29.0487 31.1804 28.1675 26.9873C27.3423 23.0514 24.6271 20.5197 20.8194 19.6331C20.1053 19.466 19.3585 19.3992 18.5946 19.3992C17.2203 19.3992 15.7956 19.6099 14.4431 19.8104L14.435 19.8118C14.1901 19.8506 13.978 19.8677 13.7884 19.8677C13.0689 19.8677 12.6678 19.5888 12.3166 18.7969C11.1456 16.2046 12.0602 13.6511 14.8196 11.9556C16.2082 11.1085 17.8308 10.6958 19.5031 10.6958C22.2523 10.6958 25.1346 11.8055 27.3034 13.8904C30.6208 17.0741 31.9534 21.1274 32.4329 25.5606C32.4861 26.0346 32.5638 26.5065 32.6525 27.0426C32.703 27.3502 32.7575 27.6789 32.8121 28.0411C36.746 25.9766 40.6417 23.9305 44.5231 21.8926C51.4463 18.2574 58.3232 14.6461 65.2901 10.9912C65.0084 10.5485 64.7451 10.1216 64.4914 9.70896L64.4901 9.70692C63.864 8.69002 63.2904 7.75906 62.6247 6.89902L61.0022 6.5587C59.5358 7.18889 58.1254 7.95822 56.7484 8.77801C56.3856 8.99489 56.0732 9.08969 55.7779 9.08969C55.3039 9.08969 54.8749 8.83936 54.3449 8.44311C53.7898 8.02912 53.2387 7.59876 52.6856 7.16772C50.7909 5.6891 48.8785 4.19684 46.7288 3.28565C41.8728 1.22253 37.1164 0.236328 32.4888 0.236328Z" stroke="black" stroke-width="1"/>
</svg>
