<svg width="130" height="217" viewBox="0 0 130 217" fill="none" xmlns="http://www.w3.org/2000/svg">

<path fill-rule="evenodd" clip-rule="evenodd" d="M66.7341 0.467041H60.5229C60.7636 1.52759 60.9921 2.53016 61.2267 3.55661C61.389 4.26796 61.5541 4.9909 61.7273 5.75272C60.1437 5.33464 58.8505 4.99499 57.3337 4.59874V10.8099C58.5586 10.4989 59.6785 10.2186 60.9246 9.90625L61.7662 9.69482C61.3038 11.6188 60.9191 13.2297 60.5345 14.8468H66.7006C66.2935 13.1854 65.8979 11.5683 65.4464 9.70574C66.5124 9.96695 67.4441 10.1981 68.3832 10.4307L68.3859 10.4314L68.39 10.4328L68.3975 10.4348C68.8579 10.5487 69.3203 10.6633 69.8011 10.782V4.66558C69.2876 4.78903 68.7945 4.9077 68.3034 5.02569C67.3704 5.25076 66.449 5.47309 65.4294 5.71384L65.6776 4.71877C66.0466 3.23878 66.3774 1.91293 66.7341 0.467041ZM40.1788 28.8413C39.5766 28.8413 39.0862 29.3262 38.5174 30.3131C36.8894 33.1237 37.285 36.4356 39.5486 39.2455C39.8303 39.5981 40.0765 39.9794 40.3234 40.3606C40.4427 40.5455 40.5621 40.7303 40.6862 40.9124L40.3629 41.2636C40.0499 41.1491 39.7403 41.0208 39.4299 40.8926C38.7172 40.5973 38.0052 40.3034 37.2625 40.171C37.0899 40.1376 36.9228 40.1206 36.7666 40.1206C35.6795 40.1206 34.9102 40.8231 34.475 41.9327C33.9008 43.4161 34.3188 45.6961 35.4953 46.711C36.2367 47.3466 36.8778 47.6031 37.452 47.6031C38.6013 47.6031 39.4933 46.5882 40.4154 45.5379C40.6616 45.2583 40.9099 44.9759 41.1657 44.7092C41.9295 47.5867 41.2216 49.7664 39.6659 51.612C38.0325 53.5469 36.0253 54.5672 33.7057 54.5672C32.9978 54.5672 32.2673 54.4724 31.5034 54.2773C29.0836 53.6697 27.221 52.3533 26.3235 49.761C26.4572 49.7494 26.5854 49.7494 26.7136 49.7494C27.1876 49.7494 27.6446 49.7999 28.0906 49.8503L28.2338 49.8667C28.6246 49.9117 29.0079 49.956 29.3953 49.956C29.4124 49.956 29.4294 49.956 29.4458 49.9506C30.031 49.9506 30.9735 49.6328 31.1351 49.2092C32.5067 45.7241 32.1889 44.9773 28.9438 43.1986C28.18 42.7805 27.723 42.5459 27.3881 42.5459C26.9148 42.5459 26.7027 43.0199 26.2566 44.1404C26.0241 44.7161 25.7533 45.2739 25.4819 45.8325C25.3427 46.119 25.2029 46.4054 25.0692 46.6946L24.3886 46.5214C24.3667 46.1394 24.3524 45.7555 24.3381 45.3722C24.3026 44.4132 24.2679 43.4543 24.1042 42.5179C23.9985 41.9382 23.4133 41.0352 22.9891 40.9963C22.0861 40.9179 21.1769 40.896 20.2241 40.896C19.7119 40.896 19.1861 40.9022 18.6398 40.909C18.0492 40.9158 17.4353 40.9233 16.7895 40.9233C16.9477 41.2343 17.0807 41.5051 17.2007 41.7472C17.4176 42.1878 17.5895 42.537 17.7873 42.8753C18.8553 44.7126 19.9268 46.5473 20.9976 48.3819L20.9989 48.384L21.001 48.3881L21.0037 48.3928L21.0057 48.3956C23.6506 52.9249 26.2948 57.4563 28.8886 62.0163C29.3789 62.8804 29.8304 63.265 30.5166 63.265C30.8173 63.265 31.1631 63.1921 31.5757 63.0529C40.8588 59.9641 50.4323 58.3974 60.1948 58.0851C61.3659 58.0462 62.5369 58.0292 63.7079 58.0292C74.591 58.0292 85.2626 59.6578 95.6723 63.0584C96.074 63.1866 96.4137 63.265 96.7206 63.265C97.3392 63.265 97.7968 62.9472 98.2647 62.1274C100.856 57.5647 103.499 53.0292 106.142 48.4945L106.143 48.4924L106.145 48.4897L106.146 48.4876L106.148 48.4849L106.149 48.4822L106.15 48.4801L106.152 48.4774L106.153 48.4754L106.154 48.4726L106.156 48.4706L106.157 48.4679C107.252 46.5896 108.347 44.7106 109.438 42.8303C109.637 42.4879 109.802 42.1257 110.012 41.6654C110.12 41.4294 110.239 41.1668 110.381 40.8681C109.777 40.8681 109.209 40.8756 108.664 40.8824C108.16 40.8892 107.676 40.896 107.203 40.896C106.567 40.896 105.954 40.8844 105.341 40.8456C105.229 40.8401 105.118 40.8401 105.011 40.8401C103.573 40.8401 102.932 41.4587 103.021 43.0983C103.068 43.9031 102.96 44.7133 102.854 45.5256C102.807 45.883 102.759 46.2417 102.725 46.5998L101.978 46.6666C101.856 46.3652 101.725 46.0651 101.594 45.765C101.304 45.0994 101.013 44.431 100.802 43.7394C100.556 42.9367 100.205 42.5909 99.7201 42.5909C99.4132 42.5909 99.0565 42.73 98.6384 42.981C97.9025 43.4188 97.3187 43.7353 96.859 43.9849C95.9861 44.4589 95.5646 44.6874 95.4084 45.0352C95.2624 45.3599 95.3477 45.7882 95.5121 46.6162C95.6048 47.0854 95.7235 47.6829 95.8394 48.4617C96.0181 49.6273 96.4417 50.0843 97.211 50.0843C97.4845 50.0843 97.8077 50.0229 98.176 49.9172C98.7537 49.7507 99.3648 49.6921 100.03 49.628C100.346 49.598 100.676 49.5659 101.019 49.5209C100.15 52.3424 97.5234 54.216 94.4624 54.5338C94.2169 54.5617 93.972 54.5727 93.7265 54.5727C90.8941 54.5727 87.9723 52.9447 86.718 50.4464C85.8764 48.7686 85.1569 46.9845 86.1717 44.7597C86.3627 44.9827 86.5482 45.2119 86.731 45.437L86.7324 45.439C87.6299 46.5466 88.4674 47.5805 89.6896 47.5805C90.1411 47.5805 90.6431 47.436 91.2228 47.1011C92.5725 46.3263 93.3644 44.0852 92.829 42.3624C92.2936 40.645 91.4738 40.126 90.5374 40.126C89.8212 40.126 89.0355 40.4289 88.2512 40.7303C87.7227 40.9336 87.1954 41.1368 86.6901 41.2473L86.7071 40.4998C86.9465 40.1554 87.2036 39.8239 87.4614 39.4911C87.5876 39.3281 87.7138 39.1651 87.8386 39C90.0354 36.1567 90.2693 32.7943 88.5465 30.0457C88.0671 29.2764 87.5712 28.9081 86.997 28.9081C86.5844 28.9081 86.1267 29.0977 85.5975 29.4769C83.0044 31.3225 81.8839 34.6344 82.7814 38.0302C82.9123 38.5212 83.0078 39.0218 83.1033 39.5231C83.1538 39.7898 83.2049 40.0565 83.2609 40.3218L82.8039 40.5946C82.4663 40.2911 82.1485 39.9262 81.8313 39.5613C81.0572 38.6726 80.2838 37.7846 79.2246 37.7846C78.6947 37.7846 78.0979 38.0022 77.3955 38.5485C76.1412 39.5299 75.4885 41.9102 76.1467 43.4325C76.766 44.8599 77.5516 45.323 78.4103 45.323C79.2042 45.323 80.0526 44.9322 80.8813 44.5517C81.2284 44.3921 81.5722 44.2339 81.9064 44.107L82.1069 44.6758C81.5994 47.9263 77.9533 50.664 74.3236 50.664C74.089 50.664 73.8551 50.6531 73.6211 50.6306C69.6067 50.2234 65.6592 46.505 65.7485 43.2211C65.7704 42.5629 65.9825 42.2396 66.3562 42.2396C66.5567 42.2396 66.7968 42.329 67.0696 42.507C67.8389 43.0035 68.5749 43.5552 69.2835 44.135C69.6013 44.3969 69.8741 44.5196 70.1305 44.5196C70.4763 44.5196 70.7941 44.3082 71.1508 43.9119C73.9219 40.879 73.9055 40.7842 71.5635 37.5227C71.0895 36.8646 70.6714 36.5188 70.1865 36.5188C69.8298 36.5188 69.4397 36.703 68.9656 37.0876C68.3457 37.5848 67.6452 37.977 66.9421 38.3705C66.6202 38.5506 66.2976 38.7313 65.9825 38.9223L65.4921 38.3698C65.6967 38.0281 65.9 37.6851 66.1025 37.342C66.5786 36.5365 67.056 35.7304 67.5607 34.9413C68.0067 34.2552 68.0006 33.7982 67.2926 33.224C65.5699 31.8128 64.6778 31.122 63.7523 31.122C62.8602 31.122 61.9347 31.7576 60.2119 33.0064C59.2304 33.7089 59.1465 34.2606 59.8218 35.2141C60.3189 35.9214 60.7377 36.6825 61.1572 37.445C61.3393 37.7765 61.5227 38.1093 61.7116 38.4367L61.2601 38.8547C61.0876 38.7743 60.9116 38.6999 60.735 38.6256C60.3735 38.4728 60.0114 38.3193 59.6819 38.1134L59.6615 38.1004C58.2804 37.2336 57.5158 36.7527 56.9109 36.7527C56.1586 36.7527 55.6457 37.5002 54.5026 39.1671L54.2237 39.5913C54.2189 39.7714 54.1991 39.963 54.1794 40.1574C54.1268 40.6717 54.0737 41.1982 54.296 41.5426C55.4834 43.4161 56.0242 44.2468 56.8331 44.2468C57.4886 44.2468 58.3158 43.7094 59.8006 42.7457L59.8156 42.7355L61.1933 42.3958L61.3604 43.6944C60.8864 47.0956 57.6802 50.0454 53.9557 50.5637C53.5826 50.6142 53.2089 50.6415 52.8406 50.6415C49.6576 50.6415 46.6908 48.7741 45.442 45.8414C45.3138 45.5386 45.2565 45.2057 45.176 44.7433C45.1303 44.4821 45.0778 44.1793 45.0014 43.8171C45.3969 44.032 45.7175 44.2086 45.9937 44.36C46.3982 44.5831 46.7085 44.7536 47.0202 44.9159C47.5385 45.1832 48.0623 45.3115 48.5588 45.3115C49.8744 45.3115 50.9957 44.4248 51.1573 42.9196C51.2739 41.8379 51.0625 40.6055 50.6049 39.6186C50.0586 38.4203 49.1385 37.8235 48.1571 37.8235C47.3434 37.8235 46.4902 38.2361 45.7768 39.0668C45.472 39.4256 45.1405 39.7632 44.8097 40.0994L44.8084 40.1015C44.6617 40.2508 44.5151 40.3995 44.3719 40.5502L43.8924 40.2768C43.9593 39.9944 44.0254 39.7114 44.0916 39.429C44.2239 38.865 44.3569 38.2989 44.4939 37.7342C45.2694 34.4673 44.3773 31.7351 41.7679 29.6222C41.1268 29.1032 40.6194 28.8413 40.1788 28.8413ZM62.6515 206.936C63.0198 206.332 63.3847 205.738 63.7448 205.15C64.793 203.442 65.8086 201.787 66.7832 200.112C67.2845 199.259 67.0451 198.712 65.9797 198.366C62.5901 197.262 61.0733 194.926 61.7819 192.155C62.4394 189.59 64.9656 187.828 67.7755 187.828C68.0933 187.828 68.4166 187.851 68.7454 187.895C72.6206 188.464 75.1796 191.854 74.0426 195.578C73.3456 197.848 71.9959 200.033 70.5131 201.907C68.5278 204.411 65.6401 205.765 62.6515 206.936ZM16.8072 206.769C8.03705 202.86 4.74697 194.519 9.17399 186.591C11.4826 182.46 15.0455 179.655 19.227 177.569C25.6837 174.341 32.5749 173.153 39.6502 173.153C40.2136 173.153 40.7824 173.16 41.3505 173.176C44.2293 173.252 47.102 173.602 49.9754 173.953C51.1307 174.094 52.2881 174.235 53.4442 174.358C53.8581 174.404 54.2673 174.506 54.7857 174.634C55.0776 174.706 55.405 174.787 55.7862 174.871C55.5107 175.008 55.2863 175.123 55.094 175.221L55.0912 175.223C54.7304 175.407 54.4822 175.534 54.2251 175.646C49.2067 177.826 44.9359 180.993 41.5012 185.258C41.0109 185.872 40.5368 186.145 39.8569 186.145C39.6891 186.145 39.5111 186.128 39.316 186.095C37.7214 185.838 36.1487 185.699 34.5876 185.699C30.5841 185.699 26.7204 186.619 23.0961 188.787C18.0894 191.781 14.9562 195.964 15.6143 202.135C15.7323 203.229 16.0638 204.299 16.3864 205.341C16.5357 205.823 16.6838 206.299 16.8072 206.769ZM99.4814 203.54C99.0688 203.54 98.7005 203.317 98.2879 202.777C94.6138 198.021 92.462 192.735 92.445 186.657C92.4402 184.868 92.4354 183.078 92.4313 181.289C92.4157 175.021 92.4007 168.754 92.3611 162.488C92.3447 161.01 92.2554 159.51 92.0215 158.055C91.3913 154.158 89.6351 150.93 86.0387 148.912L86.3177 148.354C87.649 148.869 88.9939 149.358 90.3382 149.847C93.3787 150.954 96.4205 152.061 99.3198 153.461C104.906 156.154 107.984 160.72 107.9 167.149C107.88 168.727 107.896 170.307 107.911 171.886C107.929 173.677 107.947 175.468 107.912 177.257C107.784 183.652 109.668 189.407 113.214 194.67L113.766 195.534L113.9 196.025L112.534 196.856C111.165 197.58 109.795 198.298 108.425 199.016L108.415 199.022L108.41 199.025C105.789 200.399 103.169 201.772 100.569 203.184C100.15 203.412 99.7992 203.54 99.4814 203.54ZM69.7172 172.033C62.7476 170.511 55.8783 169.011 48.8644 167.483C49.8206 166.988 50.7692 166.485 51.7166 165.982C53.9454 164.799 56.1661 163.622 58.4434 162.566C60.1553 161.774 60.6845 160.753 60.6627 158.892C60.5965 154.169 60.6006 149.446 60.6047 144.722C60.6074 141.442 60.6102 138.162 60.5897 134.883C60.5788 133.578 60.93 132.792 62.1734 132.207C63.9425 131.38 65.6715 130.461 67.4959 129.493L67.5 129.491C68.2216 129.108 68.9575 128.717 69.7172 128.321V172.033ZM76.7141 146.291C76.6977 146.006 76.6814 145.761 76.6671 145.541C76.637 145.089 76.6139 144.749 76.6139 144.412C76.6105 142.414 76.6118 140.416 76.6139 138.418C76.6173 134.423 76.6213 130.427 76.5804 126.436C76.5695 125.12 77.049 124.496 78.2528 124.078C79.329 123.704 80.3104 123.52 81.1862 123.52C84.1461 123.52 85.9085 125.605 85.9473 129.464C85.9651 131.02 85.9596 132.575 85.9549 134.13V134.133V134.135V134.138V134.141C85.948 136.008 85.9419 137.874 85.9753 139.74C85.9978 140.905 85.6575 141.613 84.5587 142.148C82.7828 143.024 81.0368 143.966 79.1837 144.965L79.1817 144.967C78.3824 145.398 77.5639 145.839 76.7141 146.291ZM92.6707 137.052C92.6121 136.581 92.5623 136.186 92.5589 135.791C92.5528 135.184 92.5418 134.577 92.5309 133.97C92.4996 132.235 92.4675 130.498 92.5589 128.772C92.7649 124.674 91.3769 121.507 87.2398 119.439C88.0357 119.008 88.8153 118.57 89.5846 118.139C92.8794 116.29 96.0052 114.537 99.5892 113.768C100.303 113.612 100.983 113.54 101.63 113.54C105.232 113.54 107.752 115.859 108.064 119.896C108.244 122.265 108.156 124.659 108.069 127.049C108.048 127.63 108.026 128.21 108.009 128.789L107.261 130.166C103.321 132.291 99.3559 134.36 95.2215 136.518C94.4078 136.943 93.5874 137.372 92.7594 137.805C92.7301 137.53 92.6994 137.282 92.6707 137.052ZM37.4029 131.214C38.5569 131.214 38.9587 130.656 38.9361 129.274C38.8973 126.216 38.9 123.156 38.9027 120.097C38.9055 117.037 38.9082 113.978 38.8693 110.919C38.8584 109.576 39.3099 108.884 40.4864 108.282C43.6591 106.655 46.8033 104.971 50.0511 103.232L50.0545 103.23C51.3251 102.549 52.6121 101.86 53.9229 101.162C53.942 101.484 53.9639 101.767 53.9843 102.026C54.0177 102.46 54.0457 102.826 54.0457 103.191C54.0471 107.595 54.047 111.999 54.047 116.403C54.047 129.612 54.047 142.822 54.0852 156.031C54.0907 157.453 53.5942 158.172 52.3679 158.785C49.2634 160.34 46.1867 161.944 42.9724 163.621L42.9676 163.623C41.6397 164.315 40.2886 165.02 38.9027 165.738V163.497C38.9027 161.513 38.9 159.529 38.8973 157.544V157.541V157.538V157.536C38.8898 151.86 38.8823 146.183 38.9361 140.509C38.9532 139.036 38.5235 138.569 37.1465 138.569C37.096 138.569 37.0463 138.569 36.9958 138.574C35.2171 138.607 33.4384 138.618 31.6603 138.618C30.4927 138.618 29.3237 138.614 28.1547 138.61C26.9837 138.606 25.812 138.602 24.6402 138.602H22.5942C22.7783 136.433 23.843 135.022 25.209 133.779C27.6582 131.551 30.7287 131.374 33.7903 131.198L33.8905 131.192C34.4587 131.158 35.0329 131.136 35.6017 131.136C36.0648 131.136 36.5218 131.153 36.9794 131.192C37.1295 131.209 37.2693 131.214 37.4029 131.214ZM60.8018 126.101C60.7745 125.823 60.7452 125.577 60.7179 125.351C60.6681 124.93 60.6265 124.582 60.6231 124.234C60.6218 121.867 60.6224 119.501 60.6238 117.133V117.131C60.6265 111.211 60.6293 105.29 60.5897 99.3721C60.5843 98.0339 61.0467 97.298 62.2402 96.7353C63.9985 95.8999 65.726 94.9928 67.5382 94.0407L67.5409 94.04L67.5443 94.0379L67.5539 94.0325L67.5586 94.0305L67.5661 94.0264L67.5696 94.0243L67.577 94.0202L67.5811 94.0182C68.2829 93.6492 68.9991 93.2741 69.7336 92.8935C69.75 93.1499 69.7663 93.3778 69.7813 93.5865C69.8175 94.085 69.8448 94.471 69.8448 94.8564C69.8468 97.2223 69.8455 99.5889 69.8441 101.956V101.958C69.8414 107.878 69.8386 113.8 69.8789 119.718C69.8898 120.994 69.4601 121.675 68.3341 122.215C66.6065 123.048 64.9069 123.943 63.1166 124.887C62.3643 125.284 61.595 125.689 60.8018 126.101ZM92.876 95.8051V95.7867C92.7683 90.885 92.668 86.3113 87.2719 83.7994C87.7213 83.5559 88.1373 83.3159 88.5336 83.0874C89.3513 82.6154 90.0872 82.1912 90.8681 81.8761C91.4854 81.6244 92.1019 81.3632 92.7185 81.102C94.8355 80.2045 96.9593 79.3042 99.1704 78.7818C99.7945 78.631 100.397 78.5642 100.971 78.5642C104.462 78.5642 106.892 81.1961 107.238 85.0652C107.472 87.736 106.792 89.3361 104.166 90.4621C101.572 91.5799 99.077 92.9324 96.4689 94.3455C95.3034 94.9771 94.116 95.6209 92.8863 96.2614C92.8829 96.1086 92.8794 95.9572 92.876 95.8051ZM100.644 72.6149C96.8966 72.6149 93.4176 73.7471 90.0722 75.4924C84.213 78.5492 78.3544 81.6081 72.4958 84.667L72.489 84.671L72.4821 84.6744C59.5926 91.4047 46.703 98.1356 33.8039 104.842C32.6492 105.439 32.3096 106.163 32.3205 107.39C32.3471 109.968 32.3444 112.545 32.3417 115.121C32.3389 117.921 32.3355 120.721 32.371 123.52C32.3874 124.947 31.9468 125.371 30.4975 125.672C27.7878 126.224 24.9328 126.815 22.5744 128.159C17.0882 131.27 14.9582 136.55 14.3615 142.605C14.2223 143.999 14.5285 144.523 15.9506 144.523H16.0454C17.406 144.501 18.7605 144.495 20.1212 144.495C20.9628 144.495 21.7996 144.495 22.6358 144.501C23.0736 144.501 23.5122 144.502 23.9514 144.504C24.3906 144.505 24.8298 144.506 25.2677 144.506C26.94 144.506 28.613 144.495 30.2853 144.457H30.447C32.0136 144.457 32.3983 145.058 32.3764 146.614C32.298 152.959 32.2762 159.31 32.3873 165.66C32.4208 167.377 31.7797 167.801 30.2294 168.136C26.5554 168.933 22.8417 169.741 19.3239 171.03C12.8562 173.399 7.29706 177.129 3.5507 183.117C-1.35032 190.94 -0.407765 199.782 6.0094 206.395C9.22105 209.702 13.0793 211.954 17.4115 213.476C24.3695 215.924 31.4618 217 38.649 217C41.7652 217 44.8936 216.799 48.0378 216.414C55.6935 215.489 63.0975 213.549 69.8386 209.64C74.2377 207.092 77.8395 203.73 79.8746 198.952C82.2944 193.27 80.2484 187.031 74.9122 183.937C72.6315 182.61 70.2731 181.958 67.8928 181.958C65.9579 181.958 64.0066 182.387 62.0608 183.24C58.425 184.834 55.8271 187.516 55.1806 191.614C54.5784 195.467 56.0727 198.551 59.167 201.059C59.0265 201.289 58.9038 201.531 58.7824 201.77C58.5266 202.272 58.2776 202.76 57.8957 203.089C57.3419 203.565 56.797 204.063 56.2507 204.562L56.2486 204.563C54.6336 206.038 53.0097 207.523 51.1266 208.48C47.1682 210.487 43.031 211.396 38.8386 211.396C35.9891 211.396 33.1123 210.978 30.2465 210.204C27.9549 209.579 25.7192 207.956 23.9794 206.256C21.0746 203.407 21.1135 198.98 23.9405 196.041C25.3625 194.57 27.219 193.304 29.1143 192.551C30.9933 191.804 32.9002 191.481 34.8072 191.481C37.1711 191.481 39.5411 191.977 41.8716 192.785C42.2003 192.902 42.4793 192.958 42.7248 192.958C43.2595 192.958 43.6503 192.679 44.1243 192.083C44.4087 191.728 44.6924 191.372 44.9761 191.016L44.9782 191.013L44.9802 191.011L44.9823 191.008C46.6546 188.907 48.3413 186.787 50.313 185.001C57.1482 178.807 65.5732 176.761 74.5166 176.415C76.133 176.349 76.6684 175.919 76.6459 174.252C76.5995 170.838 76.6029 167.424 76.607 164.009C76.6104 160.906 76.6139 157.799 76.5791 154.693C76.5573 153.182 77.1868 152.686 78.5419 152.547C78.7479 152.53 78.9491 152.519 79.1496 152.519C81.6533 152.519 84.0336 154.08 84.8309 156.823C85.4836 159.092 85.7789 161.534 85.8239 163.909C85.871 166.566 85.8253 169.226 85.7789 171.885C85.7332 174.545 85.6868 177.205 85.7345 179.861C85.7414 180.238 85.7482 180.614 85.755 180.991V180.994C85.826 185.073 85.8982 189.186 86.5816 193.181C87.7302 199.917 91.8059 205.258 96.027 210.438C96.5399 211.062 96.975 211.346 97.4824 211.346C97.8391 211.346 98.2292 211.212 98.7141 210.956C106.335 206.908 113.98 202.901 121.621 198.894L121.625 198.892C123.856 197.723 126.086 196.554 128.315 195.383C128.647 195.211 128.968 195.019 129.325 194.806C129.499 194.701 129.684 194.59 129.882 194.475C128.778 192.729 127.757 191.107 126.709 189.44C126.114 189.749 125.538 190.044 124.975 190.331L124.965 190.337L124.962 190.338C123.695 190.986 122.5 191.597 121.329 192.255C120.949 192.473 120.626 192.601 120.325 192.601C119.935 192.601 119.583 192.378 119.204 191.86C116.74 188.453 114.956 184.762 114.761 180.519C114.625 177.613 114.578 174.704 114.531 171.792V171.789C114.498 169.786 114.465 167.781 114.404 165.777C114.204 159.204 111.493 153.885 105.89 150.394C103.677 149.017 101.285 147.927 98.8942 146.839C97.9551 146.411 97.0159 145.983 96.0884 145.538C95.5646 145.289 95.0087 145.102 94.3478 144.88C94.0027 144.764 93.6297 144.639 93.217 144.49C93.5301 144.306 93.7913 144.151 94.0198 144.015C94.4167 143.777 94.7155 143.599 95.023 143.436C96.574 142.621 98.1256 141.807 99.6772 140.994L99.6956 140.984C104.164 138.642 108.631 136.301 113.071 133.907C113.696 133.573 114.41 132.72 114.443 132.068C114.633 128.075 114.778 124.066 114.677 120.069C114.51 112.937 110.283 108.438 103.197 107.685C102.606 107.618 102.021 107.59 101.441 107.59C98.1624 107.59 95.0735 108.561 92.1183 110.044C89.3397 111.438 86.5721 112.85 83.8037 114.261L83.8017 114.263L83.7983 114.264C82.0857 115.137 80.3739 116.011 78.6592 116.88C78.2889 117.068 77.9056 117.227 77.4528 117.415C77.1963 117.521 76.9173 117.637 76.607 117.772V115.408V91.5554C76.607 89.0237 76.6964 88.9125 79.1108 88.3212C79.919 88.1262 80.6664 88.0259 81.3464 88.0259C84.3405 88.0259 86.0469 89.9329 86.2086 93.624C86.2884 95.4613 86.272 97.3042 86.2556 99.147C86.2474 99.9934 86.2399 100.84 86.242 101.686V106.269C86.4664 106.191 86.6539 106.132 86.8156 106.082C87.0802 106 87.2773 105.939 87.4573 105.845L89.764 104.64C97.404 100.649 105.045 96.6562 112.659 92.6091C113.166 92.3356 113.635 91.4994 113.668 90.8972C113.785 88.7338 113.791 86.5541 113.696 84.3798C113.417 77.9845 108.979 73.3904 102.6 72.7152C101.937 72.6483 101.29 72.6149 100.644 72.6149ZM7.37344 99.3495C7.90338 103.877 11.5167 107.067 15.5311 107.067C16.2166 107.067 16.9081 106.977 17.599 106.782C19.8797 106.147 21.6414 104.212 21.8364 102.132C22.0376 99.9463 21.0337 98.1396 19.1159 97.2475C18.3799 96.9024 17.6215 96.7292 16.8747 96.7292C15.4582 96.7292 14.0812 97.3423 12.9217 98.5973C12.5371 99.0099 12.1858 99.205 11.8564 99.205C11.5386 99.205 11.2378 99.0317 10.9363 98.6975C10.1575 97.8416 9.42292 96.9461 8.57722 95.9142C8.1946 95.4477 7.7888 94.9526 7.34617 94.4213C7.34617 95.0248 7.3298 95.597 7.31479 96.1474C7.28274 97.2837 7.25341 98.3245 7.37344 99.3495ZM36.7932 88.3301C35.8309 86.7035 34.8938 85.1205 33.6982 83.766C32.4801 82.3883 30.9974 81.2432 29.5651 80.1363C28.952 79.6623 28.347 79.1951 27.7769 78.7204C29.1873 78.1625 30.9605 77.8951 32.8839 77.8951C38.7383 77.8951 46.0483 80.3593 49.3043 84.6417C47.4628 85.6088 45.6507 86.5596 43.8665 87.496L43.859 87.4994L43.8392 87.5103L43.7969 87.5321L43.7492 87.5574L43.7144 87.5758L43.7103 87.5778L43.6298 87.6201C41.7631 88.5995 39.9264 89.5632 38.1198 90.5126C37.656 89.7876 37.2222 89.0544 36.7932 88.3301ZM32.4712 72.2364C24.7767 72.2364 17.4231 74.9733 10.5033 80.0865C4.15839 84.7808 0.662331 91.3324 1.18681 99.4948C1.54896 105.177 4.43734 109.392 9.63913 111.638C11.6797 112.525 13.7149 112.976 15.7003 112.976C18.783 112.976 21.7437 111.884 24.4534 109.626C27.7209 106.894 29.0311 103.18 28.1499 98.9874C27.3247 95.0514 24.6095 92.5198 20.8018 91.6331C20.0877 91.466 19.3409 91.3992 18.577 91.3992C17.2028 91.3992 15.778 91.6099 14.4256 91.8105L14.4174 91.8118C14.1725 91.8507 13.9604 91.8677 13.7708 91.8677C13.0513 91.8677 12.6503 91.5888 12.299 90.797C11.128 88.2046 12.0426 85.6511 14.802 83.9556C16.1906 83.1085 17.8132 82.6959 19.4855 82.6959C22.2347 82.6959 25.117 83.8056 27.2858 85.8905C30.6032 89.0742 31.9359 93.1275 32.4153 97.5606C32.4685 98.0346 32.5463 98.5066 32.6349 99.0426C32.6854 99.3502 32.74 99.679 32.7945 100.041C36.7284 97.9766 40.6241 95.9306 44.5055 93.8927C51.4288 90.2575 58.3056 86.6462 65.2725 82.9912C64.9908 82.5486 64.7276 82.1216 64.4738 81.709L64.4725 81.707C63.8464 80.6901 63.2728 79.7591 62.6071 78.8991L60.9846 78.5588C59.5183 79.1889 58.1078 79.9583 56.7308 80.7781C56.368 80.9949 56.0556 81.0897 55.7603 81.0897C55.2863 81.0897 54.8573 80.8394 54.3274 80.4432C53.7722 80.0292 53.2211 79.5988 52.668 79.1678C50.7734 77.6892 48.861 76.1969 46.7112 75.2857C41.8552 73.2226 37.0988 72.2364 32.4712 72.2364ZM57.8193 23.0038C57.8412 19.8815 60.4901 17.2496 63.6009 17.2496H63.6513C66.7845 17.2776 69.4383 19.9763 69.3994 23.0986C69.366 26.2489 66.7511 28.8133 63.5845 28.8133H63.5565C60.3783 28.7969 57.7914 26.1759 57.8193 23.0038ZM109.683 26.8177C107.118 26.8177 105.1 28.9136 105.139 31.54C105.178 34.0601 107.19 36.0284 109.7 36.0284H109.766C112.248 35.995 114.35 33.876 114.333 31.4118C114.316 28.9361 112.214 26.8395 109.727 26.8177H109.683ZM32.4972 15.7894C32.4133 13.2686 34.5767 11.05 37.1192 11.0555C39.6448 11.0609 41.6574 13.079 41.6854 15.6271C41.7079 18.1812 39.7232 20.2273 37.197 20.2553H37.1417C34.6551 20.2553 32.5749 18.259 32.4972 15.7894ZM50.1009 16.8595C47.6081 16.8595 45.4672 18.9894 45.4842 21.4931C45.5006 23.9573 47.6197 26.0538 50.0947 26.0593H50.1118C52.6209 26.0593 54.6725 24.035 54.7004 21.5204C54.7284 18.9894 52.7321 16.9209 50.2066 16.8595H50.1009ZM90.9091 11.0555H90.9207C93.4571 11.0555 95.5925 13.2523 95.5148 15.7948C95.448 18.2815 93.4019 20.2553 90.9036 20.2553H90.8313C88.3222 20.2157 86.287 18.1417 86.3041 15.6332C86.3204 13.1575 88.434 11.0609 90.9091 11.0555ZM18.3083 26.8232C15.7937 26.8232 13.792 28.8467 13.7865 31.4398C13.7804 33.9987 15.7541 36.0059 18.2913 36.0284H18.3302C20.8618 36.0284 22.852 34.0656 22.8799 31.523C22.9133 28.9361 21.0064 26.9064 18.4584 26.8232H18.3083ZM73.3149 21.3813C73.3654 18.911 75.4674 16.8595 77.937 16.8595H77.9704C80.4966 16.8765 82.5147 18.9226 82.5147 21.459C82.5147 24.0296 80.4687 26.0647 77.9261 26.0647C77.8872 26.0647 77.8483 26.0648 77.8088 26.0593C75.3337 25.9979 73.2651 23.8454 73.3149 21.3813ZM23.9105 15.0698C21.312 15.0698 19.3661 16.9706 19.3382 19.5412C19.3048 22.1397 21.3508 24.2247 23.905 24.2247H23.9603C26.436 24.1967 28.5271 22.0838 28.5271 19.6026C28.5271 17.0716 26.5083 15.0808 23.9384 15.0698H23.9105ZM99.5865 19.608C99.581 16.9932 101.51 15.0644 104.142 15.0698C106.767 15.0698 108.697 17.0102 108.686 19.6251C108.674 22.1895 106.673 24.2247 104.175 24.2247H104.131C101.571 24.2021 99.5919 22.1895 99.5865 19.608Z"/>

<path fill-rule="evenodd" clip-rule="evenodd" d="M66.7341 0.467041H60.5229C60.7636 1.52759 60.9921 2.53016 61.2267 3.55661C61.389 4.26796 61.5541 4.9909 61.7273 5.75272C60.1437 5.33464 58.8505 4.99499 57.3337 4.59874V10.8099C58.5586 10.4989 59.6785 10.2186 60.9246 9.90625L61.7662 9.69482C61.3038 11.6188 60.9191 13.2297 60.5345 14.8468H66.7006C66.2935 13.1854 65.8979 11.5683 65.4464 9.70574C66.5124 9.96695 67.4441 10.1981 68.3832 10.4307L68.3859 10.4314L68.39 10.4328L68.3975 10.4348C68.8579 10.5487 69.3203 10.6633 69.8011 10.782V4.66558C69.2876 4.78903 68.7945 4.9077 68.3034 5.02569C67.3704 5.25076 66.449 5.47309 65.4294 5.71384L65.6776 4.71877C66.0466 3.23878 66.3774 1.91293 66.7341 0.467041ZM40.1788 28.8413C39.5766 28.8413 39.0862 29.3262 38.5174 30.3131C36.8894 33.1237 37.285 36.4356 39.5486 39.2455C39.8303 39.5981 40.0765 39.9794 40.3234 40.3606C40.4427 40.5455 40.5621 40.7303 40.6862 40.9124L40.3629 41.2636C40.0499 41.1491 39.7403 41.0208 39.4299 40.8926C38.7172 40.5973 38.0052 40.3034 37.2625 40.171C37.0899 40.1376 36.9228 40.1206 36.7666 40.1206C35.6795 40.1206 34.9102 40.8231 34.475 41.9327C33.9008 43.4161 34.3188 45.6961 35.4953 46.711C36.2367 47.3466 36.8778 47.6031 37.452 47.6031C38.6013 47.6031 39.4933 46.5882 40.4154 45.5379C40.6616 45.2583 40.9099 44.9759 41.1657 44.7092C41.9295 47.5867 41.2216 49.7664 39.6659 51.612C38.0325 53.5469 36.0253 54.5672 33.7057 54.5672C32.9978 54.5672 32.2673 54.4724 31.5034 54.2773C29.0836 53.6697 27.221 52.3533 26.3235 49.761C26.4572 49.7494 26.5854 49.7494 26.7136 49.7494C27.1876 49.7494 27.6446 49.7999 28.0906 49.8503L28.2338 49.8667C28.6246 49.9117 29.0079 49.956 29.3953 49.956C29.4124 49.956 29.4294 49.956 29.4458 49.9506C30.031 49.9506 30.9735 49.6328 31.1351 49.2092C32.5067 45.7241 32.1889 44.9773 28.9438 43.1986C28.18 42.7805 27.723 42.5459 27.3881 42.5459C26.9148 42.5459 26.7027 43.0199 26.2566 44.1404C26.0241 44.7161 25.7533 45.2739 25.4819 45.8325C25.3427 46.119 25.2029 46.4054 25.0692 46.6946L24.3886 46.5214C24.3667 46.1394 24.3524 45.7555 24.3381 45.3722C24.3026 44.4132 24.2679 43.4543 24.1042 42.5179C23.9985 41.9382 23.4133 41.0352 22.9891 40.9963C22.0861 40.9179 21.1769 40.896 20.2241 40.896C19.7119 40.896 19.1861 40.9022 18.6398 40.909C18.0492 40.9158 17.4353 40.9233 16.7895 40.9233C16.9477 41.2343 17.0807 41.5051 17.2007 41.7472C17.4176 42.1878 17.5895 42.537 17.7873 42.8753C18.8553 44.7126 19.9268 46.5473 20.9976 48.3819L20.9989 48.384L21.001 48.3881L21.0037 48.3928L21.0057 48.3956C23.6506 52.9249 26.2948 57.4563 28.8886 62.0163C29.3789 62.8804 29.8304 63.265 30.5166 63.265C30.8173 63.265 31.1631 63.1921 31.5757 63.0529C40.8588 59.9641 50.4323 58.3974 60.1948 58.0851C61.3659 58.0462 62.5369 58.0292 63.7079 58.0292C74.591 58.0292 85.2626 59.6578 95.6723 63.0584C96.074 63.1866 96.4137 63.265 96.7206 63.265C97.3392 63.265 97.7968 62.9472 98.2647 62.1274C100.856 57.5647 103.499 53.0292 106.142 48.4945L106.143 48.4924L106.145 48.4897L106.146 48.4876L106.148 48.4849L106.149 48.4822L106.15 48.4801L106.152 48.4774L106.153 48.4754L106.154 48.4726L106.156 48.4706L106.157 48.4679C107.252 46.5896 108.347 44.7106 109.438 42.8303C109.637 42.4879 109.802 42.1257 110.012 41.6654C110.12 41.4294 110.239 41.1668 110.381 40.8681C109.777 40.8681 109.209 40.8756 108.664 40.8824C108.16 40.8892 107.676 40.896 107.203 40.896C106.567 40.896 105.954 40.8844 105.341 40.8456C105.229 40.8401 105.118 40.8401 105.011 40.8401C103.573 40.8401 102.932 41.4587 103.021 43.0983C103.068 43.9031 102.96 44.7133 102.854 45.5256C102.807 45.883 102.759 46.2417 102.725 46.5998L101.978 46.6666C101.856 46.3652 101.725 46.0651 101.594 45.765C101.304 45.0994 101.013 44.431 100.802 43.7394C100.556 42.9367 100.205 42.5909 99.7201 42.5909C99.4132 42.5909 99.0565 42.73 98.6384 42.981C97.9025 43.4188 97.3187 43.7353 96.859 43.9849C95.9861 44.4589 95.5646 44.6874 95.4084 45.0352C95.2624 45.3599 95.3477 45.7882 95.5121 46.6162C95.6048 47.0854 95.7235 47.6829 95.8394 48.4617C96.0181 49.6273 96.4417 50.0843 97.211 50.0843C97.4845 50.0843 97.8077 50.0229 98.176 49.9172C98.7537 49.7507 99.3648 49.6921 100.03 49.628C100.346 49.598 100.676 49.5659 101.019 49.5209C100.15 52.3424 97.5234 54.216 94.4624 54.5338C94.2169 54.5617 93.972 54.5727 93.7265 54.5727C90.8941 54.5727 87.9723 52.9447 86.718 50.4464C85.8764 48.7686 85.1569 46.9845 86.1717 44.7597C86.3627 44.9827 86.5482 45.2119 86.731 45.437L86.7324 45.439C87.6299 46.5466 88.4674 47.5805 89.6896 47.5805C90.1411 47.5805 90.6431 47.436 91.2228 47.1011C92.5725 46.3263 93.3644 44.0852 92.829 42.3624C92.2936 40.645 91.4738 40.126 90.5374 40.126C89.8212 40.126 89.0355 40.4289 88.2512 40.7303C87.7227 40.9336 87.1954 41.1368 86.6901 41.2473L86.7071 40.4998C86.9465 40.1554 87.2036 39.8239 87.4614 39.4911C87.5876 39.3281 87.7138 39.1651 87.8386 39C90.0354 36.1567 90.2693 32.7943 88.5465 30.0457C88.0671 29.2764 87.5712 28.9081 86.997 28.9081C86.5844 28.9081 86.1267 29.0977 85.5975 29.4769C83.0044 31.3225 81.8839 34.6344 82.7814 38.0302C82.9123 38.5212 83.0078 39.0218 83.1033 39.5231C83.1538 39.7898 83.2049 40.0565 83.2609 40.3218L82.8039 40.5946C82.4663 40.2911 82.1485 39.9262 81.8313 39.5613C81.0572 38.6726 80.2838 37.7846 79.2246 37.7846C78.6947 37.7846 78.0979 38.0022 77.3955 38.5485C76.1412 39.5299 75.4885 41.9102 76.1467 43.4325C76.766 44.8599 77.5516 45.323 78.4103 45.323C79.2042 45.323 80.0526 44.9322 80.8813 44.5517C81.2284 44.3921 81.5722 44.2339 81.9064 44.107L82.1069 44.6758C81.5994 47.9263 77.9533 50.664 74.3236 50.664C74.089 50.664 73.8551 50.6531 73.6211 50.6306C69.6067 50.2234 65.6592 46.505 65.7485 43.2211C65.7704 42.5629 65.9825 42.2396 66.3562 42.2396C66.5567 42.2396 66.7968 42.329 67.0696 42.507C67.8389 43.0035 68.5749 43.5552 69.2835 44.135C69.6013 44.3969 69.8741 44.5196 70.1305 44.5196C70.4763 44.5196 70.7941 44.3082 71.1508 43.9119C73.9219 40.879 73.9055 40.7842 71.5635 37.5227C71.0895 36.8646 70.6714 36.5188 70.1865 36.5188C69.8298 36.5188 69.4397 36.703 68.9656 37.0876C68.3457 37.5848 67.6452 37.977 66.9421 38.3705C66.6202 38.5506 66.2976 38.7313 65.9825 38.9223L65.4921 38.3698C65.6967 38.0281 65.9 37.6851 66.1025 37.342C66.5786 36.5365 67.056 35.7304 67.5607 34.9413C68.0067 34.2552 68.0006 33.7982 67.2926 33.224C65.5699 31.8128 64.6778 31.122 63.7523 31.122C62.8602 31.122 61.9347 31.7576 60.2119 33.0064C59.2304 33.7089 59.1465 34.2606 59.8218 35.2141C60.3189 35.9214 60.7377 36.6825 61.1572 37.445C61.3393 37.7765 61.5227 38.1093 61.7116 38.4367L61.2601 38.8547C61.0876 38.7743 60.9116 38.6999 60.735 38.6256C60.3735 38.4728 60.0114 38.3193 59.6819 38.1134L59.6615 38.1004C58.2804 37.2336 57.5158 36.7527 56.9109 36.7527C56.1586 36.7527 55.6457 37.5002 54.5026 39.1671L54.2237 39.5913C54.2189 39.7714 54.1991 39.963 54.1794 40.1574C54.1268 40.6717 54.0737 41.1982 54.296 41.5426C55.4834 43.4161 56.0242 44.2468 56.8331 44.2468C57.4886 44.2468 58.3158 43.7094 59.8006 42.7457L59.8156 42.7355L61.1933 42.3958L61.3604 43.6944C60.8864 47.0956 57.6802 50.0454 53.9557 50.5637C53.5826 50.6142 53.2089 50.6415 52.8406 50.6415C49.6576 50.6415 46.6908 48.7741 45.442 45.8414C45.3138 45.5386 45.2565 45.2057 45.176 44.7433C45.1303 44.4821 45.0778 44.1793 45.0014 43.8171C45.3969 44.032 45.7175 44.2086 45.9937 44.36C46.3982 44.5831 46.7085 44.7536 47.0202 44.9159C47.5385 45.1832 48.0623 45.3115 48.5588 45.3115C49.8744 45.3115 50.9957 44.4248 51.1573 42.9196C51.2739 41.8379 51.0625 40.6055 50.6049 39.6186C50.0586 38.4203 49.1385 37.8235 48.1571 37.8235C47.3434 37.8235 46.4902 38.2361 45.7768 39.0668C45.472 39.4256 45.1405 39.7632 44.8097 40.0994L44.8084 40.1015C44.6617 40.2508 44.5151 40.3995 44.3719 40.5502L43.8924 40.2768C43.9593 39.9944 44.0254 39.7114 44.0916 39.429C44.2239 38.865 44.3569 38.2989 44.4939 37.7342C45.2694 34.4673 44.3773 31.7351 41.7679 29.6222C41.1268 29.1032 40.6194 28.8413 40.1788 28.8413ZM62.6515 206.936C63.0198 206.332 63.3847 205.738 63.7448 205.15C64.793 203.442 65.8086 201.787 66.7832 200.112C67.2845 199.259 67.0451 198.712 65.9797 198.366C62.5901 197.262 61.0733 194.926 61.7819 192.155C62.4394 189.59 64.9656 187.828 67.7755 187.828C68.0933 187.828 68.4166 187.851 68.7454 187.895C72.6206 188.464 75.1796 191.854 74.0426 195.578C73.3456 197.848 71.9959 200.033 70.5131 201.907C68.5278 204.411 65.6401 205.765 62.6515 206.936ZM16.8072 206.769C8.03705 202.86 4.74697 194.519 9.17399 186.591C11.4826 182.46 15.0455 179.655 19.227 177.569C25.6837 174.341 32.5749 173.153 39.6502 173.153C40.2136 173.153 40.7824 173.16 41.3505 173.176C44.2293 173.252 47.102 173.602 49.9754 173.953C51.1307 174.094 52.2881 174.235 53.4442 174.358C53.8581 174.404 54.2673 174.506 54.7857 174.634C55.0776 174.706 55.405 174.787 55.7862 174.871C55.5107 175.008 55.2863 175.123 55.094 175.221L55.0912 175.223C54.7304 175.407 54.4822 175.534 54.2251 175.646C49.2067 177.826 44.9359 180.993 41.5012 185.258C41.0109 185.872 40.5368 186.145 39.8569 186.145C39.6891 186.145 39.5111 186.128 39.316 186.095C37.7214 185.838 36.1487 185.699 34.5876 185.699C30.5841 185.699 26.7204 186.619 23.0961 188.787C18.0894 191.781 14.9562 195.964 15.6143 202.135C15.7323 203.229 16.0638 204.299 16.3864 205.341C16.5357 205.823 16.6838 206.299 16.8072 206.769ZM99.4814 203.54C99.0688 203.54 98.7005 203.317 98.2879 202.777C94.6138 198.021 92.462 192.735 92.445 186.657C92.4402 184.868 92.4354 183.078 92.4313 181.289C92.4157 175.021 92.4007 168.754 92.3611 162.488C92.3447 161.01 92.2554 159.51 92.0215 158.055C91.3913 154.158 89.6351 150.93 86.0387 148.912L86.3177 148.354C87.649 148.869 88.9939 149.358 90.3382 149.847C93.3787 150.954 96.4205 152.061 99.3198 153.461C104.906 156.154 107.984 160.72 107.9 167.149C107.88 168.727 107.896 170.307 107.911 171.886C107.929 173.677 107.947 175.468 107.912 177.257C107.784 183.652 109.668 189.407 113.214 194.67L113.766 195.534L113.9 196.025L112.534 196.856C111.165 197.58 109.795 198.298 108.425 199.016L108.415 199.022L108.41 199.025C105.789 200.399 103.169 201.772 100.569 203.184C100.15 203.412 99.7992 203.54 99.4814 203.54ZM69.7172 172.033C62.7476 170.511 55.8783 169.011 48.8644 167.483C49.8206 166.988 50.7692 166.485 51.7166 165.982C53.9454 164.799 56.1661 163.622 58.4434 162.566C60.1553 161.774 60.6845 160.753 60.6627 158.892C60.5965 154.169 60.6006 149.446 60.6047 144.722C60.6074 141.442 60.6102 138.162 60.5897 134.883C60.5788 133.578 60.93 132.792 62.1734 132.207C63.9425 131.38 65.6715 130.461 67.4959 129.493L67.5 129.491C68.2216 129.108 68.9575 128.717 69.7172 128.321V172.033ZM76.7141 146.291C76.6977 146.006 76.6814 145.761 76.6671 145.541C76.637 145.089 76.6139 144.749 76.6139 144.412C76.6105 142.414 76.6118 140.416 76.6139 138.418C76.6173 134.423 76.6213 130.427 76.5804 126.436C76.5695 125.12 77.049 124.496 78.2528 124.078C79.329 123.704 80.3104 123.52 81.1862 123.52C84.1461 123.52 85.9085 125.605 85.9473 129.464C85.9651 131.02 85.9596 132.575 85.9549 134.13V134.133V134.135V134.138V134.141C85.948 136.008 85.9419 137.874 85.9753 139.74C85.9978 140.905 85.6575 141.613 84.5587 142.148C82.7828 143.024 81.0368 143.966 79.1837 144.965L79.1817 144.967C78.3824 145.398 77.5639 145.839 76.7141 146.291ZM92.6707 137.052C92.6121 136.581 92.5623 136.186 92.5589 135.791C92.5528 135.184 92.5418 134.577 92.5309 133.97C92.4996 132.235 92.4675 130.498 92.5589 128.772C92.7649 124.674 91.3769 121.507 87.2398 119.439C88.0357 119.008 88.8153 118.57 89.5846 118.139C92.8794 116.29 96.0052 114.537 99.5892 113.768C100.303 113.612 100.983 113.54 101.63 113.54C105.232 113.54 107.752 115.859 108.064 119.896C108.244 122.265 108.156 124.659 108.069 127.049C108.048 127.63 108.026 128.21 108.009 128.789L107.261 130.166C103.321 132.291 99.3559 134.36 95.2215 136.518C94.4078 136.943 93.5874 137.372 92.7594 137.805C92.7301 137.53 92.6994 137.282 92.6707 137.052ZM37.4029 131.214C38.5569 131.214 38.9587 130.656 38.9361 129.274C38.8973 126.216 38.9 123.156 38.9027 120.097C38.9055 117.037 38.9082 113.978 38.8693 110.919C38.8584 109.576 39.3099 108.884 40.4864 108.282C43.6591 106.655 46.8033 104.971 50.0511 103.232L50.0545 103.23C51.3251 102.549 52.6121 101.86 53.9229 101.162C53.942 101.484 53.9639 101.767 53.9843 102.026C54.0177 102.46 54.0457 102.826 54.0457 103.191C54.0471 107.595 54.047 111.999 54.047 116.403C54.047 129.612 54.047 142.822 54.0852 156.031C54.0907 157.453 53.5942 158.172 52.3679 158.785C49.2634 160.34 46.1867 161.944 42.9724 163.621L42.9676 163.623C41.6397 164.315 40.2886 165.02 38.9027 165.738V163.497C38.9027 161.513 38.9 159.529 38.8973 157.544V157.541V157.538V157.536C38.8898 151.86 38.8823 146.183 38.9361 140.509C38.9532 139.036 38.5235 138.569 37.1465 138.569C37.096 138.569 37.0463 138.569 36.9958 138.574C35.2171 138.607 33.4384 138.618 31.6603 138.618C30.4927 138.618 29.3237 138.614 28.1547 138.61C26.9837 138.606 25.812 138.602 24.6402 138.602H22.5942C22.7783 136.433 23.843 135.022 25.209 133.779C27.6582 131.551 30.7287 131.374 33.7903 131.198L33.8905 131.192C34.4587 131.158 35.0329 131.136 35.6017 131.136C36.0648 131.136 36.5218 131.153 36.9794 131.192C37.1295 131.209 37.2693 131.214 37.4029 131.214ZM60.8018 126.101C60.7745 125.823 60.7452 125.577 60.7179 125.351C60.6681 124.93 60.6265 124.582 60.6231 124.234C60.6218 121.867 60.6224 119.501 60.6238 117.133V117.131C60.6265 111.211 60.6293 105.29 60.5897 99.3721C60.5843 98.0339 61.0467 97.298 62.2402 96.7353C63.9985 95.8999 65.726 94.9928 67.5382 94.0407L67.5409 94.04L67.5443 94.0379L67.5539 94.0325L67.5586 94.0305L67.5661 94.0264L67.5696 94.0243L67.577 94.0202L67.5811 94.0182C68.2829 93.6492 68.9991 93.2741 69.7336 92.8935C69.75 93.1499 69.7663 93.3778 69.7813 93.5865C69.8175 94.085 69.8448 94.471 69.8448 94.8564C69.8468 97.2223 69.8455 99.5889 69.8441 101.956V101.958C69.8414 107.878 69.8386 113.8 69.8789 119.718C69.8898 120.994 69.4601 121.675 68.3341 122.215C66.6065 123.048 64.9069 123.943 63.1166 124.887C62.3643 125.284 61.595 125.689 60.8018 126.101ZM92.876 95.8051V95.7867C92.7683 90.885 92.668 86.3113 87.2719 83.7994C87.7213 83.5559 88.1373 83.3159 88.5336 83.0874C89.3513 82.6154 90.0872 82.1912 90.8681 81.8761C91.4854 81.6244 92.1019 81.3632 92.7185 81.102C94.8355 80.2045 96.9593 79.3042 99.1704 78.7818C99.7945 78.631 100.397 78.5642 100.971 78.5642C104.462 78.5642 106.892 81.1961 107.238 85.0652C107.472 87.736 106.792 89.3361 104.166 90.4621C101.572 91.5799 99.077 92.9324 96.4689 94.3455C95.3034 94.9771 94.116 95.6209 92.8863 96.2614C92.8829 96.1086 92.8794 95.9572 92.876 95.8051ZM100.644 72.6149C96.8966 72.6149 93.4176 73.7471 90.0722 75.4924C84.213 78.5492 78.3544 81.6081 72.4958 84.667L72.489 84.671L72.4821 84.6744C59.5926 91.4047 46.703 98.1356 33.8039 104.842C32.6492 105.439 32.3096 106.163 32.3205 107.39C32.3471 109.968 32.3444 112.545 32.3417 115.121C32.3389 117.921 32.3355 120.721 32.371 123.52C32.3874 124.947 31.9468 125.371 30.4975 125.672C27.7878 126.224 24.9328 126.815 22.5744 128.159C17.0882 131.27 14.9582 136.55 14.3615 142.605C14.2223 143.999 14.5285 144.523 15.9506 144.523H16.0454C17.406 144.501 18.7605 144.495 20.1212 144.495C20.9628 144.495 21.7996 144.495 22.6358 144.501C23.0736 144.501 23.5122 144.502 23.9514 144.504C24.3906 144.505 24.8298 144.506 25.2677 144.506C26.94 144.506 28.613 144.495 30.2853 144.457H30.447C32.0136 144.457 32.3983 145.058 32.3764 146.614C32.298 152.959 32.2762 159.31 32.3873 165.66C32.4208 167.377 31.7797 167.801 30.2294 168.136C26.5554 168.933 22.8417 169.741 19.3239 171.03C12.8562 173.399 7.29706 177.129 3.5507 183.117C-1.35032 190.94 -0.407765 199.782 6.0094 206.395C9.22105 209.702 13.0793 211.954 17.4115 213.476C24.3695 215.924 31.4618 217 38.649 217C41.7652 217 44.8936 216.799 48.0378 216.414C55.6935 215.489 63.0975 213.549 69.8386 209.64C74.2377 207.092 77.8395 203.73 79.8746 198.952C82.2944 193.27 80.2484 187.031 74.9122 183.937C72.6315 182.61 70.2731 181.958 67.8928 181.958C65.9579 181.958 64.0066 182.387 62.0608 183.24C58.425 184.834 55.8271 187.516 55.1806 191.614C54.5784 195.467 56.0727 198.551 59.167 201.059C59.0265 201.289 58.9038 201.531 58.7824 201.77C58.5266 202.272 58.2776 202.76 57.8957 203.089C57.3419 203.565 56.797 204.063 56.2507 204.562L56.2486 204.563C54.6336 206.038 53.0097 207.523 51.1266 208.48C47.1682 210.487 43.031 211.396 38.8386 211.396C35.9891 211.396 33.1123 210.978 30.2465 210.204C27.9549 209.579 25.7192 207.956 23.9794 206.256C21.0746 203.407 21.1135 198.98 23.9405 196.041C25.3625 194.57 27.219 193.304 29.1143 192.551C30.9933 191.804 32.9002 191.481 34.8072 191.481C37.1711 191.481 39.5411 191.977 41.8716 192.785C42.2003 192.902 42.4793 192.958 42.7248 192.958C43.2595 192.958 43.6503 192.679 44.1243 192.083C44.4087 191.728 44.6924 191.372 44.9761 191.016L44.9782 191.013L44.9802 191.011L44.9823 191.008C46.6546 188.907 48.3413 186.787 50.313 185.001C57.1482 178.807 65.5732 176.761 74.5166 176.415C76.133 176.349 76.6684 175.919 76.6459 174.252C76.5995 170.838 76.6029 167.424 76.607 164.009C76.6104 160.906 76.6139 157.799 76.5791 154.693C76.5573 153.182 77.1868 152.686 78.5419 152.547C78.7479 152.53 78.9491 152.519 79.1496 152.519C81.6533 152.519 84.0336 154.08 84.8309 156.823C85.4836 159.092 85.7789 161.534 85.8239 163.909C85.871 166.566 85.8253 169.226 85.7789 171.885C85.7332 174.545 85.6868 177.205 85.7345 179.861C85.7414 180.238 85.7482 180.614 85.755 180.991V180.994C85.826 185.073 85.8982 189.186 86.5816 193.181C87.7302 199.917 91.8059 205.258 96.027 210.438C96.5399 211.062 96.975 211.346 97.4824 211.346C97.8391 211.346 98.2292 211.212 98.7141 210.956C106.335 206.908 113.98 202.901 121.621 198.894L121.625 198.892C123.856 197.723 126.086 196.554 128.315 195.383C128.647 195.211 128.968 195.019 129.325 194.806C129.499 194.701 129.684 194.59 129.882 194.475C128.778 192.729 127.757 191.107 126.709 189.44C126.114 189.749 125.538 190.044 124.975 190.331L124.965 190.337L124.962 190.338C123.695 190.986 122.5 191.597 121.329 192.255C120.949 192.473 120.626 192.601 120.325 192.601C119.935 192.601 119.583 192.378 119.204 191.86C116.74 188.453 114.956 184.762 114.761 180.519C114.625 177.613 114.578 174.704 114.531 171.792V171.789C114.498 169.786 114.465 167.781 114.404 165.777C114.204 159.204 111.493 153.885 105.89 150.394C103.677 149.017 101.285 147.927 98.8942 146.839C97.9551 146.411 97.0159 145.983 96.0884 145.538C95.5646 145.289 95.0087 145.102 94.3478 144.88C94.0027 144.764 93.6297 144.639 93.217 144.49C93.5301 144.306 93.7913 144.151 94.0198 144.015C94.4167 143.777 94.7155 143.599 95.023 143.436C96.574 142.621 98.1256 141.807 99.6772 140.994L99.6956 140.984C104.164 138.642 108.631 136.301 113.071 133.907C113.696 133.573 114.41 132.72 114.443 132.068C114.633 128.075 114.778 124.066 114.677 120.069C114.51 112.937 110.283 108.438 103.197 107.685C102.606 107.618 102.021 107.59 101.441 107.59C98.1624 107.59 95.0735 108.561 92.1183 110.044C89.3397 111.438 86.5721 112.85 83.8037 114.261L83.8017 114.263L83.7983 114.264C82.0857 115.137 80.3739 116.011 78.6592 116.88C78.2889 117.068 77.9056 117.227 77.4528 117.415C77.1963 117.521 76.9173 117.637 76.607 117.772V115.408V91.5554C76.607 89.0237 76.6964 88.9125 79.1108 88.3212C79.919 88.1262 80.6664 88.0259 81.3464 88.0259C84.3405 88.0259 86.0469 89.9329 86.2086 93.624C86.2884 95.4613 86.272 97.3042 86.2556 99.147C86.2474 99.9934 86.2399 100.84 86.242 101.686V106.269C86.4664 106.191 86.6539 106.132 86.8156 106.082C87.0802 106 87.2773 105.939 87.4573 105.845L89.764 104.64C97.404 100.649 105.045 96.6562 112.659 92.6091C113.166 92.3356 113.635 91.4994 113.668 90.8972C113.785 88.7338 113.791 86.5541 113.696 84.3798C113.417 77.9845 108.979 73.3904 102.6 72.7152C101.937 72.6483 101.29 72.6149 100.644 72.6149ZM7.37344 99.3495C7.90338 103.877 11.5167 107.067 15.5311 107.067C16.2166 107.067 16.9081 106.977 17.599 106.782C19.8797 106.147 21.6414 104.212 21.8364 102.132C22.0376 99.9463 21.0337 98.1396 19.1159 97.2475C18.3799 96.9024 17.6215 96.7292 16.8747 96.7292C15.4582 96.7292 14.0812 97.3423 12.9217 98.5973C12.5371 99.0099 12.1858 99.205 11.8564 99.205C11.5386 99.205 11.2378 99.0317 10.9363 98.6975C10.1575 97.8416 9.42292 96.9461 8.57722 95.9142C8.1946 95.4477 7.7888 94.9526 7.34617 94.4213C7.34617 95.0248 7.3298 95.597 7.31479 96.1474C7.28274 97.2837 7.25341 98.3245 7.37344 99.3495ZM36.7932 88.3301C35.8309 86.7035 34.8938 85.1205 33.6982 83.766C32.4801 82.3883 30.9974 81.2432 29.5651 80.1363C28.952 79.6623 28.347 79.1951 27.7769 78.7204C29.1873 78.1625 30.9605 77.8951 32.8839 77.8951C38.7383 77.8951 46.0483 80.3593 49.3043 84.6417C47.4628 85.6088 45.6507 86.5596 43.8665 87.496L43.859 87.4994L43.8392 87.5103L43.7969 87.5321L43.7492 87.5574L43.7144 87.5758L43.7103 87.5778L43.6298 87.6201C41.7631 88.5995 39.9264 89.5632 38.1198 90.5126C37.656 89.7876 37.2222 89.0544 36.7932 88.3301ZM32.4712 72.2364C24.7767 72.2364 17.4231 74.9733 10.5033 80.0865C4.15839 84.7808 0.662331 91.3324 1.18681 99.4948C1.54896 105.177 4.43734 109.392 9.63913 111.638C11.6797 112.525 13.7149 112.976 15.7003 112.976C18.783 112.976 21.7437 111.884 24.4534 109.626C27.7209 106.894 29.0311 103.18 28.1499 98.9874C27.3247 95.0514 24.6095 92.5198 20.8018 91.6331C20.0877 91.466 19.3409 91.3992 18.577 91.3992C17.2028 91.3992 15.778 91.6099 14.4256 91.8105L14.4174 91.8118C14.1725 91.8507 13.9604 91.8677 13.7708 91.8677C13.0513 91.8677 12.6503 91.5888 12.299 90.797C11.128 88.2046 12.0426 85.6511 14.802 83.9556C16.1906 83.1085 17.8132 82.6959 19.4855 82.6959C22.2347 82.6959 25.117 83.8056 27.2858 85.8905C30.6032 89.0742 31.9359 93.1275 32.4153 97.5606C32.4685 98.0346 32.5463 98.5066 32.6349 99.0426C32.6854 99.3502 32.74 99.679 32.7945 100.041C36.7284 97.9766 40.6241 95.9306 44.5055 93.8927C51.4288 90.2575 58.3056 86.6462 65.2725 82.9912C64.9908 82.5486 64.7276 82.1216 64.4738 81.709L64.4725 81.707C63.8464 80.6901 63.2728 79.7591 62.6071 78.8991L60.9846 78.5588C59.5183 79.1889 58.1078 79.9583 56.7308 80.7781C56.368 80.9949 56.0556 81.0897 55.7603 81.0897C55.2863 81.0897 54.8573 80.8394 54.3274 80.4432C53.7722 80.0292 53.2211 79.5988 52.668 79.1678C50.7734 77.6892 48.861 76.1969 46.7112 75.2857C41.8552 73.2226 37.0988 72.2364 32.4712 72.2364ZM57.8193 23.0038C57.8412 19.8815 60.4901 17.2496 63.6009 17.2496H63.6513C66.7845 17.2776 69.4383 19.9763 69.3994 23.0986C69.366 26.2489 66.7511 28.8133 63.5845 28.8133H63.5565C60.3783 28.7969 57.7914 26.1759 57.8193 23.0038ZM109.683 26.8177C107.118 26.8177 105.1 28.9136 105.139 31.54C105.178 34.0601 107.19 36.0284 109.7 36.0284H109.766C112.248 35.995 114.35 33.876 114.333 31.4118C114.316 28.9361 112.214 26.8395 109.727 26.8177H109.683ZM32.4972 15.7894C32.4133 13.2686 34.5767 11.05 37.1192 11.0555C39.6448 11.0609 41.6574 13.079 41.6854 15.6271C41.7079 18.1812 39.7232 20.2273 37.197 20.2553H37.1417C34.6551 20.2553 32.5749 18.259 32.4972 15.7894ZM50.1009 16.8595C47.6081 16.8595 45.4672 18.9894 45.4842 21.4931C45.5006 23.9573 47.6197 26.0538 50.0947 26.0593H50.1118C52.6209 26.0593 54.6725 24.035 54.7004 21.5204C54.7284 18.9894 52.7321 16.9209 50.2066 16.8595H50.1009ZM90.9091 11.0555H90.9207C93.4571 11.0555 95.5925 13.2523 95.5148 15.7948C95.448 18.2815 93.4019 20.2553 90.9036 20.2553H90.8313C88.3222 20.2157 86.287 18.1417 86.3041 15.6332C86.3204 13.1575 88.434 11.0609 90.9091 11.0555ZM18.3083 26.8232C15.7937 26.8232 13.792 28.8467 13.7865 31.4398C13.7804 33.9987 15.7541 36.0059 18.2913 36.0284H18.3302C20.8618 36.0284 22.852 34.0656 22.8799 31.523C22.9133 28.9361 21.0064 26.9064 18.4584 26.8232H18.3083ZM73.3149 21.3813C73.3654 18.911 75.4674 16.8595 77.937 16.8595H77.9704C80.4966 16.8765 82.5147 18.9226 82.5147 21.459C82.5147 24.0296 80.4687 26.0647 77.9261 26.0647C77.8872 26.0647 77.8483 26.0648 77.8088 26.0593C75.3337 25.9979 73.2651 23.8454 73.3149 21.3813ZM23.9105 15.0698C21.312 15.0698 19.3661 16.9706 19.3382 19.5412C19.3048 22.1397 21.3508 24.2247 23.905 24.2247H23.9603C26.436 24.1967 28.5271 22.0838 28.5271 19.6026C28.5271 17.0716 26.5083 15.0808 23.9384 15.0698H23.9105ZM99.5865 19.608C99.581 16.9932 101.51 15.0644 104.142 15.0698C106.767 15.0698 108.697 17.0102 108.686 19.6251C108.674 22.1895 106.673 24.2247 104.175 24.2247H104.131C101.571 24.2021 99.5919 22.1895 99.5865 19.608Z" stroke="black" stroke-width="1" mask="url(#path-1-inside-1)"/>
</svg>
