<svg width="200" height="600" viewBox="0 0 200 600" fill="none" xmlns="http://www.w3.org/2000/svg">
<g opacity="0.8">
<path d="M101.247 144.518C100.98 142.174 102.521 139.03 104.674 137.537C109.519 134.176 116.958 129.124 121.974 126.228C126.68 123.511 132.95 120.556 137.31 118.587C139.555 117.574 141.085 119.15 140.625 121.996L138.229 136.82C137.896 138.881 136.592 141.048 134.971 142.222C131.09 145.031 124.634 149.585 119.921 152.306C115.407 154.912 109.617 157.498 105.941 159.057C104.227 159.784 102.894 158.971 102.679 157.087L101.247 144.518Z" stroke="#151E29" stroke-width="1.97456"/>
<path d="M190.315 93.088C190.582 90.435 189.041 89.0717 186.888 90.0642C182.043 92.2975 174.604 95.8365 169.588 98.7329C164.882 101.45 158.612 105.736 154.253 108.802C152.008 110.38 150.477 113.725 150.937 116.039L153.332 128.097C153.665 129.773 154.968 130.435 156.59 129.736C160.471 128.064 166.927 125.162 171.639 122.441C176.154 119.835 181.944 115.733 185.62 113.048C187.334 111.795 188.667 109.443 188.882 107.311L190.315 93.088Z" stroke="#151E29" stroke-width="1.97456"/>
<path d="M145.781 117.249C143.318 118.671 141.95 118.822 140.856 119.134L140.855 123.932C142.087 122.901 143.729 121.313 145.781 120.128C148.244 118.706 150.022 118.319 151.117 118.007L151.117 113.209C149.886 114.24 147.833 116.065 145.781 117.249Z" fill="#151E29"/>
<path d="M103.128 147.556L103.128 138.453C90.5139 131.776 71.9872 121.838 58.1908 114.782C52.1969 111.717 46.3653 112.506 44.0003 113.416L45.5771 115.237C47.4165 114.63 53.776 115.419 58.1909 117.968C62.6057 120.517 70.8049 127.224 74.7468 131.169L103.128 147.556Z" fill="#151E29"/>
</g>
</svg>
