<svg width="176" height="192" viewBox="0 0 176 192" fill="none" xmlns="http://www.w3.org/2000/svg">
<path d="M124.87 130.234L122.474 145.058C122.141 147.118 120.837 149.286 119.216 150.46C115.335 153.269 108.879 157.822 104.166 160.543C99.6522 163.15 93.8619 165.735 90.186 167.294C88.4715 168.021 87.139 167.209 86.9244 165.325L85.4922 152.755C85.2251 150.411 86.7664 147.268 88.9194 145.774C93.7639 142.413 101.203 137.362 106.219 134.465C110.925 131.748 117.195 128.794 121.555 126.825C123.8 125.811 125.33 127.388 124.87 130.234Z" stroke="#151E29" stroke-width="1.97456"/>
<path d="M135.182 124.277L137.577 136.335C137.91 138.011 139.213 138.673 140.835 137.974C144.716 136.302 151.172 133.4 155.884 130.679C160.399 128.072 166.189 123.971 169.865 121.285C171.579 120.032 172.912 117.681 173.127 115.549L174.56 101.326C174.827 98.6726 173.286 97.3093 171.133 98.3018C166.288 100.535 158.849 104.074 153.833 106.97C149.127 109.687 142.857 113.974 138.498 117.039C136.253 118.618 134.722 121.962 135.182 124.277Z" stroke="#151E29" stroke-width="1.97456"/>
<path d="M130.026 125.487C127.563 126.909 126.195 127.059 125.101 127.371L125.1 132.169C126.332 131.138 127.974 129.551 130.026 128.366C132.489 126.944 134.267 126.556 135.362 126.244L135.362 121.446C134.131 122.477 132.078 124.302 130.026 125.487Z" fill="#151E29"/>
<path d="M87.3731 155.794L87.3728 146.69C74.7589 140.014 56.2322 130.075 42.4357 123.02C36.4419 119.954 30.6103 120.743 28.2453 121.654L29.8221 123.475C31.6615 122.868 38.021 123.657 42.4359 126.206C46.8507 128.755 55.0499 135.461 58.9918 139.406L87.3731 155.794Z" fill="#151E29"/>
</svg>
