<svg width="200" height="600" viewBox="0 0 200 600" fill="none" xmlns="http://www.w3.org/2000/svg">
<g opacity="0.8">
<path d="M180.741 92.0099C180.733 94.3316 180.528 98.1302 179.543 102.382C178.558 106.636 176.827 111.203 173.842 115.212C164.667 127.53 151.948 134.282 144.645 130.956C142.865 130.145 141.765 127.939 141.11 125.312C140.461 122.707 140.287 119.837 140.254 117.941C140.241 117.205 140.612 116.355 141.202 115.754C143.888 113.017 149.965 107.269 159.367 100.826C168.04 94.8828 175.95 92.056 179.533 90.9773C180.267 90.7562 180.743 91.1833 180.741 92.0099Z" stroke="black" stroke-width="2.76071"/>
<path d="M94.3488 141.892C94.3562 144.205 94.5614 147.767 95.5457 150.882C96.5306 153.999 98.2614 156.567 101.247 157.128C110.421 158.851 123.14 150.915 130.443 139.155C132.223 136.29 133.324 132.813 133.979 129.43C134.628 126.075 134.802 123.003 134.836 121.07C134.849 120.318 134.477 119.897 133.887 119.977C131.201 120.342 125.124 121.611 115.723 126.026C107.05 130.098 99.1402 136.405 95.5571 139.464C94.8225 140.091 94.3462 141.068 94.3488 141.892Z" stroke="black" stroke-width="2.76071"/>
<path d="M134.795 124.466C134.795 123.439 135.329 121.078 137.462 119.846C139.596 118.614 140.13 120.359 140.13 121.386" stroke="black" stroke-width="1.84047"/>
</g>
</svg>
