<svg width="680" height="680" viewBox="0 0 680 680" fill="none" xmlns="http://www.w3.org/2000/svg">
<path fill-rule="evenodd" clip-rule="evenodd" d="M361.465 236.002C361.63 236.04 361.794 236.079 361.958 236.119C362.507 236.254 362.843 236.809 362.708 237.359C362.572 237.908 362.017 238.244 361.468 238.109C361.314 238.071 361.16 238.034 361.004 237.998L361.465 236.002ZM363.56 237.608C363.741 237.072 364.323 236.785 364.859 236.967C365.18 237.076 365.496 237.188 365.809 237.304C366.339 237.501 366.61 238.09 366.413 238.621C366.216 239.152 365.627 239.422 365.096 239.226C364.801 239.116 364.503 239.01 364.201 238.908C363.665 238.726 363.378 238.144 363.56 237.608ZM367.232 238.964C367.472 238.451 368.082 238.23 368.594 238.47C368.901 238.613 369.203 238.759 369.5 238.908C370.006 239.161 370.211 239.777 369.958 240.283C369.704 240.789 369.089 240.994 368.583 240.741C368.302 240.6 368.016 240.462 367.727 240.326C367.214 240.087 366.992 239.477 367.232 238.964ZM370.734 240.711C371.026 240.226 371.656 240.071 372.14 240.363C372.431 240.539 372.716 240.716 372.995 240.895C373.472 241.2 373.611 241.834 373.306 242.31C373 242.787 372.367 242.926 371.89 242.621C371.626 242.452 371.356 242.284 371.081 242.118C370.597 241.825 370.441 241.195 370.734 240.711ZM374.034 242.818C374.376 242.367 375.019 242.278 375.47 242.62C375.742 242.827 376.007 243.033 376.264 243.239C376.705 243.593 376.777 244.238 376.423 244.679C376.069 245.121 375.424 245.192 374.982 244.838C374.74 244.644 374.49 244.449 374.232 244.253C373.781 243.912 373.692 243.269 374.034 242.818ZM315.508 244.244C315.692 244.217 315.873 244.195 316.048 244.178L316.252 246.217C316.108 246.231 315.957 246.25 315.801 246.272C315.241 246.353 314.721 245.964 314.641 245.404C314.56 244.844 314.948 244.325 315.508 244.244ZM313.687 245.651C313.862 246.189 313.568 246.768 313.03 246.943C312.73 247.04 312.426 247.147 312.118 247.262C311.588 247.46 310.998 247.192 310.799 246.662C310.601 246.132 310.869 245.541 311.399 245.343C311.735 245.217 312.068 245.101 312.396 244.994C312.934 244.819 313.512 245.113 313.687 245.651ZM377.094 245.263C377.485 244.854 378.134 244.84 378.543 245.231C378.796 245.473 379.036 245.711 379.263 245.944C379.658 246.349 379.65 246.997 379.245 247.393C378.84 247.788 378.191 247.78 377.796 247.375C377.586 247.16 377.362 246.938 377.126 246.712C376.717 246.32 376.703 245.672 377.094 245.263ZM309.902 247.065C310.167 247.564 309.977 248.185 309.477 248.45C309.194 248.6 308.914 248.757 308.638 248.92C308.151 249.209 307.522 249.047 307.234 248.561C306.946 248.074 307.107 247.445 307.594 247.157C307.898 246.977 308.206 246.804 308.516 246.64C309.016 246.375 309.636 246.565 309.902 247.065ZM379.843 248.056C380.305 247.729 380.945 247.839 381.271 248.302C381.382 248.458 381.482 248.609 381.572 248.753C381.595 248.79 381.616 248.829 381.635 248.869C381.706 249.024 381.776 249.18 381.846 249.335C382.076 249.852 381.845 250.458 381.328 250.689C380.811 250.919 380.205 250.688 379.975 250.171C379.917 250.042 379.859 249.914 379.8 249.785C379.741 249.692 379.673 249.592 379.597 249.484C379.271 249.021 379.381 248.382 379.843 248.056ZM306.425 249.12C306.79 249.552 306.735 250.199 306.303 250.564C306.061 250.768 305.829 250.978 305.608 251.194C305.202 251.588 304.553 251.579 304.159 251.173C303.764 250.768 303.773 250.119 304.179 249.724C304.436 249.474 304.704 249.232 304.981 248.999C305.413 248.633 306.059 248.688 306.425 249.12ZM381.68 251.542C382.209 251.342 382.8 251.609 383 252.139C383.119 252.455 383.234 252.77 383.346 253.085C383.534 253.618 383.255 254.204 382.721 254.393C382.188 254.581 381.602 254.302 381.414 253.768C381.307 253.467 381.197 253.165 381.082 252.862C380.883 252.332 381.15 251.741 381.68 251.542ZM303.528 251.937C304.019 252.218 304.189 252.844 303.908 253.335C303.759 253.595 303.628 253.859 303.515 254.127C303.295 254.648 302.694 254.893 302.173 254.673C301.651 254.454 301.406 253.853 301.626 253.331C301.773 252.983 301.942 252.644 302.13 252.316C302.411 251.825 303.037 251.655 303.528 251.937ZM383 255.266C383.545 255.112 384.111 255.427 384.266 255.972C384.359 256.3 384.448 256.627 384.533 256.954C384.676 257.501 384.348 258.061 383.8 258.204C383.252 258.346 382.693 258.018 382.55 257.47C382.469 257.159 382.384 256.846 382.295 256.532C382.14 255.987 382.456 255.421 383 255.266ZM301.975 255.654C302.541 255.639 303.012 256.085 303.027 256.651C303.034 256.931 303.062 257.217 303.111 257.51C303.205 258.069 302.828 258.597 302.27 258.691C301.712 258.784 301.184 258.408 301.09 257.85C301.025 257.463 300.988 257.082 300.978 256.705C300.963 256.139 301.41 255.669 301.975 255.654ZM384.002 259.097C384.558 258.991 385.095 259.356 385.201 259.911C385.265 260.245 385.324 260.578 385.38 260.91C385.474 261.468 385.097 261.996 384.539 262.09C383.981 262.184 383.453 261.807 383.359 261.249C383.306 260.933 383.249 260.615 383.188 260.296C383.082 259.74 383.446 259.203 384.002 259.097ZM302.628 259.615C303.124 259.343 303.747 259.525 304.019 260.021C304.162 260.281 304.322 260.545 304.5 260.815C304.812 261.287 304.683 261.923 304.21 262.235C303.738 262.547 303.103 262.418 302.791 261.945C302.583 261.631 302.393 261.318 302.222 261.006C301.95 260.51 302.132 259.887 302.628 259.615ZM304.836 262.983C305.244 262.591 305.893 262.605 306.285 263.013C306.503 263.241 306.734 263.471 306.978 263.703C307.388 264.093 307.404 264.742 307.014 265.151C306.623 265.561 305.975 265.577 305.565 265.187C305.3 264.934 305.047 264.683 304.806 264.432C304.414 264.024 304.427 263.375 304.836 262.983ZM384.661 263.002C385.224 262.946 385.726 263.357 385.782 263.92C385.815 264.257 385.845 264.593 385.87 264.927C385.914 265.491 385.491 265.984 384.927 266.027C384.363 266.07 383.87 265.648 383.827 265.084C383.802 264.765 383.774 264.444 383.742 264.123C383.686 263.56 384.098 263.058 384.661 263.002ZM307.752 265.773C308.098 265.325 308.742 265.242 309.189 265.588C309.321 265.69 309.456 265.793 309.592 265.895C309.732 266 309.871 266.104 310.01 266.207C310.464 266.544 310.559 267.186 310.222 267.641C309.884 268.095 309.242 268.19 308.788 267.852C308.647 267.747 308.505 267.641 308.363 267.535C308.218 267.426 308.076 267.318 307.936 267.21C307.489 266.864 307.406 266.221 307.752 265.773ZM384.967 266.948C385.532 266.943 385.996 267.397 386.001 267.963C386.005 268.301 386.004 268.637 386 268.972C385.993 269.538 385.529 269.991 384.963 269.984C384.398 269.978 383.944 269.514 383.951 268.948C383.955 268.628 383.955 268.306 383.952 267.983C383.946 267.417 384.401 266.954 384.967 266.948ZM311.076 268.257C311.401 267.794 312.04 267.682 312.503 268.007C312.783 268.203 313.06 268.395 313.335 268.585C313.802 268.906 313.92 269.543 313.599 270.01C313.278 270.476 312.64 270.594 312.174 270.273C311.894 270.08 311.611 269.884 311.327 269.685C310.863 269.36 310.751 268.721 311.076 268.257ZM314.481 270.599C314.789 270.124 315.424 269.99 315.898 270.298C316.184 270.484 316.469 270.667 316.751 270.847C317.228 271.151 317.367 271.785 317.063 272.262C316.758 272.739 316.125 272.879 315.648 272.574C315.361 272.392 315.073 272.206 314.781 272.016C314.307 271.708 314.172 271.073 314.481 270.599ZM384.922 270.906C385.487 270.949 385.909 271.441 385.866 272.005C385.841 272.342 385.812 272.677 385.779 273.01C385.725 273.574 385.224 273.986 384.661 273.931C384.098 273.877 383.685 273.376 383.74 272.813C383.771 272.494 383.798 272.173 383.823 271.85C383.866 271.286 384.358 270.863 384.922 270.906ZM317.963 272.821C318.257 272.337 318.887 272.183 319.371 272.477C319.665 272.656 319.957 272.832 320.246 273.005C320.732 273.296 320.89 273.925 320.599 274.411C320.308 274.896 319.679 275.054 319.193 274.763C318.901 274.588 318.605 274.41 318.307 274.229C317.823 273.935 317.669 273.305 317.963 272.821ZM321.504 274.942C321.788 274.453 322.415 274.287 322.905 274.571C323.206 274.746 323.504 274.919 323.8 275.09C324.29 275.374 324.457 276.001 324.174 276.49C323.891 276.98 323.264 277.148 322.774 276.864C322.477 276.693 322.178 276.519 321.875 276.343C321.385 276.058 321.219 275.431 321.504 274.942ZM384.544 274.845C385.103 274.933 385.485 275.458 385.397 276.017C385.345 276.35 385.289 276.682 385.231 277.012C385.133 277.569 384.601 277.941 384.044 277.842C383.486 277.744 383.114 277.213 383.213 276.655C383.269 276.338 383.322 276.019 383.373 275.699C383.46 275.139 383.985 274.758 384.544 274.845ZM325.083 277.014C325.368 276.525 325.996 276.36 326.484 276.645C326.784 276.82 327.082 276.994 327.376 277.168C327.863 277.455 328.025 278.084 327.738 278.571C327.45 279.058 326.822 279.22 326.335 278.933C326.044 278.761 325.75 278.589 325.452 278.415C324.963 278.13 324.798 277.503 325.083 277.014ZM328.638 279.113C328.94 278.635 329.573 278.491 330.051 278.793C330.349 278.981 330.644 279.169 330.936 279.36C331.41 279.669 331.544 280.303 331.235 280.778C330.926 281.252 330.291 281.386 329.817 281.077C329.534 280.892 329.248 280.709 328.958 280.527C328.48 280.225 328.336 279.592 328.638 279.113ZM383.859 278.743C384.41 278.871 384.753 279.421 384.625 279.972C384.548 280.302 384.47 280.629 384.389 280.953C384.251 281.502 383.695 281.836 383.146 281.699C382.597 281.562 382.263 281.005 382.4 280.456C382.479 280.143 382.555 279.827 382.629 279.509C382.757 278.958 383.307 278.615 383.859 278.743ZM332.099 281.372C332.437 280.918 333.079 280.824 333.533 281.161C333.817 281.372 334.097 281.586 334.375 281.805C334.82 282.154 334.898 282.798 334.549 283.243C334.199 283.688 333.555 283.766 333.11 283.417C332.847 283.21 332.58 283.007 332.31 282.806C331.856 282.468 331.762 281.826 332.099 281.372ZM382.902 282.583C383.444 282.746 383.752 283.317 383.589 283.859C383.493 284.182 383.394 284.503 383.294 284.821C383.124 285.361 382.549 285.66 382.009 285.491C381.469 285.321 381.169 284.745 381.339 284.206C381.437 283.897 381.532 283.585 381.626 283.271C381.789 282.729 382.36 282.421 382.902 282.583ZM335.347 283.925C335.735 283.513 336.384 283.493 336.796 283.881C337.053 284.123 337.307 284.371 337.559 284.624C337.959 285.025 337.957 285.674 337.556 286.073C337.155 286.472 336.506 286.471 336.107 286.069C335.871 285.832 335.632 285.6 335.391 285.373C334.979 284.985 334.96 284.337 335.347 283.925ZM381.715 286.363C382.248 286.553 382.526 287.139 382.336 287.672C382.224 287.988 382.11 288.3 381.996 288.609C381.801 289.14 381.212 289.412 380.681 289.217C380.15 289.021 379.878 288.432 380.073 287.901C380.185 287.598 380.296 287.293 380.406 286.985C380.595 286.451 381.182 286.173 381.715 286.363ZM338.258 286.853C338.696 286.496 339.342 286.562 339.699 287.001C339.922 287.274 340.142 287.553 340.36 287.84C340.703 288.29 340.616 288.933 340.166 289.276C339.716 289.619 339.073 289.532 338.73 289.082C338.525 288.813 338.319 288.551 338.11 288.295C337.753 287.856 337.819 287.21 338.258 286.853ZM340.764 290.144C341.243 289.842 341.876 289.986 342.177 290.465C342.362 290.758 342.545 291.058 342.726 291.364C343.015 291.851 342.854 292.479 342.367 292.768C341.881 293.056 341.252 292.896 340.964 292.409C340.791 292.118 340.618 291.834 340.443 291.557C340.141 291.078 340.285 290.445 340.764 290.144ZM380.35 290.074C380.875 290.284 381.132 290.88 380.923 291.405C380.798 291.719 380.673 292.029 380.549 292.334C380.336 292.859 379.739 293.111 379.214 292.899C378.69 292.686 378.437 292.088 378.65 291.564C378.773 291.262 378.896 290.956 379.019 290.647C379.228 290.121 379.824 289.865 380.35 290.074ZM342.867 293.69C343.373 293.437 343.989 293.642 344.242 294.148C344.398 294.459 344.553 294.777 344.707 295.101C344.95 295.612 344.732 296.223 344.221 296.466C343.71 296.709 343.099 296.492 342.856 295.98C342.708 295.669 342.559 295.364 342.41 295.065C342.156 294.559 342.361 293.944 342.867 293.69ZM378.861 293.748C379.383 293.966 379.63 294.566 379.412 295.088L379.333 295.277C379.231 295.522 379.13 295.763 379.031 296.002C378.813 296.524 378.214 296.771 377.691 296.554C377.169 296.336 376.922 295.736 377.139 295.214C377.238 294.977 377.338 294.737 377.439 294.495L377.521 294.299C377.739 293.777 378.339 293.53 378.861 293.748ZM377.339 297.402C377.866 297.609 378.125 298.204 377.919 298.731C377.797 299.042 377.68 299.345 377.57 299.641C377.372 300.171 376.781 300.44 376.251 300.242C375.721 300.044 375.452 299.454 375.65 298.923C375.765 298.616 375.886 298.302 376.011 297.982C376.218 297.455 376.812 297.196 377.339 297.402ZM344.64 297.42C345.164 297.205 345.763 297.455 345.978 297.978C346.11 298.299 346.241 298.625 346.372 298.957C346.579 299.484 346.32 300.079 345.793 300.286C345.267 300.493 344.672 300.234 344.465 299.707C344.338 299.385 344.211 299.069 344.083 298.758C343.867 298.234 344.117 297.635 344.64 297.42ZM375.948 301.113C376.496 301.253 376.826 301.812 376.686 302.36C376.647 302.51 376.612 302.657 376.58 302.8C376.543 302.968 376.501 303.14 376.455 303.314C376.31 303.861 375.749 304.187 375.202 304.042C374.655 303.897 374.329 303.336 374.474 302.789C374.513 302.64 374.549 302.495 374.58 302.355C374.617 302.189 374.657 302.021 374.701 301.851C374.841 301.303 375.399 300.972 375.948 301.113ZM346.155 301.27C346.69 301.084 347.274 301.367 347.46 301.901C347.572 302.224 347.684 302.551 347.795 302.884C347.974 303.42 347.685 304.001 347.149 304.181C346.612 304.36 346.031 304.071 345.852 303.534C345.743 303.209 345.634 302.89 345.524 302.575C345.338 302.04 345.621 301.456 346.155 301.27ZM374.862 304.93C375.38 305.159 375.613 305.764 375.384 306.282C375.247 306.592 375.1 306.906 374.946 307.223C374.697 307.731 374.084 307.942 373.575 307.694C373.067 307.446 372.856 306.833 373.104 306.324C373.248 306.029 373.383 305.738 373.51 305.451C373.74 304.934 374.345 304.701 374.862 304.93ZM347.467 305.188C348.009 305.024 348.581 305.331 348.744 305.873C348.795 306.043 348.846 306.213 348.897 306.385C348.946 306.55 348.995 306.712 349.044 306.873C349.21 307.414 348.906 307.987 348.365 308.153C347.824 308.319 347.251 308.015 347.085 307.474C347.033 307.307 346.983 307.138 346.932 306.967C346.882 306.799 346.832 306.631 346.782 306.464C346.618 305.923 346.925 305.351 347.467 305.188ZM373.118 308.521C373.601 308.816 373.754 309.447 373.459 309.93C373.282 310.22 373.1 310.51 372.911 310.8C372.603 311.274 371.968 311.409 371.494 311.101C371.019 310.792 370.885 310.157 371.193 309.683C371.371 309.41 371.543 309.136 371.71 308.863C372.004 308.38 372.635 308.227 373.118 308.521ZM348.67 309.055C349.199 308.853 349.791 309.118 349.994 309.646C350.11 309.952 350.228 310.248 350.348 310.537C350.564 311.059 350.316 311.659 349.793 311.875C349.27 312.092 348.671 311.843 348.454 311.32C348.328 311.014 348.203 310.7 348.079 310.378C347.877 309.85 348.142 309.257 348.67 309.055ZM370.945 311.871C371.39 312.22 371.469 312.864 371.12 313.31C370.908 313.58 370.692 313.847 370.472 314.111C370.11 314.546 369.464 314.604 369.029 314.242C368.594 313.879 368.536 313.233 368.899 312.798C369.105 312.551 369.307 312.3 369.506 312.047C369.855 311.601 370.499 311.523 370.945 311.871ZM350.192 312.735C350.689 312.465 351.311 312.649 351.581 313.146C351.737 313.433 351.894 313.708 352.052 313.97C352.344 314.455 352.188 315.085 351.703 315.376C351.218 315.668 350.588 315.512 350.296 315.027C350.122 314.738 349.95 314.437 349.78 314.124C349.51 313.626 349.694 313.004 350.192 312.735ZM368.389 314.94C368.783 315.346 368.772 315.995 368.366 316.389C368.116 316.631 367.862 316.867 367.605 317.097C367.182 317.473 366.535 317.436 366.158 317.014C365.781 316.591 365.819 315.943 366.241 315.567C366.476 315.357 366.709 315.14 366.94 314.917C367.346 314.523 367.995 314.533 368.389 314.94ZM352.249 316.155C352.672 315.78 353.32 315.819 353.695 316.243C353.904 316.479 354.114 316.697 354.324 316.899C354.732 317.29 354.746 317.939 354.354 318.347C353.963 318.756 353.314 318.77 352.906 318.378C352.654 318.136 352.405 317.878 352.161 317.601C351.786 317.178 351.825 316.53 352.249 316.155ZM365.411 317.599C365.717 318.075 365.579 318.709 365.103 319.015C364.802 319.209 364.497 319.392 364.189 319.562C363.693 319.836 363.07 319.656 362.796 319.161C362.523 318.666 362.702 318.042 363.198 317.769C363.464 317.621 363.729 317.462 363.995 317.292C364.47 316.986 365.104 317.123 365.411 317.599ZM355.125 318.912C355.362 318.398 355.971 318.174 356.485 318.411C356.751 318.533 357.017 318.634 357.284 318.715C357.825 318.88 358.13 319.452 357.966 319.994C357.801 320.535 357.229 320.841 356.687 320.676C356.331 320.567 355.977 320.433 355.627 320.272C355.113 320.035 354.888 319.426 355.125 318.912ZM361.92 319.532C362.052 320.082 361.713 320.635 361.163 320.767C360.799 320.854 360.431 320.921 360.062 320.964C359.5 321.031 358.99 320.629 358.924 320.067C358.858 319.505 359.26 318.995 359.822 318.929C360.107 318.895 360.395 318.844 360.685 318.774C361.235 318.642 361.788 318.981 361.92 319.532Z" fill="#F5A623"/>
</svg>
