<svg width="183" height="217" viewBox="0 0 183 217" fill="none" xmlns="http://www.w3.org/2000/svg">
<path d="M95.4551 115.341L95.4551 99.4318L169.035 57.6705L182.956 49.7159L182.956 68.608C177.983 68.608 171.023 61.6477 169.035 57.6705C147.106 95.6517 100.902 113.008 95.4551 115.341Z" fill="#141517"/>
<path d="M95.4583 99.4337L9.94692 49.7178C9.94692 49.7178 0.00358544 61.6478 0.00372805 83.5246C0.00384375 101.273 9.94691 105.398 9.94691 126.278C9.94691 147.159 0.00372805 161.08 0.00372805 161.08L85.5151 210.795C85.5151 210.795 95.4583 196.875 95.4583 175.994C95.4583 155.114 85.5152 157.948 85.5151 140.199C85.515 132.257 95.4583 115.341 95.4583 115.341L95.4583 99.4337Z" fill="black"/>
<path d="M9.94348 49.7159L95.4548 0L182.955 49.7159L95.4548 99.4318L9.94348 49.7159Z" fill="#1C1E21"/>
</svg>
