<svg width="680" height="680" viewBox="0 0 680 680" fill="none" xmlns="http://www.w3.org/2000/svg">
<path d="M262.711 19.9671C300.331 41.6887 298.989 73.494 298.989 73.494L289.14 79.8873L269.793 66.9897C247.917 73.5824 246.256 114.025 249.279 139.43L237.936 145.055L230.319 93.4453C227.533 82.5567 226.08 72.205 225.799 62.8195C225.373 48.5419 227.664 36.5003 232.112 28.2055L230.178 25.5808L238.494 20.1116C239.592 19.2043 240.754 18.4384 241.974 17.8227C247.692 14.9389 254.716 15.3509 262.711 19.9671Z" fill="#9A8461"/>
<path d="M262.711 19.967C300.331 41.6886 298.989 73.4939 298.989 73.4939L289.14 79.8871L251.901 55.0613L230.179 24.0291L241.975 17.8226C247.692 14.9387 254.716 15.3508 262.711 19.967Z" fill="#9A8461"/>
<path d="M251.962 26.1736C289.582 47.8953 288.24 79.7005 288.24 79.7005C238.796 51.152 234.499 111.762 238.53 145.636C198.221 75.819 214.342 4.45199 251.962 26.1736Z" fill="#64563F"/>
<path d="M339 170.193L339 140L383 115L427.001 90L427 119.383C421.522 123.362 405.052 127.732 383 115C360.946 153.198 344.478 167.847 339 170.193Z" fill="#8A7658"/>
<path d="M339.003 140.002L253.003 90.0018L253.003 190.002L277 203.953C277 203.953 278.968 170.174 291 162C304.462 152.855 339.003 170 339.003 170L339.003 140.002Z" fill="#64563F"/>
<path d="M253 90L339 40L427 90L339 140L253 90Z" fill="#9A8461"/>
</svg>
