<svg width="107" height="108" viewBox="0 0 107 108" fill="none" xmlns="http://www.w3.org/2000/svg">
<path d="M23.8553 1.98355C42.6654 12.8444 41.9944 28.747 41.9944 28.747L37.0698 31.9436L27.3967 25.4949C16.4583 28.7912 15.6278 49.0126 17.1396 61.7148L11.4682 64.5275L7.65967 38.7227C6.26665 33.2783 5.53971 28.1025 5.39965 23.4098C5.1866 16.271 6.3317 10.2501 8.55614 6.10273L7.58915 4.7904L11.747 2.05582C12.2961 1.60217 12.8767 1.21921 13.4871 0.911362C16.3459 -0.530567 19.8579 -0.324562 23.8553 1.98355Z" fill="#9A8461"/>
<path d="M23.8553 1.98349C42.6654 12.8443 41.9944 28.7469 41.9944 28.7469L37.0698 31.9436L18.4504 19.5307L7.58914 4.01456L13.4871 0.911302C16.3459 -0.530628 19.8578 -0.324624 23.8553 1.98349Z" fill="#9A8461"/>
<path d="M18.4809 5.08679C37.291 15.9476 36.6199 31.8502 36.6199 31.8502C11.898 17.576 9.74928 47.8812 11.7652 64.8181C-8.38933 29.9095 -0.329243 -5.77403 18.4809 5.08679Z" fill="#64563F"/>
<path d="M62 77.0967L62 62L84 49.5L106 37L106 51.6914C103.261 53.6809 95.0261 55.8659 84 49.5C72.9731 68.5992 64.7389 75.9233 62 77.0967Z" fill="#8A7658"/>
<path d="M62.0016 62.0009L19.0016 37.0009L19.0016 87.0009L31 93.9767C31 93.9767 31.9839 77.087 38 73C44.731 68.4274 62.0016 77 62.0016 77L62.0016 62.0009Z" fill="#64563F"/>
<path d="M19 37L62 12L106 37L62 62L19 37Z" fill="#9A8461"/>
</svg>
