<svg width="680" height="680" viewBox="0 0 680 680" fill="none" xmlns="http://www.w3.org/2000/svg">
<path d="M338.467 154.63L338.467 138.543L412.869 96.3148L426.946 88.2714L426.946 107.374C421.918 107.374 414.88 100.336 412.869 96.3148C390.695 134.72 343.975 152.27 338.467 154.63Z" fill="#141517"/>
<path d="M338.47 138.545L252.003 88.2733C252.003 88.2733 241.949 100.337 241.949 122.458C241.949 140.405 252.003 144.575 252.003 165.689C252.003 186.803 241.949 200.879 241.949 200.879L328.416 251.151C328.416 251.151 338.47 237.075 338.47 215.961C338.47 194.847 328.416 197.713 328.416 179.765C328.416 171.735 338.47 154.63 338.47 154.63L338.47 138.545Z" fill="black"/>
<path d="M252 88.2714L338.467 38L426.945 88.2714L338.467 138.543L252 88.2714Z" fill="#1C1E21"/>
</svg>
