<svg width="680" height="680" viewBox="0 0 680 680" fill="none" xmlns="http://www.w3.org/2000/svg">
<path opacity="0.5" d="M339.693 239.386V211.606L320.843 196.724L311.913 176.882L301 169.937L308.937 221.528L339.693 239.386Z" fill="#1C1E21"/>
<path opacity="0.4" fill-rule="evenodd" clip-rule="evenodd" d="M427.001 162L426.999 189.762L339.693 239.386L339.694 211.624L360.529 191.845L381.363 180.003L391.323 184.862L370.153 197.086C368.593 197.987 367.328 200.178 367.328 201.979L367.327 209.294C367.327 211.095 368.592 211.826 370.152 210.925L399.388 194.044C400.949 193.143 402.213 190.952 402.214 189.151L402.214 181.836C402.214 180.035 400.949 179.304 399.389 180.205L397.658 181.205L394.601 172.479L410.801 163.271L427.001 162Z" fill="#1C1E21"/>
</svg>
