<svg width="680" height="680" viewBox="0 0 680 680" fill="none" xmlns="http://www.w3.org/2000/svg">
<path d="M339.512 155.341L339.512 139.432L413.091 97.6704L427.013 89.7159L427.013 108.608C422.04 108.608 415.08 101.648 413.091 97.6704C391.163 135.652 344.958 153.007 339.512 155.341Z" fill="#141517"/>
<path d="M339.515 139.434L254.004 89.7178C254.004 89.7178 244.06 101.648 244.06 123.525C244.06 141.273 254.004 145.398 254.004 166.278C254.004 187.159 244.06 201.08 244.06 201.08L329.572 250.795C329.572 250.795 339.515 236.875 339.515 215.994C339.515 195.114 329.572 197.948 329.572 180.199C329.572 172.257 339.515 155.341 339.515 155.341L339.515 139.434Z" fill="black"/>
<path d="M254 89.7159L339.512 40L427.012 89.7159L339.512 139.432L254 89.7159Z" fill="#1C1E21"/>
</svg>
