<svg width="170" height="603" viewBox="0 0 170 603" fill="none" xmlns="http://www.w3.org/2000/svg">
<rect width="47.8267" height="15.757" transform="matrix(0.866009 0.500028 3.18351e-05 1 40.7045 562.254)" fill="#223144"/>
<rect width="47.8267" height="3.23082" transform="matrix(0.86601 0.500028 3.18351e-05 1 40.705 575.355)" fill="#D3D5DA"/>
<rect width="24.7583" height="15.757" transform="matrix(0.86601 -0.500027 -3.18351e-05 1 82.1235 586.168)" fill="#2C405A"/>
<rect width="24.7583" height="3.31733" transform="matrix(0.866009 -0.500028 -3.18351e-05 1 82.123 599.171)" fill="#DEE0E3"/>
<rect width="24.7583" height="47.8267" transform="matrix(0.866041 -0.499972 0.866041 0.499972 40.7045 562.255)" fill="#364E6D"/>
<path d="M73.9626 577.322L88.1404 569.137" stroke="white" stroke-opacity="0.5" stroke-width="0.963848" stroke-linecap="round"/>
<path d="M67.2908 573.47L81.4686 565.285" stroke="white" stroke-opacity="0.5" stroke-width="0.963848" stroke-linecap="round"/>
<rect width="47.8267" height="15.757" transform="matrix(0.86601 0.500027 3.18351e-05 1 84.0719 537.216)" fill="#223144"/>
<rect width="47.8267" height="3.23082" transform="matrix(0.86601 0.500027 3.18351e-05 1 84.0724 550.317)" fill="#D3D5DA"/>
<rect width="24.7583" height="15.757" transform="matrix(0.86601 -0.500027 -3.18351e-05 1 125.491 561.13)" fill="#2C405A"/>
<rect width="24.7583" height="3.31733" transform="matrix(0.86601 -0.500028 -3.18351e-05 1 125.491 574.133)" fill="#DEE0E3"/>
<rect width="24.7583" height="47.8267" transform="matrix(0.866041 -0.499972 0.866041 0.499972 84.0719 537.217)" fill="#364E6D"/>
<path d="M117.33 552.284L131.508 544.099" stroke="white" stroke-opacity="0.5" stroke-width="0.963848" stroke-linecap="round"/>
<path d="M110.658 548.432L124.836 540.246" stroke="white" stroke-opacity="0.5" stroke-width="0.963848" stroke-linecap="round"/>
<path d="M99.0074 350.322L115.778 340.95L113.688 535.912L99.006 544.117L99.0074 350.322Z" fill="#F7E3DB"/>
<path d="M99.0045 350.552L87.4684 344.36L87.4697 537.883L99.0058 544.075L99.0045 350.552Z" fill="#F3D5CA"/>
<path d="M59.1554 373.248L75.926 363.877L73.8365 558.984L59.1541 567.189L59.1554 373.248Z" fill="#F7E3DB"/>
<path d="M59.1526 372.857L47.6165 366.667L47.6178 560.955L59.1539 567.146L59.1526 372.857Z" fill="#F3D5CA"/>
<path d="M62.2954 351.526L119.242 318.646L116.095 340.726L59.1484 373.606L62.2954 351.526Z" fill="#F7E3DB"/>
<path d="M44.4669 341.039L62.2953 351.526L59.1497 373.477L47.614 366.817L44.4669 341.039Z" fill="#F3D5CA"/>
<path d="M44.4669 341.039L101.415 308.162L119.244 318.649L62.2954 351.526L44.4669 341.039Z" fill="#FBF1EE"/>
<path d="M36.6093 389.201L48.1754 395.852L46.2477 385.181L36.6093 389.201Z" fill="#E8CBC1"/>
<path d="M36.6093 375.99L23.1154 368.279L19.26 396.912L32.7539 404.745L36.6093 375.99Z" fill="#FADBD0"/>
<path d="M32.7539 404.745L36.6093 375.99L47.2116 370.207L51.0671 377.918L51.0671 395.267L48.1755 395.852L46.2478 385.181L42.3924 400.298L44.3201 406.523L51.067 409.191L50.1032 412.748L38.537 410.97L32.7539 404.745Z" fill="#FCE8E0"/>
<path d="M19.26 396.912L32.7539 404.745L38.537 410.97L25.0431 403.137L19.26 396.912Z" fill="#E8CBC1"/>
<path d="M36.6093 236.232L21.1962 227.557L23.1154 368.396L36.6093 375.99L36.6093 236.232Z" fill="#F3D5CA"/>
<path d="M36.6093 236.232L47.2116 230.449L47.2116 370.207L36.6093 375.99L36.6093 236.232Z" fill="#F7E3DB"/>
<path d="M21.1877 227.557L31.7939 221.774L47.2116 230.449L36.6093 236.232L21.1877 227.557Z" fill="#FBF1EE"/>
<path fill-rule="evenodd" clip-rule="evenodd" d="M104.005 176.682C104.005 173.363 101.936 170.043 97.7995 167.51C89.5258 162.445 76.1115 162.445 67.8378 167.51C63.7009 170.043 61.6325 173.363 61.6325 176.682L61.6325 196.964C61.6325 200.284 63.7009 203.603 67.8378 206.136C76.1115 211.202 89.5258 211.202 97.7995 206.136C101.936 203.603 104.005 200.284 104.005 196.964L104.005 176.682Z" fill="url(#paint0_linear_8_391)"/>
<path d="M1.40346e-05 48.1503L82.8185 96.3006L82.8185 192.601L4.65787e-06 144.451L1.40346e-05 48.1503Z" fill="#F3D5CA"/>
<path d="M82.8185 96.3007L167.563 48.1503L167.563 144.451L82.8185 192.601L82.8185 96.3007Z" fill="#F7E3DB"/>
<path d="M-6.42618e-05 48.1503L82.8184 1.9252e-05L167.563 48.1503L82.8186 96.3006L-6.42618e-05 48.1503Z" fill="#FBF1EE"/>
<path d="M107.838 124.223L107.838 116.519L104.502 118.445L101.166 124.223L101.166 128.075L107.838 124.223Z" fill="#1A579E"/>
<path d="M141.193 104.964L147.865 101.112L147.865 97.2597L144.529 95.3338L141.193 97.2599L141.193 104.964Z" fill="#1A579E"/>
<path d="M111.172 143.481C111.172 154.117 118.638 158.428 127.849 153.109L131.185 151.184" stroke="#993E20" stroke-opacity="0.2" stroke-width="3.85539"/>
<path d="M123.266 134.818L123.265 109.783L134.821 140.599L123.266 134.818Z" fill="#F3D5CA"/>
<path d="M128.268 106.894L123.265 109.783L134.821 140.599L139.825 137.71L128.268 106.894Z" fill="#FBF1EE"/>
<defs>
<linearGradient id="paint0_linear_8_391" x1="61.6325" y1="186.231" x2="104.005" y2="186.231" gradientUnits="userSpaceOnUse">
<stop stop-color="#F3D5CA"/>
<stop offset="0.98967" stop-color="#F7E3DB"/>
</linearGradient>
</defs>
</svg>
