<svg width="200" height="600" viewBox="0 0 200 600" fill="none" xmlns="http://www.w3.org/2000/svg">
<g opacity="0.8">
<path d="M115.007 366.322L131.778 356.95L129.689 551.912L115.006 560.117L115.007 366.322Z" fill="#27747F"/>
<path d="M115.005 366.552L103.469 360.36L103.47 553.883L115.006 560.075L115.005 366.552Z" fill="#27747F"/>
<path d="M75.1556 389.248L91.9261 379.877L89.8366 574.984L75.1542 583.189L75.1556 389.248Z" fill="#27747F"/>
<path d="M75.1527 388.857L63.6166 382.667L63.618 576.955L75.154 583.145L75.1527 388.857Z" fill="#27747F"/>
<path d="M78.2955 367.526L135.242 334.646L132.095 356.726L75.1485 389.606L78.2955 367.526Z" fill="#27747F"/>
<path d="M60.4669 357.039L78.2953 367.526L75.1497 389.477L63.614 382.817L60.4669 357.039Z" fill="#27747F"/>
<path d="M60.4669 357.039L117.415 324.162L135.244 334.649L78.2954 367.526L60.4669 357.039Z" fill="#27747F"/>
<path d="M77.738 250.973L117.685 227.861L157.633 204.749L157.633 335.716L77.738 381.94L77.738 250.973Z" fill="#27747F"/>
<path fill-rule="evenodd" clip-rule="evenodd" d="M98.8992 238.73L77.738 250.973L77.738 381.94L157.633 335.716V204.749L135.566 217.516C135.04 228.986 127.032 242.477 117.231 248.136C107.442 253.788 99.4424 249.562 98.8992 238.73Z" fill="#27747F"/>
<path d="M41.1641 229.787L77.7411 250.973L77.7411 381.94L41.1641 360.754L41.1641 229.787Z" fill="#27747F"/>
<path d="M63.1777 217.048L98.7936 238.791L135.372 217.628L98.7935 196.442L63.1777 217.048Z" fill="#27747F"/>
<path d="M157.633 204.749L121.055 183.563L98.7936 196.442L135.372 217.628L157.633 204.749Z" fill="#27747F"/>
<path d="M41.1597 229.787L77.7381 250.973L98.7936 238.791L63.1778 217.048L41.1597 229.787Z" fill="#27747F"/>
<path d="M52.6093 405.201L64.1754 411.852L62.2477 401.181L52.6093 405.201Z" fill="#27747F"/>
<path d="M52.6093 391.99L39.1154 384.279L35.26 412.912L48.7539 420.745L52.6093 391.99Z" fill="#27747F"/>
<path d="M48.7539 420.745L52.6093 391.99L63.2116 386.207L67.0671 393.918L67.0671 411.267L64.1755 411.852L62.2478 401.181L58.3924 416.299L60.3201 422.524L67.067 425.191L66.1032 428.749L54.537 426.97L48.7539 420.745Z" fill="#27747F"/>
<path d="M35.26 412.912L48.7539 420.745L54.537 426.97L41.0431 419.137L35.26 412.912Z" fill="#27747F"/>
<path d="M52.6093 252.232L37.1962 243.558L39.1154 384.396L52.6093 391.99L52.6093 252.232Z" fill="#27747F"/>
<path d="M52.6093 252.232L63.2116 246.449L63.2116 386.207L52.6093 391.99L52.6093 252.232Z" fill="#27747F"/>
<path d="M37.1877 243.557L47.7939 237.774L63.2116 246.449L52.6093 252.232L37.1877 243.557Z" fill="#27747F"/>
<path fill-rule="evenodd" clip-rule="evenodd" d="M120.005 192.682C120.005 189.363 117.936 186.043 113.799 183.51C105.526 178.445 92.1115 178.445 83.8378 183.51C79.7009 186.043 77.6325 189.363 77.6325 192.682L77.6325 212.964C77.6325 216.284 79.7009 219.603 83.8378 222.136C92.1115 227.202 105.526 227.202 113.799 222.136C117.936 219.603 120.005 216.284 120.005 212.964L120.005 192.682Z" fill="#27747F"/>
<path d="M16 64.1503L98.8185 112.301L98.8185 208.601L16 160.451L16 64.1503Z" fill="#27747F"/>
<path d="M98.8185 112.301L183.563 64.1503L183.563 160.451L98.8185 208.601L98.8185 112.301Z" fill="#27747F"/>
<path d="M15.9999 64.1503L98.8184 16L183.563 64.1503L98.8186 112.301L15.9999 64.1503Z" fill="#27747F"/>
</g>
</svg>
