<svg width="320" height="640" viewBox="0 0 320 640" fill="none" xmlns="http://www.w3.org/2000/svg">
<rect width="320" height="640" fill="white"/>
<path d="M134.024 207C123.991 207 111.421 225.4 128.201 237.986C149.177 253.717 168.538 243.12 181.689 251.681C206.44 267.795 244.299 268.478 246.396 259.039C248.494 249.6 213.153 245.327 201.616 220.156C199.868 217.36 192.596 210.088 181.689 207.571" stroke="#FFB539" stroke-width="2.09757" stroke-linejoin="round" stroke-dasharray="2.1 2.1"/>
<path d="M286.71 280.247C275.857 284.339 259.786 281.695 250.815 274.342C245.8 270.231 244.065 265.519 245.407 261.447L246.932 256.096L248.936 256.559L295.663 267.362L296.696 267.601L295.84 271.161C295.776 271.539 295.686 271.914 295.57 272.283C294.551 275.551 291.563 278.417 286.71 280.247Z" fill="#D48F1E"/>
<ellipse rx="21.0029" ry="21.0029" transform="matrix(0.773377 0.633946 -0.935702 0.352791 271.59 262.373)" fill="#F5A623"/>
<path d="M269.807 277.126L270.61 247.293C274.066 247.592 277.531 248.304 280.777 249.391L280.777 277.353C277.248 277.77 273.498 277.679 269.807 277.126Z" fill="#FFB539"/>
<g filter="url(#filter0_i_25_655)">
<path d="M279.564 268.301C278.452 268.835 277.271 269.228 276.022 269.479C274.773 269.72 273.528 269.833 272.286 269.816L271.913 268.827C271.878 268.739 271.886 268.647 271.936 268.549C271.987 268.452 272.071 268.369 272.188 268.301C272.348 268.209 272.61 268.151 272.973 268.127C273.336 268.103 273.771 268.067 274.278 268.02C274.776 267.967 275.324 267.88 275.924 267.759C276.531 267.634 277.155 267.425 277.795 267.134L271.511 262.966C270.744 263.204 269.963 263.424 269.171 263.627C268.378 263.821 267.576 263.946 266.765 264.003C265.954 264.05 265.139 263.997 264.318 263.845C263.498 263.682 262.677 263.363 261.854 262.889C261.236 262.532 260.752 262.116 260.403 261.642C260.053 261.159 259.877 260.653 259.874 260.127C259.879 259.595 260.075 259.052 260.46 258.496C260.837 257.936 261.446 257.393 262.288 256.868L260.584 255.738C260.439 255.636 260.358 255.516 260.341 255.379C260.323 255.243 260.407 255.121 260.592 255.014L261.426 254.533L263.766 256.088C264.761 255.642 265.751 255.334 266.739 255.165C267.726 254.996 268.719 254.908 269.715 254.9L270.011 255.698C270.097 255.942 270.031 256.127 269.812 256.254C269.694 256.322 269.496 256.377 269.217 256.421C268.939 256.454 268.61 256.503 268.23 256.565C267.841 256.623 267.42 256.705 266.964 256.812C266.5 256.913 266.032 257.066 265.56 257.27L271.297 261.063C272.09 260.821 272.891 260.593 273.701 260.38C274.511 260.167 275.325 260.025 276.144 259.953C276.963 259.882 277.779 259.915 278.591 260.053C279.402 260.182 280.198 260.471 280.978 260.921C281.741 261.362 282.331 261.848 282.748 262.381C283.165 262.913 283.384 263.467 283.404 264.043C283.433 264.613 283.254 265.196 282.869 265.79C282.484 266.375 281.866 266.942 281.016 267.491L283.102 268.871C283.247 268.974 283.319 269.093 283.32 269.23C283.338 269.366 283.258 269.486 283.081 269.588L282.248 270.069L279.564 268.301ZM279.2 262.359C278.776 262.114 278.331 261.95 277.866 261.866C277.409 261.778 276.936 261.747 276.446 261.776C275.956 261.804 275.45 261.876 274.927 261.992C274.404 262.108 273.868 262.246 273.32 262.406L279.223 266.31C279.719 265.965 280.084 265.617 280.319 265.266C280.553 264.905 280.665 264.557 280.655 264.22C280.653 263.879 280.529 263.554 280.282 263.246C280.035 262.929 279.674 262.633 279.2 262.359ZM263.747 261.532C264.154 261.767 264.582 261.931 265.03 262.024C265.47 262.113 265.931 262.15 266.412 262.137C266.893 262.123 267.387 262.068 267.894 261.971C268.4 261.875 268.919 261.751 269.45 261.601L264.095 258.072C263.598 258.417 263.233 258.755 262.998 259.087C262.772 259.413 262.655 259.725 262.649 260.022C262.65 260.315 262.749 260.591 262.945 260.85C263.132 261.104 263.4 261.331 263.747 261.532Z" fill="#D48F1E"/>
</g>
<defs>
<filter id="filter0_i_25_655" x="259.874" y="254.533" width="23.5327" height="16.0715" filterUnits="userSpaceOnUse" color-interpolation-filters="sRGB">
<feFlood flood-opacity="0" result="BackgroundImageFix"/>
<feBlend mode="normal" in="SourceGraphic" in2="BackgroundImageFix" result="shape"/>
<feColorMatrix in="SourceAlpha" type="matrix" values="0 0 0 0 0 0 0 0 0 0 0 0 0 0 0 0 0 0 127 0" result="hardAlpha"/>
<feOffset dy="0.535107"/>
<feGaussianBlur stdDeviation="0.535107"/>
<feComposite in2="hardAlpha" operator="arithmetic" k2="-1" k3="1"/>
<feColorMatrix type="matrix" values="0 0 0 0 0 0 0 0 0 0 0 0 0 0 0 0 0 0 0.25 0"/>
<feBlend mode="normal" in2="shape" result="effect1_innerShadow_25_655"/>
</filter>
</defs>
</svg>
