<svg width="149" height="179" viewBox="0 0 149 179" fill="none" xmlns="http://www.w3.org/2000/svg">
<path d="M97.6252 102.996L95.2291 117.82C94.8961 119.881 93.5925 122.048 91.9707 123.222C88.0901 126.031 81.634 130.585 76.9213 133.306C72.4072 135.912 66.6169 138.498 62.941 140.057C61.2265 140.784 59.894 139.971 59.6794 138.087L58.2472 125.518C57.9801 123.174 59.5214 120.03 61.6744 118.537C66.5189 115.176 73.9581 110.124 78.9744 107.228C83.68 104.511 89.9502 101.556 94.3096 99.5875C96.5546 98.5736 98.0852 100.15 97.6252 102.996Z" stroke="#151E29" stroke-width="1.97456"/>
<path d="M107.937 97.0394L110.332 109.097C110.665 110.773 111.968 111.435 113.59 110.736C117.471 109.064 123.927 106.162 128.639 103.441C133.154 100.835 138.944 96.7335 142.62 94.0475C144.334 92.7948 145.667 90.4434 145.882 88.3114L147.315 74.088C147.582 71.435 146.041 70.0717 143.888 71.0642C139.043 73.2975 131.604 76.8365 126.588 79.7329C121.882 82.4499 115.612 86.7362 111.253 89.8016C109.008 91.3802 107.477 94.7245 107.937 97.0394Z" stroke="#151E29" stroke-width="1.97456"/>
<path d="M102.781 98.2495C100.318 99.6715 98.9501 99.8218 97.8556 100.134L97.8554 104.932C99.0868 103.901 100.729 102.313 102.781 101.128C105.244 99.7062 107.022 99.3189 108.117 99.0068L108.117 94.209C106.886 95.2398 104.833 97.0645 102.781 98.2495Z" fill="#151E29"/>
<path d="M60.1281 128.556L60.1278 119.453C47.5139 112.776 28.9872 102.838 15.1908 95.7821C9.19692 92.7167 3.36533 93.5058 1.00029 94.4161L2.57706 96.2371C4.41654 95.6302 10.776 96.4192 15.1909 98.9683C19.6057 101.517 27.8049 108.224 31.7468 112.169L60.1281 128.556Z" fill="#151E29"/>
</svg>
