<svg width="680" height="680" viewBox="0 0 680 680" fill="none" xmlns="http://www.w3.org/2000/svg">
<g clip-path="url(#clip0_42_753)">
<path d="M427 89.71L339 39.71L253 89.71V189.71L317 226.92V236.62L277 259.71L277.14 259.8L279.21 273.71L275 276L277 422L273 451.69L279 458.15L293 466.28L299.78 467.28L302.4 619.45L295.27 623.57V632.71L307 639.71L321.27 650.94L338.27 660.76L360.53 647.91V635.54L354.76 632.21L349 628.88L329.71 617.74L333 416.85L343.83 410.52V595.78L339 598.57V609.71L353 614L357 616.67L369 628.21L382 635.72L404.26 622.87V610.54L398.48 607.21L392.71 603.88L371.15 591.43L376 391.71L401 280.71L398 233.71L397.87 233.79L373.87 219.91L427 189.71V89.71V89.71ZM299 461.71L297 455.26L298.79 448.26L299.46 448.65L299.69 462L299 461.71ZM315 281.71H315.07H315Z" fill="#F0C8B9"/>
</g>
<defs>
<clipPath id="clip0_42_753">
<rect width="174" height="621.05" fill="white" transform="translate(253 39.71)"/>
</clipPath>
</defs>
</svg>
