<svg width="680" height="680" viewBox="0 0 680 680" fill="none" xmlns="http://www.w3.org/2000/svg">
<g clip-path="url(#clip0_42_753)">
<path d="M427 89.71L339 39.71L253 89.71V189.71L317 226.92V236.62L277 259.71L277.13 259.79L277.6 274.59L275 276L277 422L273 451.71L279 458.17L293 466.3L299.78 467.3L302.4 619.45L295.27 623.56L327 641.88L332.64 645.14L338.28 648.39L295.28 623.55V632.71L307 639.71L321.27 650.94L338.27 660.76L360.53 647.9V635.54L354.76 632.21L349 628.88L329.71 617.71L333 416.85L343.83 410.52V595.77L339 598.56L382 635.76L404.27 622.9V610.54L398.49 607.21L392.72 603.88L371.16 591.43L376 391.71L398 233.85V233.71L397.87 233.78L373.87 219.91L427 189.71V89.71ZM299 461.71L297 455.25L298.79 448.25L299.46 448.63L299.69 462.01L299 461.71Z" fill="#F0C8B9"/>
</g>
<defs>
<clipPath id="clip0_42_753">
<rect width="174" height="621.05" fill="white" transform="translate(253 39.71)"/>
</clipPath>
</defs>
</svg>
