<svg width="680" height="680" viewBox="0 0 680 680" fill="none" xmlns="http://www.w3.org/2000/svg">
<path d="M307 640L321.27 651.23L338.28 661.05V648.69L295.27 623.85V633L307 640Z" fill="#F0C8B9"/>
<path d="M339 598.85V610L353 614.33L357 617L369 628.54L382.01 636.05V623.69L339 598.85Z" fill="#F0C8B9"/>
<path d="M427 190V90L339 40L253 90V190L317 227.21V236.91L277 260L277.13 260.08L277.6 274.88L275 276.29L277 422.29L273 452L279 458.46L293 466.59L299.78 467.59L302.4 619.74L295.27 623.85L327 642.17L332.64 645.43L338.28 648.68V661.05L360.54 648.19V635.83L354.77 632.5L349 629.17L329.71 618L333 417.14L343.83 410.81V596.06L339 598.85L370.73 617.17L376.37 620.43L382.01 623.68V636.05L404.28 623.19V610.83L398.5 607.5L392.73 604.17L371.17 591.72L376 392L398 234.14V234L397.87 234.07L373.87 220.2L427 190ZM299 462L297 455.54L298.79 448.54L299.46 448.92L299.69 462.3L299 462ZM355.81 589.18V404L355.62 403.9L355.81 403.78V589.18Z" fill="#F0C8B9"/>
<path d="M253.003 89.8087L339 139.807L339 239.803L253.003 189.805L253.003 89.8087Z" fill="black"/>
<path d="M426.997 89.8087L339.003 139.809L339.003 239.805L426.997 189.805L426.997 89.8087Z" fill="black"/>
<path d="M277.002 259.802L277.502 274.802L286.002 270.302L302.002 279.302V424.296L303.001 425.796L311.001 429.796L315.001 281.802L277.002 259.802Z" fill="black"/>
<path d="M291.002 285.302L275.002 276.302L277.002 422.297L291.002 430.045V285.302Z" fill="black"/>
<path d="M344 410.797L356 403.797V604.79L344 598.29V410.797Z" fill="black"/>
<path d="M380.999 179.805V153.806L392.998 185.805L380.999 179.805Z" fill="black"/>
<path d="M314.501 628.789L302.502 622.289L300.002 467.295L305.002 468.295L306.002 464.795L299.002 461.795L297.002 455.295L299.002 448.296L303.002 450.795L306.002 450.295V431.796L303.002 425.796L311.001 429.796L314.501 628.789Z" fill="black"/>
<path d="M291.002 429.796L277.003 422.297L273.003 451.796L287.002 459.795L291.002 429.796Z" fill="black"/>
<path d="M287.003 459.795L273.003 451.795L279.003 458.295L293.003 466.295L287.003 459.795Z" fill="black"/>
<path d="M301.002 439.796L299.002 448.296L303.002 450.796L301.002 439.796Z" fill="black"/>
<path d="M338 648.288L295.502 623.789V632.789L307.002 639.789L321.501 651.288L338 660.788V648.288Z" fill="black"/>
<path d="M381.999 623.478L339 598.79V609.79L353 614.29L368.999 628.289L381.999 635.789V623.478Z" fill="black"/>
<path d="M360.5 635.789L338 648.289V660.789L360.5 647.789V635.789Z" fill="black"/>
<path d="M404.499 610.79L381.999 623.29V635.79L404.499 622.79V610.79Z" fill="black"/>
<path d="M329.501 620.289L314.501 628.789L311.001 430.296L315.001 281.802L397.998 233.803L375.999 391.798L370.999 596.29L356 604.79V403.797L333.001 416.797L329.501 620.289Z" fill="black"/>
<path d="M302.002 279.302L291.002 285.302V429.796L302.002 424.296V279.302Z" fill="black"/>
<path d="M339 257.803C351.15 257.803 360.999 252.206 360.999 245.303V227.304L339 239.803L317.001 226.804V245.303C317.001 252.206 326.85 257.803 339 257.803Z" fill="url(#paint0_linear_42_753)"/>
<defs>
<linearGradient id="paint0_linear_42_753" x1="317.001" y1="236.803" x2="360.499" y2="236.803" gradientUnits="userSpaceOnUse">
<stop/>
<stop offset="1" stop-opacity="0"/>
</linearGradient>
</defs>
</svg>
