<svg width="136" height="572" viewBox="0 0 136 572" fill="none" xmlns="http://www.w3.org/2000/svg">
<path d="M135.997 0.808686L48.0032 50.8087L48.0032 150.805L135.997 100.805L135.997 0.808686Z" fill="black"/>
<path d="M89.9985 90.8054V64.8064L101.998 96.8052L89.9985 90.8054Z" fill="black"/>
<path d="M69.5 546.789L47 559.289V571.789L69.5 558.789V546.789Z" fill="black"/>
<path d="M113.499 521.79L90.9985 534.29V546.79L113.499 533.79V521.79Z" fill="black"/>
<path d="M38.5003 531.289L23.5008 539.789L20.001 341.296L24.0008 192.802L106.998 144.803L84.9986 302.798L79.9988 507.29L64.9993 515.79V314.797L42.0002 327.797L38.5003 531.289Z" fill="black"/>
<path d="M11.0016 190.302L0.00195312 196.302V340.796L11.0016 335.296V190.302Z" fill="black"/>
<path d="M48.0002 168.803C60.15 168.803 69.9994 163.206 69.9994 156.303V138.304L48.0002 150.803L26.001 137.804V156.303C26.001 163.206 35.8504 168.803 48.0002 168.803Z" fill="url(#paint0_linear_56_558)"/>
<defs>
<linearGradient id="paint0_linear_56_558" x1="26.001" y1="147.803" x2="69.4994" y2="147.803" gradientUnits="userSpaceOnUse">
<stop/>
<stop offset="1" stop-opacity="0"/>
</linearGradient>
</defs>
</svg>
