<svg width="680" height="680" viewBox="0 0 680 680" fill="none" xmlns="http://www.w3.org/2000/svg">
<path d="M426.997 89.8087L339.003 139.809L339.003 239.805L426.997 189.805L426.997 89.8087Z" fill="black"/>
<path d="M380.999 179.805V153.806L392.998 185.805L380.999 179.805Z" fill="black"/>
<path d="M360.5 635.789L338 648.289V660.789L360.5 647.789V635.789Z" fill="black"/>
<path d="M404.499 610.79L381.999 623.29V635.79L404.499 622.79V610.79Z" fill="black"/>
<path d="M329.5 620.289L314.501 628.789L311.001 430.296L315.001 281.802L397.998 233.803L375.999 391.798L370.999 596.29L355.999 604.79V403.797L333 416.797L329.5 620.289Z" fill="black"/>
<path d="M302.002 279.302L291.002 285.302V429.796L302.002 424.296V279.302Z" fill="black"/>
<path d="M339 257.803C351.15 257.803 360.999 252.206 360.999 245.303V227.304L339 239.803L317.001 226.804V245.303C317.001 252.206 326.85 257.803 339 257.803Z" fill="url(#paint0_linear_42_753)"/>
<defs>
<linearGradient id="paint0_linear_42_753" x1="317.001" y1="236.803" x2="360.499" y2="236.803" gradientUnits="userSpaceOnUse">
<stop/>
<stop offset="1" stop-opacity="0"/>
</linearGradient>
</defs>
</svg>
