<svg width="680" height="680" viewBox="0 0 680 680" fill="none" xmlns="http://www.w3.org/2000/svg">
<path d="M381.999 623.478L339 598.79V609.79L353 614.29L368.999 628.289L381.999 635.789V623.478Z" fill="black"/>
<path d="M277.002 259.802L277.502 274.802L286.002 270.302L302.002 279.302V424.296L303 426L311 430L315.001 281.802L277.002 259.802Z" fill="black"/>
<path d="M291.002 285.302L275.002 276.302L277 422L291.002 430V285.302Z" fill="black"/>
<path d="M344 410.797L356 403.797V604.79L344 598.29V410.797Z" fill="black"/>
<path d="M314.501 628.789L302.502 622.289L300.002 467.295L305.002 468.295L306.002 464.795L299.002 461.795L297.002 455.295L299.002 448.296L303.002 450.795L306.002 450.295V431.796L303.002 426L311.001 430L314.501 628.789Z" fill="black"/>
<path d="M291 430L277 422L273.003 452L287.002 460L291 430Z" fill="black"/>
<path d="M338 648.288L295.502 623.789V632.789L307.002 639.789L321.501 651.288L338 660.788V648.288Z" fill="black"/>
<path d="M253.003 89.8087L339 139.807L339 239.803L253.003 189.805L253.003 89.8087Z" fill="black"/>
<path d="M287.003 460L273.003 452L279.003 458L293.003 466.295L287.003 460Z" fill="black"/>
<path d="M301.002 439.796L299.002 448.296L303.002 450.796L301.002 439.796Z" fill="black"/>
</svg>
