<svg width="659" height="659" viewBox="0 0 659 659" fill="none" xmlns="http://www.w3.org/2000/svg">
<g filter="url(#filter0_i)">
<circle cx="329.5" cy="329.5" r="232.992" transform="rotate(-135 329.5 329.5)" fill="#141414"/>
</g>
<path d="M331.886 561.51C460.289 561.51 561.289 456.496 561.289 328.093L553.19 332.625C488.744 368.683 408.251 358.009 355.429 306.402C290.752 243.212 187.476 243.153 122.727 306.27L99.3923 329.016C99.3923 457.419 203.483 561.51 331.886 561.51Z" fill="#4A90E2"/>
<path d="M331.886 561.51C460.289 561.51 561.289 456.496 561.289 328.093L553.19 332.625C488.744 368.683 408.251 358.009 355.429 306.402C290.752 243.212 187.476 243.153 122.727 306.27L99.3923 329.016C99.3923 457.419 203.483 561.51 331.886 561.51Z" fill="url(#paint0_linear)"/>
<path d="M328.795 561.51C200.393 561.51 96.3018 457.419 96.3018 329.016L107.576 335.074C172.197 369.801 251.883 358.544 304.356 307.277C369.532 243.6 473.604 243.541 538.851 307.144L561.289 329.016C561.289 457.419 457.198 561.51 328.795 561.51Z" fill="#4A90E2"/>
<path d="M328.795 561.51C200.393 561.51 96.3018 457.419 96.3018 329.016L107.576 335.074C172.197 369.801 251.883 358.544 304.356 307.277C369.532 243.6 473.604 243.541 538.851 307.144L561.289 329.016C561.289 457.419 457.198 561.51 328.795 561.51Z" fill="url(#paint1_linear)"/>
<g filter="url(#filter1_d)">
<path fill-rule="evenodd" clip-rule="evenodd" d="M334.195 169.584H325.088C325.441 171.139 325.776 172.609 326.12 174.114C326.358 175.157 326.6 176.217 326.854 177.334C324.532 176.721 322.636 176.223 320.412 175.642V184.749C322.208 184.293 323.85 183.882 325.677 183.424L326.911 183.114C326.233 185.935 325.669 188.297 325.105 190.668H334.146C333.549 188.232 332.969 185.861 332.307 183.13C333.87 183.513 335.236 183.852 336.613 184.193L336.615 184.194L336.616 184.194L336.617 184.194L336.618 184.195L336.623 184.196L336.634 184.199C337.309 184.366 337.987 184.534 338.692 184.708V175.74C337.939 175.921 337.216 176.095 336.496 176.268C335.128 176.598 333.777 176.924 332.282 177.277L332.646 175.818C333.187 173.648 333.672 171.704 334.195 169.584ZM295.259 211.187C294.376 211.187 293.657 211.898 292.823 213.345C290.436 217.466 291.016 222.322 294.335 226.442C294.748 226.959 295.109 227.518 295.471 228.077C295.646 228.348 295.821 228.619 296.003 228.886L295.529 229.401C295.07 229.233 294.616 229.045 294.161 228.857L294.161 228.857C293.116 228.424 292.072 227.993 290.983 227.799C290.73 227.75 290.485 227.725 290.256 227.725C288.662 227.725 287.534 228.755 286.896 230.382C286.054 232.557 286.667 235.9 288.392 237.388C289.479 238.32 290.419 238.696 291.261 238.696C292.946 238.696 294.254 237.208 295.606 235.668C295.967 235.258 296.331 234.844 296.706 234.453C297.826 238.672 296.788 241.868 294.507 244.574C292.112 247.411 289.169 248.907 285.768 248.907C284.73 248.907 283.659 248.768 282.539 248.482C278.991 247.591 276.26 245.661 274.944 241.86C275.14 241.843 275.328 241.843 275.516 241.843C276.211 241.843 276.881 241.917 277.535 241.991L277.745 242.015C278.318 242.081 278.88 242.146 279.448 242.146C279.473 242.146 279.498 242.146 279.522 242.138C280.38 242.138 281.762 241.672 281.999 241.051C284.01 235.941 283.544 234.846 278.786 232.238C277.666 231.625 276.996 231.281 276.505 231.281C275.811 231.281 275.5 231.976 274.846 233.619C274.505 234.463 274.108 235.281 273.71 236.1L273.71 236.1C273.506 236.52 273.301 236.94 273.105 237.364L272.107 237.11C272.075 236.55 272.054 235.987 272.033 235.425C271.981 234.019 271.93 232.613 271.69 231.24C271.535 230.39 270.677 229.066 270.055 229.009C268.731 228.894 267.398 228.862 266.001 228.862C265.25 228.862 264.479 228.871 263.678 228.881L263.678 228.881C262.812 228.891 261.912 228.902 260.965 228.902C261.197 229.358 261.392 229.755 261.568 230.11L261.568 230.11L261.568 230.11C261.886 230.756 262.138 231.268 262.428 231.764C263.994 234.458 265.565 237.148 267.135 239.838L267.136 239.839L267.136 239.84L267.136 239.84L267.137 239.841L267.138 239.844L267.14 239.847L267.144 239.854L267.146 239.856L267.147 239.858L267.148 239.861C271.026 246.502 274.902 253.143 278.705 259.829C279.424 261.096 280.086 261.66 281.092 261.66C281.533 261.66 282.04 261.553 282.645 261.349C296.256 256.82 310.293 254.523 324.607 254.065C326.324 254.008 328.041 253.983 329.758 253.983C345.715 253.983 361.362 256.371 376.625 261.357C377.214 261.545 377.712 261.66 378.162 261.66C379.069 261.66 379.74 261.194 380.426 259.992C384.225 253.302 388.1 246.652 391.976 240.003L391.977 240.002L391.977 240.001L391.978 240L391.98 239.996L391.982 239.993L391.984 239.989L391.986 239.985L391.988 239.982L391.99 239.978L391.992 239.975L391.994 239.971L391.996 239.968L391.998 239.964C393.604 237.21 395.209 234.455 396.809 231.698C397.101 231.196 397.343 230.665 397.65 229.99L397.65 229.989L397.65 229.989C397.808 229.643 397.983 229.259 398.191 228.821C397.306 228.821 396.473 228.832 395.673 228.842C394.935 228.852 394.225 228.862 393.531 228.862C392.599 228.862 391.7 228.845 390.801 228.788C390.637 228.78 390.474 228.78 390.318 228.78C388.209 228.78 387.269 229.687 387.4 232.091C387.468 233.271 387.311 234.459 387.155 235.65L387.155 235.651L387.154 235.652C387.085 236.176 387.016 236.7 386.966 237.225L385.871 237.323C385.691 236.881 385.499 236.441 385.308 236.001L385.307 236C384.882 235.024 384.456 234.045 384.146 233.031C383.786 231.854 383.271 231.347 382.56 231.347C382.11 231.347 381.587 231.551 380.974 231.919C379.895 232.561 379.039 233.025 378.365 233.391L378.365 233.391C377.085 234.086 376.467 234.421 376.238 234.931C376.024 235.407 376.149 236.035 376.39 237.249C376.526 237.937 376.7 238.813 376.87 239.955C377.132 241.664 377.753 242.334 378.881 242.334C379.282 242.334 379.756 242.244 380.296 242.089C381.143 241.845 382.039 241.759 383.014 241.665L383.014 241.665L383.015 241.665C383.479 241.621 383.961 241.574 384.465 241.508C383.19 245.645 379.339 248.392 374.851 248.858C374.491 248.899 374.132 248.915 373.772 248.915C369.619 248.915 365.335 246.528 363.496 242.865C362.262 240.405 361.207 237.789 362.695 234.527C362.975 234.854 363.247 235.19 363.515 235.52L363.516 235.522L363.516 235.522L363.516 235.522L363.517 235.522L363.517 235.523L363.517 235.523L363.517 235.523L363.517 235.523C364.833 237.147 366.061 238.663 367.853 238.663C368.515 238.663 369.251 238.451 370.101 237.96C372.08 236.824 373.241 233.538 372.456 231.012C371.671 228.494 370.469 227.733 369.096 227.733C368.046 227.733 366.894 228.177 365.744 228.619C364.969 228.917 364.196 229.215 363.455 229.377L363.48 228.281C363.831 227.776 364.208 227.29 364.586 226.802C364.771 226.563 364.956 226.324 365.139 226.082C368.36 221.913 368.703 216.983 366.177 212.953C365.474 211.825 364.747 211.285 363.905 211.285C363.3 211.285 362.629 211.563 361.853 212.119C358.051 214.825 356.408 219.681 357.724 224.66C357.916 225.38 358.056 226.114 358.196 226.849L358.196 226.849L358.196 226.849L358.196 226.849L358.196 226.85L358.196 226.85L358.196 226.85L358.196 226.85L358.196 226.85L358.196 226.85L358.197 226.85L358.197 226.85C358.271 227.241 358.345 227.631 358.427 228.02L357.757 228.42C357.262 227.975 356.796 227.44 356.331 226.905C355.196 225.602 354.062 224.3 352.509 224.3C351.732 224.3 350.857 224.619 349.827 225.42C347.988 226.859 347.031 230.349 347.996 232.581C348.904 234.674 350.056 235.353 351.315 235.353C352.479 235.353 353.723 234.78 354.938 234.222C355.447 233.988 355.951 233.756 356.441 233.57L356.735 234.404C355.991 239.17 350.645 243.184 345.323 243.184C344.979 243.184 344.636 243.168 344.293 243.135C338.407 242.538 332.619 237.086 332.75 232.271C332.782 231.306 333.093 230.832 333.641 230.832C333.935 230.832 334.287 230.963 334.687 231.224C335.815 231.952 336.894 232.761 337.933 233.611C338.399 233.995 338.799 234.175 339.175 234.175C339.682 234.175 340.148 233.865 340.671 233.284C344.734 228.837 344.71 228.698 341.276 223.916C340.581 222.951 339.968 222.444 339.257 222.444C338.734 222.444 338.162 222.714 337.467 223.278C336.558 224.007 335.531 224.582 334.5 225.159C334.028 225.423 333.555 225.688 333.093 225.968L332.374 225.158C332.674 224.657 332.972 224.154 333.269 223.651L333.27 223.651C333.968 222.47 334.667 221.288 335.407 220.131C336.061 219.125 336.052 218.455 335.014 217.613C332.488 215.544 331.18 214.531 329.823 214.531C328.515 214.531 327.158 215.463 324.632 217.294C323.193 218.324 323.07 219.133 324.06 220.531C324.789 221.568 325.403 222.684 326.018 223.802L326.018 223.803L326.019 223.803L326.019 223.804C326.286 224.29 326.554 224.776 326.831 225.256L326.169 225.869C325.916 225.751 325.658 225.642 325.399 225.533C324.869 225.309 324.338 225.084 323.855 224.782L323.825 224.763C321.8 223.492 320.679 222.787 319.792 222.787C318.689 222.787 317.937 223.883 316.261 226.327L315.852 226.949C315.845 227.213 315.816 227.494 315.787 227.779L315.787 227.779C315.71 228.533 315.632 229.305 315.958 229.81C317.699 232.557 318.492 233.775 319.678 233.775C320.639 233.775 321.852 232.987 324.029 231.574L324.051 231.559L326.071 231.061L326.316 232.965C325.621 237.952 320.92 242.277 315.459 243.037C314.912 243.111 314.364 243.151 313.824 243.151C309.157 243.151 304.807 240.413 302.976 236.113C302.788 235.669 302.704 235.181 302.586 234.503L302.586 234.503C302.519 234.12 302.442 233.676 302.33 233.145C302.91 233.46 303.38 233.719 303.785 233.941L303.786 233.941C304.379 234.268 304.833 234.518 305.29 234.756C306.05 235.148 306.818 235.336 307.546 235.336C309.475 235.336 311.119 234.036 311.356 231.829C311.527 230.243 311.217 228.436 310.546 226.989C309.745 225.232 308.396 224.357 306.957 224.357C305.764 224.357 304.513 224.962 303.467 226.18C303.02 226.706 302.534 227.201 302.049 227.694L302.049 227.694L302.049 227.695L302.048 227.695L302.048 227.695L302.048 227.696L302.048 227.696L302.047 227.696L302.047 227.696L302.047 227.697L302.047 227.697L302.046 227.697L302.046 227.697C301.831 227.916 301.617 228.134 301.407 228.355L300.704 227.954C300.802 227.54 300.899 227.125 300.996 226.711L300.997 226.708C301.191 225.881 301.385 225.054 301.586 224.226C302.723 219.436 301.415 215.43 297.589 212.332C296.649 211.571 295.905 211.187 295.259 211.187ZM328.209 472.314C328.749 471.429 329.284 470.557 329.812 469.695L329.813 469.694C331.35 467.19 332.838 464.764 334.267 462.308C335.002 461.057 334.651 460.256 333.089 459.749C328.119 458.13 325.895 454.705 326.934 450.642C327.898 446.881 331.602 444.298 335.722 444.298C336.188 444.298 336.662 444.331 337.144 444.396C342.826 445.23 346.578 450.2 344.911 455.661C343.889 458.989 341.91 462.193 339.736 464.94C336.825 468.611 332.591 470.597 328.209 472.314ZM260.991 472.069C248.132 466.338 243.308 454.108 249.799 442.483C253.184 436.426 258.408 432.314 264.539 429.256C274.006 424.523 284.11 422.781 294.484 422.781C295.31 422.781 296.144 422.79 296.977 422.814C301.198 422.925 305.41 423.439 309.623 423.953L309.624 423.953L309.624 423.953L309.625 423.953C311.319 424.16 313.014 424.367 314.709 424.547C315.316 424.615 315.916 424.764 316.676 424.952L316.677 424.952L316.677 424.952L316.679 424.952C317.107 425.058 317.584 425.176 318.143 425.299C317.739 425.501 317.41 425.669 317.128 425.813L317.127 425.814L317.127 425.814L317.124 425.815C316.595 426.085 316.231 426.271 315.854 426.436C308.496 429.632 302.234 434.276 297.198 440.529C296.479 441.429 295.784 441.829 294.787 441.829C294.541 441.829 294.28 441.805 293.994 441.756C291.656 441.38 289.35 441.175 287.061 441.175C281.191 441.175 275.526 442.524 270.212 445.704C262.871 450.094 258.277 456.226 259.242 465.275C259.415 466.879 259.901 468.448 260.374 469.975C260.593 470.682 260.81 471.38 260.991 472.069ZM382.21 467.335C381.605 467.335 381.065 467.008 380.46 466.216C375.073 459.242 371.918 451.492 371.893 442.581C371.886 439.957 371.879 437.333 371.873 434.709C371.85 425.52 371.828 416.331 371.77 407.143C371.746 404.976 371.615 402.777 371.272 400.644C370.348 394.929 367.773 390.196 362.5 387.237L362.909 386.419C364.861 387.174 366.833 387.891 368.804 388.609L368.804 388.609C373.262 390.232 377.722 391.855 381.973 393.907C390.164 397.856 394.677 404.551 394.554 413.977C394.524 416.291 394.547 418.607 394.57 420.923V420.923V420.923V420.923V420.923V420.923V420.924V420.924V420.924V420.924V420.924V420.924C394.596 423.55 394.623 426.175 394.571 428.798C394.383 438.175 397.146 446.612 402.345 454.329L403.154 455.596L403.351 456.316L401.348 457.534C399.341 458.596 397.332 459.649 395.324 460.702L395.308 460.71L395.306 460.711L395.301 460.714C391.458 462.729 387.617 464.742 383.804 466.812C383.191 467.147 382.676 467.335 382.21 467.335ZM338.569 421.138C328.35 418.906 318.278 416.707 307.994 414.467C309.396 413.741 310.787 413.003 312.176 412.266L312.177 412.266C315.445 410.532 318.7 408.806 322.039 407.257C324.549 406.096 325.325 404.6 325.293 401.87C325.196 394.946 325.202 388.02 325.208 381.094C325.212 376.285 325.216 371.476 325.186 366.668C325.17 364.755 325.685 363.602 327.508 362.744C330.102 361.532 332.637 360.185 335.312 358.765L335.313 358.764L335.314 358.764L335.318 358.762C336.376 358.2 337.455 357.627 338.569 357.046V421.138ZM348.828 383.394C348.804 382.977 348.78 382.617 348.759 382.295L348.759 382.295L348.758 382.294C348.714 381.632 348.681 381.134 348.681 380.639C348.676 377.71 348.678 374.78 348.681 371.851V371.851V371.85V371.85V371.85V371.849V371.849V371.849V371.849V371.848V371.848V371.848C348.686 365.991 348.692 360.135 348.632 354.283C348.616 352.354 349.319 351.438 351.084 350.825C352.662 350.277 354.101 350.007 355.385 350.007C359.725 350.007 362.309 353.065 362.366 358.722C362.392 361.004 362.384 363.284 362.377 365.564V365.565V365.566V365.567V365.568V365.569V365.569V365.57V365.571V365.572V365.573V365.574V365.575V365.575V365.576V365.577V365.577V365.578V365.578V365.579V365.58V365.58V365.581C362.367 368.318 362.358 371.053 362.407 373.789C362.44 375.497 361.941 376.535 360.33 377.32C357.726 378.605 355.166 379.986 352.449 381.451L352.449 381.451L352.446 381.453L352.446 381.453C351.274 382.085 350.074 382.732 348.828 383.394ZM372.224 369.849L372.224 369.848L372.224 369.848L372.224 369.847L372.223 369.846C372.137 369.155 372.065 368.578 372.06 368C372.051 367.11 372.035 366.219 372.019 365.329V365.328V365.328V365.328V365.328V365.327V365.327V365.327V365.327V365.327V365.327V365.327C371.973 362.783 371.926 360.239 372.06 357.708C372.362 351.699 370.327 347.056 364.261 344.023C365.428 343.391 366.571 342.75 367.699 342.117C372.53 339.407 377.113 336.836 382.368 335.709C383.415 335.48 384.412 335.374 385.36 335.374C390.641 335.374 394.337 338.775 394.794 344.693C395.058 348.167 394.929 351.677 394.801 355.182L394.8 355.183C394.769 356.034 394.738 356.884 394.713 357.733L393.617 359.752C387.839 362.867 382.026 365.901 375.964 369.066C374.771 369.689 373.568 370.317 372.354 370.952C372.311 370.549 372.266 370.187 372.224 369.851L372.224 369.849ZM291.189 361.289C292.881 361.289 293.47 360.471 293.437 358.444C293.38 353.96 293.384 349.474 293.388 344.988C293.392 340.502 293.396 336.016 293.339 331.532C293.323 329.562 293.985 328.548 295.71 327.665C300.362 325.28 304.972 322.811 309.734 320.26L309.737 320.259L309.737 320.259L309.739 320.258C311.602 319.259 313.489 318.249 315.411 317.225C315.439 317.697 315.471 318.113 315.501 318.493L315.501 318.493C315.55 319.128 315.591 319.665 315.591 320.201C315.593 326.658 315.593 333.115 315.593 339.572C315.593 358.94 315.593 378.308 315.649 397.676C315.657 399.761 314.929 400.815 313.131 401.714C308.579 403.993 304.068 406.346 299.355 408.804L299.352 408.805L299.348 408.807C297.401 409.822 295.42 410.855 293.388 411.909V408.622C293.388 405.713 293.384 402.804 293.38 399.894V399.893V399.892V399.892V399.891V399.89V399.889V399.888V399.888V399.887V399.886V399.885V399.885V399.885V399.885V399.884V399.884V399.884V399.883V399.883V399.883V399.883V399.882C293.369 391.56 293.358 383.236 293.437 374.917C293.462 372.758 292.832 372.072 290.813 372.072C290.739 372.072 290.666 372.072 290.592 372.08C287.984 372.129 285.376 372.145 282.769 372.145C281.057 372.145 279.343 372.139 277.629 372.133C275.912 372.127 274.194 372.121 272.476 372.121H269.476C269.746 368.941 271.307 366.872 273.31 365.049C276.901 361.782 281.403 361.523 285.892 361.265L286.039 361.256C286.872 361.207 287.714 361.174 288.548 361.174C289.227 361.174 289.897 361.199 290.568 361.256C290.788 361.281 290.993 361.289 291.189 361.289ZM325.497 353.792C325.457 353.384 325.414 353.023 325.374 352.692C325.301 352.075 325.24 351.565 325.235 351.054C325.233 347.584 325.234 344.114 325.236 340.643V340.643V340.642V340.642V340.642V340.641V340.641V340.64V340.64V340.64V340.639V340.639C325.24 331.96 325.244 323.278 325.186 314.601C325.178 312.639 325.856 311.56 327.606 310.735C330.184 309.51 332.717 308.18 335.374 306.784L335.378 306.783L335.383 306.78L335.385 306.779L335.397 306.772L335.404 306.769L335.415 306.763L335.42 306.76L335.422 306.759L335.431 306.754L335.437 306.751L335.439 306.751C336.468 306.21 337.516 305.66 338.593 305.102C338.617 305.478 338.641 305.812 338.663 306.118L338.663 306.118C338.716 306.849 338.756 307.415 338.756 307.98C338.759 311.449 338.757 314.919 338.755 318.389V318.389V318.389V318.39V318.39V318.39V318.391V318.391V318.392V318.392V318.392V318.393V318.395C338.751 327.075 338.747 335.755 338.806 344.432C338.822 346.304 338.192 347.302 336.541 348.094C334.008 349.315 331.516 350.628 328.891 352.012L328.89 352.012C327.787 352.594 326.66 353.188 325.497 353.792ZM372.525 309.371L372.525 309.344C372.367 302.157 372.22 295.451 364.308 291.768C364.967 291.411 365.577 291.059 366.158 290.724C367.357 290.032 368.436 289.41 369.581 288.948C370.486 288.579 371.39 288.196 372.294 287.813C375.398 286.497 378.512 285.177 381.754 284.411C382.669 284.19 383.552 284.092 384.394 284.092C389.512 284.092 393.076 287.951 393.583 293.624C393.926 297.54 392.929 299.886 389.078 301.537C385.275 303.176 381.617 305.159 377.793 307.231C376.084 308.157 374.343 309.101 372.54 310.04C372.535 309.816 372.53 309.594 372.525 309.371ZM383.914 275.369C378.42 275.369 373.319 277.029 368.414 279.588C359.823 284.07 351.233 288.555 342.643 293.04L342.633 293.046L342.623 293.051C323.724 302.919 304.825 312.788 285.912 322.621C284.219 323.496 283.721 324.558 283.737 326.357C283.776 330.137 283.772 333.915 283.768 337.693C283.764 341.798 283.759 345.903 283.811 350.007C283.835 352.1 283.189 352.721 281.064 353.163C277.091 353.972 272.905 354.839 269.447 356.809C261.403 361.371 258.28 369.112 257.405 377.99C257.201 380.034 257.65 380.803 259.735 380.803H259.874C261.869 380.77 263.855 380.762 265.85 380.762C267.084 380.762 268.311 380.762 269.537 380.77C270.179 380.77 270.822 380.772 271.466 380.774C272.11 380.776 272.754 380.778 273.396 380.778C275.848 380.778 278.301 380.762 280.753 380.705H280.99C283.287 380.705 283.851 381.587 283.819 383.868C283.704 393.171 283.672 402.483 283.835 411.794C283.884 414.312 282.944 414.933 280.671 415.424C275.284 416.593 269.839 417.778 264.681 419.667C255.198 423.141 247.047 428.61 241.554 437.39C234.368 448.86 235.75 461.825 245.159 471.521C249.868 476.369 255.525 479.671 261.877 481.903C272.079 485.492 282.478 487.07 293.016 487.07C297.585 487.07 302.172 486.776 306.782 486.211C318.007 484.854 328.863 482.01 338.747 476.279C345.197 472.543 350.478 467.613 353.462 460.607C357.01 452.277 354.01 443.129 346.186 438.592C342.842 436.646 339.384 435.69 335.894 435.69C333.057 435.69 330.196 436.319 327.343 437.57C322.012 439.908 318.203 443.84 317.255 449.849C316.372 455.498 318.563 460.019 323.1 463.697C322.894 464.034 322.714 464.389 322.536 464.739L322.535 464.739C322.16 465.476 321.796 466.191 321.236 466.673C320.424 467.371 319.625 468.101 318.824 468.833L318.824 468.833L318.824 468.833L318.823 468.834L318.823 468.834L318.823 468.834L318.822 468.834L318.822 468.835L318.822 468.835L318.821 468.835L318.821 468.836L318.821 468.836C316.453 470.998 314.072 473.174 311.311 474.578C305.507 477.521 299.441 478.854 293.294 478.854C289.116 478.854 284.898 478.241 280.696 477.105C277.336 476.189 274.058 473.81 271.507 471.317C267.248 467.139 267.305 460.648 271.45 456.34C273.535 454.182 276.257 452.326 279.036 451.222C281.791 450.127 284.587 449.653 287.383 449.653C290.849 449.653 294.324 450.38 297.741 451.566C298.223 451.737 298.632 451.819 298.992 451.819C299.776 451.819 300.349 451.41 301.044 450.536C301.461 450.016 301.877 449.494 302.293 448.971L302.295 448.969L302.296 448.967L302.297 448.965L302.299 448.964L302.3 448.962L302.302 448.96C304.754 445.879 307.227 442.771 310.118 440.153C320.14 431.071 332.493 428.071 345.606 427.564C347.976 427.466 348.761 426.836 348.728 424.392C348.66 419.386 348.665 414.38 348.671 409.374V409.372C348.676 404.821 348.681 400.268 348.63 395.714C348.598 393.498 349.521 392.771 351.508 392.567C351.81 392.542 352.105 392.526 352.399 392.526C356.07 392.526 359.56 394.815 360.729 398.837C361.686 402.164 362.119 405.745 362.185 409.227C362.254 413.123 362.187 417.022 362.119 420.922C362.052 424.821 361.984 428.721 362.054 432.616C362.064 433.168 362.074 433.72 362.084 434.273L362.084 434.274L362.084 434.276L362.084 434.277C362.188 440.258 362.294 446.288 363.296 452.146C364.98 462.022 370.956 469.853 377.145 477.448C377.897 478.363 378.535 478.78 379.279 478.78C379.802 478.78 380.374 478.584 381.085 478.208C392.259 472.273 403.468 466.397 414.672 460.523L414.677 460.52C417.948 458.805 421.218 457.091 424.486 455.375C424.974 455.123 425.444 454.841 425.967 454.528L425.967 454.528L425.969 454.526C426.225 454.373 426.494 454.212 426.784 454.043C425.165 451.484 423.669 449.105 422.132 446.661C421.26 447.114 420.415 447.546 419.59 447.968L419.574 447.976L419.57 447.978L419.569 447.979C417.712 448.928 415.96 449.823 414.243 450.789C413.687 451.108 413.213 451.296 412.772 451.296C412.199 451.296 411.684 450.969 411.128 450.209C407.515 445.214 404.899 439.802 404.613 433.581C404.414 429.32 404.345 425.054 404.276 420.785V420.785V420.784V420.783V420.783V420.782V420.782V420.781V420.78V420.78V420.779V420.779V420.778C404.228 417.841 404.18 414.904 404.09 411.966C403.796 402.328 399.822 394.529 391.607 389.411C388.361 387.392 384.854 385.794 381.349 384.198C379.972 383.57 378.595 382.943 377.235 382.291C376.467 381.925 375.652 381.652 374.683 381.326L374.683 381.326C374.177 381.156 373.63 380.972 373.025 380.754C373.484 380.485 373.867 380.257 374.202 380.057C374.784 379.709 375.222 379.447 375.673 379.209C377.947 378.013 380.222 376.82 382.497 375.628L382.524 375.614C389.075 372.18 395.626 368.747 402.136 365.237C403.052 364.747 404.098 363.496 404.147 362.54C404.425 356.686 404.638 350.808 404.49 344.947C404.245 334.491 398.048 327.894 387.658 326.79C386.791 326.692 385.933 326.651 385.083 326.651C380.276 326.651 375.747 328.074 371.414 330.248C367.34 332.293 363.282 334.362 359.223 336.432L359.22 336.434L359.215 336.436L359.215 336.436C356.704 337.716 354.194 338.997 351.68 340.271C351.137 340.547 350.575 340.781 349.911 341.056L349.91 341.056L349.91 341.056C349.534 341.212 349.126 341.381 348.671 341.579V338.113V303.14C348.671 299.428 348.802 299.265 352.342 298.398C353.527 298.112 354.623 297.965 355.62 297.965C360.01 297.965 362.512 300.761 362.749 306.173C362.866 308.867 362.842 311.569 362.818 314.271V314.271V314.271V314.271V314.272V314.272V314.272V314.272V314.272V314.272C362.806 315.513 362.795 316.754 362.798 317.994V324.714C363.127 324.599 363.402 324.513 363.639 324.44C364.027 324.319 364.316 324.229 364.58 324.092L367.962 322.325L367.962 322.325C379.164 316.473 390.368 310.619 401.531 304.685C402.275 304.284 402.962 303.058 403.011 302.175C403.182 299.003 403.191 295.807 403.052 292.619C402.643 283.242 396.135 276.506 386.783 275.516C385.81 275.418 384.862 275.369 383.914 275.369ZM247.159 314.568C247.936 321.207 253.234 325.883 259.12 325.883C260.125 325.883 261.139 325.752 262.152 325.466C265.496 324.534 268.079 321.697 268.365 318.648C268.66 315.443 267.188 312.794 264.376 311.486C263.297 310.98 262.185 310.726 261.09 310.726C259.013 310.726 256.994 311.625 255.294 313.465C254.73 314.07 254.215 314.356 253.732 314.356C253.266 314.356 252.825 314.102 252.383 313.612C251.241 312.357 250.164 311.044 248.924 309.531L248.924 309.531L248.924 309.53L248.923 309.53C248.362 308.846 247.768 308.121 247.119 307.342C247.119 308.227 247.095 309.066 247.073 309.873C247.026 311.539 246.983 313.065 247.159 314.568ZM290.295 298.411L290.295 298.411C288.884 296.026 287.51 293.705 285.757 291.719C283.971 289.699 281.797 288.02 279.697 286.397L279.697 286.397L279.696 286.397C278.797 285.702 277.911 285.017 277.075 284.321C279.143 283.503 281.743 283.111 284.563 283.111C293.147 283.111 303.865 286.724 308.639 293.003C305.939 294.421 303.282 295.815 300.666 297.188L300.655 297.193L300.626 297.209L300.564 297.241L300.494 297.278L300.443 297.305L300.437 297.308L300.319 297.37C297.582 298.806 294.889 300.219 292.24 301.611C291.56 300.548 290.924 299.473 290.295 298.411ZM283.958 274.814C272.676 274.814 261.894 278.827 251.748 286.324C242.445 293.207 237.319 302.813 238.088 314.781C238.619 323.112 242.854 329.292 250.481 332.586C253.473 333.886 256.457 334.548 259.368 334.548C263.888 334.548 268.229 332.946 272.202 329.635C276.993 325.63 278.914 320.185 277.622 314.037C276.412 308.266 272.431 304.554 266.848 303.254C265.801 303.009 264.706 302.911 263.586 302.911C261.571 302.911 259.482 303.22 257.499 303.514L257.499 303.514L257.487 303.516C257.128 303.573 256.817 303.598 256.539 303.598C255.484 303.598 254.896 303.189 254.381 302.028C252.664 298.227 254.005 294.483 258.051 291.997C260.087 290.755 262.466 290.15 264.918 290.15C268.949 290.15 273.175 291.777 276.355 294.834C281.219 299.502 283.173 305.445 283.876 311.945C283.954 312.64 284.068 313.332 284.198 314.118C284.272 314.569 284.352 315.051 284.432 315.582C290.2 312.555 295.912 309.555 301.603 306.567C311.754 301.237 321.837 295.942 332.052 290.583C331.639 289.934 331.253 289.308 330.881 288.703L330.879 288.7L330.878 288.699C329.96 287.208 329.12 285.844 328.144 284.583L325.765 284.084C323.615 285.008 321.547 286.136 319.528 287.338C318.996 287.656 318.538 287.795 318.105 287.795C317.41 287.795 316.781 287.428 316.004 286.847C315.19 286.24 314.382 285.609 313.571 284.977L313.571 284.976L313.571 284.976C310.793 282.808 307.989 280.621 304.837 279.285C297.717 276.26 290.743 274.814 283.958 274.814ZM321.124 202.628C321.156 198.05 325.04 194.191 329.601 194.191H329.675C334.269 194.232 338.16 198.189 338.103 202.767C338.054 207.386 334.22 211.146 329.577 211.146H329.536C324.876 211.122 321.083 207.279 321.124 202.628ZM397.168 208.22C393.407 208.22 390.448 211.293 390.505 215.144C390.562 218.839 393.513 221.725 397.192 221.725H397.29C400.928 221.676 404.01 218.569 403.986 214.956C403.961 211.326 400.879 208.252 397.233 208.22H397.168ZM283.996 192.05C283.873 188.354 287.045 185.101 290.773 185.109C294.476 185.117 297.427 188.076 297.468 191.812C297.501 195.557 294.591 198.557 290.887 198.598H290.806C287.16 198.598 284.11 195.671 283.996 192.05ZM309.807 193.619C306.152 193.619 303.013 196.742 303.038 200.413C303.062 204.026 306.169 207.1 309.798 207.108H309.823C313.502 207.108 316.51 204.14 316.551 200.453C316.592 196.742 313.665 193.709 309.962 193.619H309.807ZM369.641 185.109H369.658C373.377 185.109 376.508 188.33 376.394 192.058C376.296 195.704 373.296 198.598 369.633 198.598H369.527C365.848 198.54 362.864 195.499 362.889 191.821C362.913 188.191 366.012 185.117 369.641 185.109ZM263.192 208.228C259.505 208.228 256.57 211.195 256.562 214.997C256.553 218.749 259.447 221.692 263.167 221.725H263.224C266.936 221.725 269.854 218.847 269.895 215.119C269.944 211.326 267.148 208.35 263.412 208.228H263.192ZM343.844 200.249C343.918 196.627 347 193.619 350.621 193.619H350.67C354.374 193.644 357.333 196.644 357.333 200.363C357.333 204.132 354.333 207.116 350.605 207.116C350.548 207.116 350.491 207.116 350.433 207.108C346.804 207.018 343.771 203.862 343.844 200.249ZM271.406 190.995C267.596 190.995 264.743 193.782 264.702 197.551C264.653 201.361 267.653 204.418 271.398 204.418H271.479C275.109 204.377 278.175 201.279 278.175 197.641C278.175 193.93 275.215 191.011 271.447 190.995H271.406ZM382.364 197.649C382.356 193.815 385.184 190.987 389.043 190.995C392.893 190.995 395.722 193.84 395.706 197.674C395.689 201.434 392.755 204.418 389.092 204.418H389.027C385.274 204.385 382.372 201.434 382.364 197.649Z" fill="#EAEAEA"/>
</g>
<g filter="url(#filter2_d)">
<circle cx="327.144" cy="326.162" r="277.569" stroke="#4A90E2" stroke-width="4.74477"/>
</g>
<defs>
<filter id="filter0_i" x="0.000244141" y="0" width="659" height="668.49" filterUnits="userSpaceOnUse" color-interpolation-filters="sRGB">
<feFlood flood-opacity="0" result="BackgroundImageFix"/>
<feBlend mode="normal" in="SourceGraphic" in2="BackgroundImageFix" result="shape"/>
<feColorMatrix in="SourceAlpha" type="matrix" values="0 0 0 0 0 0 0 0 0 0 0 0 0 0 0 0 0 0 127 0" result="hardAlpha"/>
<feOffset dy="9.48954"/>
<feGaussianBlur stdDeviation="9.48954"/>
<feComposite in2="hardAlpha" operator="arithmetic" k2="-1" k3="1"/>
<feColorMatrix type="matrix" values="0 0 0 0 0 0 0 0 0 0 0 0 0 0 0 0 0 0 0.5 0"/>
<feBlend mode="normal" in2="shape" result="effect1_innerShadow"/>
</filter>
<filter id="filter1_d" x="208.524" y="141.116" width="246.728" height="374.423" filterUnits="userSpaceOnUse" color-interpolation-filters="sRGB">
<feFlood flood-opacity="0" result="BackgroundImageFix"/>
<feColorMatrix in="SourceAlpha" type="matrix" values="0 0 0 0 0 0 0 0 0 0 0 0 0 0 0 0 0 0 127 0"/>
<feOffset/>
<feGaussianBlur stdDeviation="14.2343"/>
<feColorMatrix type="matrix" values="0 0 0 0 0 0 0 0 0 0 0 0 0 0 0 0 0 0 0.25 0"/>
<feBlend mode="normal" in2="BackgroundImageFix" result="effect1_dropShadow"/>
<feBlend mode="normal" in="SourceGraphic" in2="effect1_dropShadow" result="shape"/>
</filter>
<filter id="filter2_d" x="18.7335" y="17.7518" width="616.82" height="616.82" filterUnits="userSpaceOnUse" color-interpolation-filters="sRGB">
<feFlood flood-opacity="0" result="BackgroundImageFix"/>
<feColorMatrix in="SourceAlpha" type="matrix" values="0 0 0 0 0 0 0 0 0 0 0 0 0 0 0 0 0 0 127 0"/>
<feMorphology radius="9.48954" operator="dilate" in="SourceAlpha" result="effect1_dropShadow"/>
<feOffset/>
<feGaussianBlur stdDeviation="9.48954"/>
<feColorMatrix type="matrix" values="0 0 0 0 0.290196 0 0 0 0 0.564706 0 0 0 0 0.886275 0 0 0 0.5 0"/>
<feBlend mode="normal" in2="BackgroundImageFix" result="effect1_dropShadow"/>
<feBlend mode="normal" in="SourceGraphic" in2="effect1_dropShadow" result="shape"/>
</filter>
<linearGradient id="paint0_linear" x1="156.045" y1="478.412" x2="564.38" y2="377.149" gradientUnits="userSpaceOnUse">
<stop stop-color="#356398"/>
<stop offset="0.541667" stop-color="#6292CA" stop-opacity="0.47619"/>
<stop offset="1" stop-color="#73B3FF" stop-opacity="0"/>
</linearGradient>
<linearGradient id="paint1_linear" x1="504.637" y1="478.412" x2="96.3017" y2="377.149" gradientUnits="userSpaceOnUse">
<stop stop-color="#356398"/>
<stop offset="0.541667" stop-color="#6292CA" stop-opacity="0.47619"/>
<stop offset="1" stop-color="#73B3FF" stop-opacity="0"/>
</linearGradient>
</defs>
</svg>
