<svg width="115" height="155" viewBox="0 0 115 155" fill="none" xmlns="http://www.w3.org/2000/svg">
<g filter="url(#filter0_d)">
<path fill-rule="evenodd" clip-rule="evenodd" d="M58.4249 29.4671H55.661C55.7681 29.939 55.8698 30.3851 55.9742 30.8419C56.0464 31.1584 56.1199 31.4801 56.197 31.8191C55.4923 31.6331 54.9168 31.4819 54.2419 31.3056V34.0695C54.7869 33.9311 55.2853 33.8064 55.8398 33.6674L56.2143 33.5733C56.0085 34.4294 55.8373 35.1463 55.6662 35.8659H58.41C58.2288 35.1266 58.0528 34.407 57.8519 33.5782C58.3263 33.6944 58.7408 33.7973 59.1587 33.9008L59.1593 33.9011H59.1596H59.1599L59.1602 33.9014L59.1618 33.9017L59.1651 33.9026C59.37 33.9533 59.5757 34.0042 59.7897 34.0571V31.3354C59.5611 31.3903 59.3417 31.4431 59.1232 31.4956C58.708 31.5958 58.298 31.6947 57.8443 31.8018L57.9548 31.359C58.119 30.7005 58.2662 30.1105 58.4249 29.4671ZM46.6082 42.0932C46.3402 42.0932 46.122 42.309 45.8689 42.7481C45.1445 43.9988 45.3205 45.4725 46.3278 46.7229C46.4531 46.8798 46.5627 47.0495 46.6725 47.2191C46.7256 47.3014 46.7787 47.3836 46.834 47.4646L46.6901 47.6209C46.5508 47.57 46.413 47.5129 46.275 47.4558C45.9578 47.3244 45.641 47.1936 45.3105 47.1347C45.2337 47.1199 45.1593 47.1123 45.0898 47.1123C44.6061 47.1123 44.2637 47.4249 44.0701 47.9187C43.8146 48.5788 44.0006 49.5933 44.5241 50.0449C44.854 50.3278 45.1393 50.4419 45.3948 50.4419C45.9062 50.4419 46.3032 49.9903 46.7135 49.5229C46.8231 49.3985 46.9335 49.2728 47.0473 49.1542C47.3872 50.4346 47.0722 51.4046 46.38 52.2258C45.6531 53.0868 44.7599 53.5408 43.7278 53.5408C43.4127 53.5408 43.0877 53.4986 42.7478 53.4118C41.671 53.1414 40.8422 52.5557 40.4428 51.4021C40.5023 51.397 40.5593 51.397 40.6164 51.397C40.8273 51.397 41.0306 51.4194 41.2291 51.4419L41.2929 51.4492C41.4668 51.4692 41.6373 51.4889 41.8097 51.4889C41.8173 51.4889 41.8249 51.4889 41.8322 51.4865C42.0926 51.4865 42.512 51.3451 42.5839 51.1566C43.1942 49.6058 43.0528 49.2734 41.6088 48.4819C41.2689 48.2959 41.0656 48.1915 40.9165 48.1915C40.7059 48.1915 40.6115 48.4024 40.413 48.9011C40.3096 49.1572 40.1891 49.4055 40.0683 49.654C40.0064 49.7815 39.9442 49.909 39.8847 50.0376L39.5818 49.9605C39.5721 49.7906 39.5657 49.6197 39.5593 49.4492C39.5435 49.0225 39.5281 48.5958 39.4552 48.1791C39.4082 47.9211 39.1478 47.5193 38.959 47.502C38.5572 47.4671 38.1527 47.4574 37.7287 47.4574C37.5008 47.4574 37.2668 47.4601 37.0237 47.4631C36.7608 47.4662 36.4877 47.4695 36.2003 47.4695C36.2707 47.6079 36.3299 47.7284 36.3833 47.8361C36.4798 48.0322 36.5563 48.1876 36.6443 48.3381C37.1196 49.1557 37.5964 49.9721 38.0728 50.7885L38.0731 50.7888V50.7891L38.0734 50.7894L38.0737 50.7903L38.0744 50.7912L38.0756 50.7933L38.0762 50.7939L38.0765 50.7945L38.0768 50.7954C39.2537 52.8109 40.43 54.8264 41.5842 56.8555C41.8024 57.2401 42.0033 57.4112 42.3086 57.4112C42.4425 57.4112 42.5964 57.3788 42.78 57.3168C46.9108 55.9423 51.1709 55.2452 55.515 55.1062C56.0361 55.0889 56.5572 55.0813 57.0783 55.0813C61.9211 55.0813 66.6698 55.8061 71.302 57.3193C71.4807 57.3763 71.6319 57.4112 71.7684 57.4112C72.0437 57.4112 72.2473 57.2698 72.4555 56.905C73.6085 54.8747 74.7845 52.8564 75.9609 50.8385L75.9611 50.8382V50.8379L75.9615 50.8376L75.9621 50.8364L75.9627 50.8355L75.9633 50.8343L75.9639 50.8331L75.9645 50.8322L75.9651 50.831L75.9657 50.83L75.9663 50.8288L75.9669 50.8279L75.9675 50.8267C76.4549 49.9909 76.942 49.1548 77.4276 48.3181C77.5162 48.1657 77.5897 48.0046 77.6828 47.7997V47.7994C77.7308 47.6944 77.7839 47.5778 77.847 47.4449C77.5785 47.4449 77.3256 47.4483 77.0829 47.4513C76.8589 47.4543 76.6434 47.4574 76.4328 47.4574C76.1499 47.4574 75.8771 47.4522 75.6042 47.4349C75.5545 47.4325 75.505 47.4325 75.4577 47.4325C74.8176 47.4325 74.5323 47.7077 74.5721 48.4373C74.5927 48.7954 74.5451 49.156 74.4977 49.5174V49.5178L74.4974 49.5181C74.4765 49.6771 74.4555 49.8361 74.4404 49.9954L74.108 50.0252C74.0534 49.891 73.9951 49.7575 73.9372 49.624L73.9369 49.6237C73.8079 49.3275 73.6786 49.0303 73.5845 48.7226C73.4753 48.3654 73.319 48.2115 73.1032 48.2115C72.9666 48.2115 72.8079 48.2734 72.6218 48.3851C72.2944 48.58 72.0346 48.7208 71.83 48.8319C71.4416 49.0428 71.254 49.1445 71.1845 49.2992C71.1196 49.4437 71.1575 49.6343 71.2307 50.0027C71.2719 50.2115 71.3247 50.4774 71.3763 50.824C71.4558 51.3426 71.6443 51.546 71.9866 51.546C72.1083 51.546 72.2522 51.5187 72.4161 51.4716C72.6731 51.3976 72.9451 51.3715 73.241 51.3429H73.2413C73.3821 51.3296 73.5284 51.3153 73.6813 51.2953C73.2944 52.5508 72.1256 53.3845 70.7636 53.5259C70.6543 53.5384 70.5454 53.5432 70.4361 53.5432C69.1757 53.5432 67.8756 52.8188 67.3174 51.7071C66.9429 50.9605 66.6228 50.1666 67.0744 49.1766C67.1593 49.2759 67.2419 49.3778 67.3232 49.478L67.3235 49.4786H67.3238V49.4789C67.7232 49.9718 68.0959 50.4319 68.6398 50.4319C68.8407 50.4319 69.064 50.3675 69.322 50.2185C69.9226 49.8737 70.275 48.8765 70.0367 48.1099C69.7985 47.3457 69.4337 47.1147 69.017 47.1147C68.6983 47.1147 68.3487 47.2495 67.9997 47.3836C67.7645 47.4741 67.5299 47.5645 67.305 47.6137L67.3126 47.281C67.4191 47.1278 67.5335 46.9803 67.6483 46.8322C67.7044 46.7596 67.7605 46.6871 67.8161 46.6137C68.7936 45.3484 68.8977 43.8522 68.1311 42.6291C67.9178 42.2868 67.6971 42.1229 67.4416 42.1229C67.258 42.1229 67.0543 42.2073 66.8188 42.376C65.6649 43.1973 65.1663 44.671 65.5657 46.1821C65.624 46.4006 65.6665 46.6234 65.709 46.8464V46.8467H65.7093C65.7317 46.9654 65.7542 47.0838 65.7791 47.2018L65.5757 47.3232C65.4255 47.1882 65.2841 47.0258 65.1429 46.8634C64.7985 46.468 64.4543 46.0728 63.983 46.0728C63.7472 46.0728 63.4816 46.1696 63.169 46.4127C62.6109 46.8495 62.3205 47.9086 62.6134 48.586C62.8889 49.2212 63.2385 49.4273 63.6206 49.4273C63.9739 49.4273 64.3514 49.2534 64.7202 49.0841C64.8747 49.013 65.0276 48.9426 65.1763 48.8862L65.2655 49.1393C65.0398 50.5857 63.4173 51.8039 61.8021 51.8039C61.6977 51.8039 61.5936 51.7991 61.4895 51.7891C59.7032 51.6079 57.9466 49.9533 57.9863 48.492C57.9961 48.1991 58.0904 48.0552 58.2567 48.0552C58.346 48.0552 58.4528 48.095 58.5742 48.1742C58.9165 48.3951 59.244 48.6407 59.5593 48.8986C59.7008 49.0152 59.8221 49.0698 59.9363 49.0698C60.0901 49.0698 60.2316 48.9757 60.3903 48.7994C61.6234 47.4498 61.6161 47.4076 60.5739 45.9563C60.363 45.6634 60.1769 45.5096 59.9611 45.5096C59.8024 45.5096 59.6288 45.5915 59.4179 45.7627C59.142 45.9839 58.8303 46.1584 58.5174 46.3335C58.3742 46.4137 58.2306 46.4941 58.0904 46.5791L57.8722 46.3332C57.9633 46.1812 58.0537 46.0285 58.1439 45.8759H58.1442C58.356 45.5174 58.5681 45.1587 58.7927 44.8076C58.9912 44.5023 58.9885 44.2989 58.6734 44.0434C57.9068 43.4155 57.5099 43.108 57.098 43.108C56.7011 43.108 56.2892 43.3909 55.5226 43.9466C55.0859 44.2592 55.0486 44.5047 55.349 44.929C55.5703 45.2437 55.7566 45.5824 55.9432 45.9217V45.922H55.9436V45.9223C56.0246 46.0698 56.1059 46.2173 56.19 46.363L55.9891 46.549C55.9123 46.5132 55.834 46.4801 55.7554 46.447C55.5945 46.3791 55.4334 46.3108 55.2868 46.2191L55.2777 46.2134C54.6631 45.8276 54.3229 45.6137 54.0537 45.6137C53.719 45.6137 53.4907 45.9463 52.9821 46.688L52.858 46.8768C52.8558 46.9569 52.847 47.0422 52.8382 47.1287C52.8149 47.3575 52.7912 47.5918 52.8901 47.7451C53.4185 48.5788 53.6592 48.9484 54.0191 48.9484C54.3108 48.9484 54.6789 48.7093 55.3396 48.2804L55.3463 48.2759L55.9593 48.1247L56.0337 48.7026C55.8228 50.2161 54.3961 51.5287 52.7387 51.7593C52.5727 51.7818 52.4064 51.7939 52.2425 51.7939C50.8261 51.7939 49.5059 50.963 48.9502 49.658C48.8932 49.5232 48.8677 49.3751 48.8319 49.1693C48.8115 49.0531 48.7882 48.9184 48.7542 48.7572C48.9302 48.8528 49.0728 48.9314 49.1957 48.9988H49.1961C49.376 49.098 49.5138 49.1739 49.6525 49.2461C49.8832 49.3651 50.1162 49.4222 50.3372 49.4222C50.9226 49.4222 51.4215 49.0276 51.4935 48.3578C51.5454 47.8765 51.4513 47.3281 51.2476 46.8889C51.0045 46.3557 50.5951 46.0901 50.1584 46.0901C49.7964 46.0901 49.4167 46.2737 49.0992 46.6434C48.9636 46.803 48.8161 46.9533 48.6689 47.1029V47.1032H48.6686V47.1035H48.6683V47.1038H48.668C48.6027 47.1703 48.5378 47.2364 48.4741 47.3035L48.2607 47.1818C48.2904 47.0561 48.3199 46.9302 48.3493 46.8046L48.3496 46.8036C48.4085 46.5527 48.4674 46.3017 48.5284 46.0504C48.8734 44.5967 48.4765 43.3809 47.3153 42.4407C47.03 42.2097 46.8042 42.0932 46.6082 42.0932ZM56.6082 121.343C56.7721 121.074 56.9344 120.809 57.0947 120.548L57.095 120.547C57.5615 119.788 58.013 119.051 58.4467 118.306C58.6698 117.926 58.5633 117.683 58.0892 117.529C56.5809 117.038 55.9059 115.998 56.2212 114.765C56.5138 113.624 57.6379 112.84 58.8883 112.84C59.0297 112.84 59.1736 112.85 59.3199 112.87C61.0443 113.123 62.183 114.631 61.6771 116.289C61.3669 117.299 60.7663 118.271 60.1065 119.105C59.2231 120.219 57.9381 120.822 56.6082 121.343ZM36.2082 121.268C32.3056 119.529 30.8416 115.817 32.8115 112.289C33.8388 110.451 35.4243 109.203 37.285 108.275C40.1581 106.839 43.2246 106.31 46.373 106.31C46.6237 106.31 46.8768 106.313 47.1296 106.32C48.4106 106.354 49.6889 106.51 50.9675 106.666H50.9678H50.9681C51.4822 106.728 51.9967 106.791 52.5111 106.846C52.6953 106.866 52.8774 106.912 53.108 106.969H53.1083H53.1089C53.2388 107.001 53.3836 107.037 53.5533 107.074C53.4307 107.135 53.3308 107.186 53.2452 107.23L53.2449 107.23L53.244 107.231C53.0835 107.313 52.973 107.369 52.8586 107.419C50.6255 108.389 48.725 109.798 47.1967 111.696C46.9784 111.969 46.7675 112.091 46.4649 112.091C46.3903 112.091 46.3111 112.083 46.2243 112.069C45.5147 111.954 44.8149 111.892 44.1202 111.892C42.3387 111.892 40.6194 112.302 39.0067 113.267C36.7788 114.599 35.3845 116.46 35.6774 119.206C35.7299 119.693 35.8774 120.169 36.0209 120.633C36.0874 120.847 36.1533 121.059 36.2082 121.268ZM72.997 119.832C72.8133 119.832 72.6495 119.732 72.4659 119.492C70.831 117.375 69.8734 115.023 69.8659 112.319C69.8637 111.523 69.8616 110.726 69.8598 109.93C69.8528 107.141 69.8461 104.352 69.8285 101.564C69.8212 100.906 69.7815 100.239 69.6774 99.5915C69.397 97.8571 68.6155 96.4206 67.0152 95.5226L67.1393 95.2743C67.7317 95.5035 68.3302 95.7211 68.9284 95.939C70.2813 96.4316 71.6349 96.9241 72.925 97.5469C75.4109 98.7454 76.7806 100.777 76.7432 103.638C76.7341 104.34 76.7411 105.043 76.7481 105.746V105.746C76.756 106.543 76.7642 107.34 76.7484 108.136C76.6914 110.982 77.5299 113.542 79.1077 115.884L79.3533 116.269L79.4131 116.487L78.8052 116.857C78.1961 117.179 77.5863 117.499 76.9769 117.818L76.9721 117.821L76.9715 117.821L76.97 117.822C75.8036 118.434 74.6379 119.045 73.4807 119.673C73.2947 119.775 73.1384 119.832 72.997 119.832ZM59.7523 105.811C56.651 105.134 53.5942 104.466 50.4731 103.787C50.8986 103.566 51.3208 103.342 51.7423 103.119H51.7426C52.7344 102.592 53.7223 102.069 54.7357 101.598C55.4974 101.246 55.7329 100.792 55.7232 99.9636C55.6938 97.8622 55.6956 95.7602 55.6974 93.6583C55.6986 92.1988 55.6998 90.7393 55.6907 89.2801C55.6859 88.6995 55.8422 88.3496 56.3954 88.0892C57.1827 87.7214 57.952 87.3126 58.7639 86.8816L58.7642 86.8813H58.7645L58.7657 86.8807C59.0868 86.7102 59.4143 86.5363 59.7523 86.3599V105.811ZM62.8659 94.3563C62.8586 94.2297 62.8513 94.1205 62.8449 94.0228L62.8446 94.0225C62.8313 93.8215 62.8212 93.6704 62.8212 93.5202C62.8197 92.6313 62.8203 91.742 62.8212 90.8531V90.8528V90.8525V90.8522C62.8228 89.0746 62.8246 87.2974 62.8064 85.5214C62.8015 84.936 63.0149 84.658 63.5505 84.4719C64.0294 84.3056 64.4662 84.2237 64.8558 84.2237C66.173 84.2237 66.9572 85.1517 66.9745 86.8686C66.9824 87.5611 66.98 88.2531 66.9778 88.9451V88.9454V88.9457V88.946V88.9463V88.9466V88.9469V88.9472V88.9475V88.9478V88.9481V88.9484V88.9487V88.949V88.9493V88.9496V88.9499V88.9502C66.9748 89.7809 66.9721 90.6109 66.987 91.4413C66.997 91.9596 66.8455 92.2747 66.3566 92.5129C65.5663 92.9029 64.7894 93.322 63.9648 93.7666L63.9639 93.7672C63.6082 93.959 63.244 94.1554 62.8659 94.3563ZM69.9663 90.2455V90.2452V90.2449L69.966 90.2446C69.9399 90.0349 69.9181 89.8598 69.9165 89.6844C69.9138 89.4143 69.909 89.1439 69.9041 88.8737V88.8734V88.8731C69.8901 88.1011 69.8759 87.329 69.9165 86.5608C70.0082 84.7372 69.3906 83.3281 67.5496 82.4076C67.9038 82.2158 68.2507 82.0212 68.593 81.8291C70.0592 81.0067 71.4501 80.2264 73.0449 79.8844C73.3627 79.8149 73.6652 79.7827 73.953 79.7827C75.5557 79.7827 76.6774 80.8149 76.8161 82.6109C76.8962 83.6652 76.8571 84.7305 76.8182 85.7942L76.8179 85.7945C76.8085 86.0528 76.7991 86.3108 76.7915 86.5684L76.4589 87.1812C74.7053 88.1266 72.9411 89.0473 71.1014 90.0079C70.7393 90.197 70.3742 90.3875 70.0058 90.5803C69.9927 90.458 69.9791 90.3481 69.9663 90.2461V90.2455ZM45.373 87.6476C45.8865 87.6476 46.0653 87.3994 46.0552 86.7842C46.0379 85.4234 46.0391 84.0619 46.0404 82.7005C46.0416 81.339 46.0428 79.9775 46.0255 78.6167C46.0206 78.0188 46.2215 77.7111 46.7451 77.4431C48.1569 76.7193 49.556 75.97 51.0012 75.1957L51.0021 75.1954L51.0027 75.1951C51.5681 74.892 52.1408 74.5854 52.7241 74.2747C52.7326 74.4179 52.7423 74.5442 52.7514 74.6595C52.7663 74.8522 52.7788 75.0152 52.7788 75.1778C52.7794 77.1375 52.7794 79.0971 52.7794 81.0567C52.7794 86.9347 52.7794 92.8127 52.7964 98.6907C52.7988 99.3235 52.5778 99.6434 52.0322 99.9162C50.6507 100.608 49.2816 101.322 47.8513 102.068L47.8504 102.068L47.8492 102.069C47.2583 102.377 46.6571 102.69 46.0404 103.01V102.013C46.0404 101.13 46.0391 100.247 46.0379 99.3639V99.3636V99.3633V99.363V99.3627V99.3624V99.3621V99.3618V99.3614V99.3611V99.3608V99.3605V99.3602C46.0346 96.8346 46.0313 94.3083 46.0552 91.7836C46.0628 91.1284 45.8716 90.9202 45.2589 90.9202C45.2364 90.9202 45.2143 90.9202 45.1918 90.9226C44.4003 90.9375 43.6088 90.9423 42.8176 90.9423C42.298 90.9423 41.7778 90.9405 41.2577 90.9387C40.7366 90.9369 40.2152 90.935 39.6938 90.935H38.7833C38.8653 89.9699 39.339 89.342 39.9469 88.7888C41.0367 87.7973 42.403 87.7187 43.7654 87.6404L43.81 87.6376C44.0628 87.6228 44.3184 87.6127 44.5715 87.6127C44.7775 87.6127 44.9809 87.6203 45.1845 87.6376C45.2513 87.6452 45.3135 87.6476 45.373 87.6476ZM55.7851 85.3724C55.773 85.2486 55.7599 85.139 55.7478 85.0385C55.7256 84.8513 55.7071 84.6965 55.7056 84.5414C55.705 83.4883 55.7053 82.4352 55.7059 81.3818V81.3815V81.3812V81.3809V81.3806C55.7071 78.7466 55.7083 76.1117 55.6907 73.4783C55.6883 72.8829 55.8941 72.5554 56.4252 72.305C57.2076 71.9332 57.9763 71.5296 58.7827 71.1059L58.7839 71.1056L58.7854 71.1047L58.786 71.1044L58.7897 71.1023L58.7918 71.1014L58.7951 71.0995L58.7967 71.0986L58.7973 71.0983L58.8 71.0968L58.8018 71.0959H58.8024C59.1147 70.9317 59.4328 70.7648 59.7596 70.5954C59.7669 70.7096 59.7742 70.8109 59.7809 70.9038C59.797 71.1256 59.8091 71.2974 59.8091 71.4689C59.81 72.5217 59.8094 73.5748 59.8088 74.6279V74.6282V74.6285V74.6288V74.6291V74.6297C59.8076 77.264 59.8064 79.8983 59.8243 82.5317C59.8291 83.0998 59.6379 83.4027 59.1369 83.6431C58.3681 84.0136 57.6118 84.4121 56.8152 84.8322H56.8149C56.4801 85.0088 56.1381 85.1891 55.7851 85.3724ZM70.0577 71.891V71.8828C70.0097 69.7017 69.9651 67.6665 67.5639 66.5487C67.7639 66.4404 67.949 66.3335 68.1253 66.2319C68.4892 66.0218 68.8167 65.8331 69.1642 65.6929C69.4388 65.5809 69.7132 65.4646 69.9876 65.3484C70.9296 64.949 71.8747 64.5484 72.8586 64.3159C73.1363 64.2489 73.4043 64.2191 73.6598 64.2191C75.2131 64.2191 76.2947 65.3903 76.4486 67.112C76.5527 68.3004 76.2501 69.0124 75.0813 69.5135C73.9272 70.0109 72.817 70.6127 71.6564 71.2416C71.1378 71.5226 70.6094 71.8091 70.0622 72.0941C70.0607 72.0261 70.0592 71.9587 70.0577 71.891ZM73.5141 61.5718C71.8467 61.5718 70.2986 62.0756 68.81 62.8522C66.2027 64.2124 63.5958 65.5736 60.9888 66.9347L60.9857 66.9366L60.9827 66.9381C55.247 69.9329 49.5114 72.9281 43.7715 75.9123C43.2577 76.1778 43.1065 76.5001 43.1114 77.0461C43.1232 78.1933 43.122 79.3399 43.1208 80.4865C43.1196 81.7323 43.1181 82.9781 43.1338 84.2237C43.1411 84.8589 42.9451 85.0473 42.3001 85.1815C41.0944 85.427 39.824 85.6901 38.7745 86.288C36.3332 87.6725 35.3854 90.0218 35.1199 92.7162C35.058 93.3366 35.1942 93.57 35.827 93.57H35.8692C36.4747 93.5599 37.0774 93.5575 37.6829 93.5575C38.0574 93.5575 38.4297 93.5575 38.8018 93.5599C38.9967 93.5599 39.1918 93.5605 39.3873 93.5611C39.5827 93.5617 39.7781 93.5624 39.973 93.5624C40.7171 93.5624 41.4616 93.5575 42.2058 93.5402H42.2777C42.9748 93.5402 43.146 93.8079 43.1363 94.5001C43.1014 97.3235 43.0916 100.15 43.1411 102.975C43.156 103.74 42.8707 103.928 42.1809 104.077C40.546 104.432 38.8935 104.791 37.3281 105.365C34.4501 106.419 31.9763 108.079 30.3093 110.744C28.1284 114.225 28.5478 118.159 31.4033 121.102C32.8325 122.573 34.5493 123.575 36.4771 124.253C39.5733 125.342 42.7293 125.821 45.9275 125.821C47.3141 125.821 48.7062 125.732 50.1053 125.56C53.512 125.148 56.8067 124.285 59.8064 122.546C61.7639 121.412 63.3666 119.916 64.2722 117.79C65.349 115.262 64.4385 112.485 62.064 111.108C61.0492 110.518 59.9997 110.228 58.9405 110.228C58.0795 110.228 57.2112 110.419 56.3454 110.798C54.7275 111.508 53.5715 112.701 53.2838 114.525C53.0158 116.239 53.6807 117.611 55.0577 118.727C54.9951 118.83 54.9405 118.937 54.8865 119.044H54.8862C54.7724 119.267 54.6619 119.484 54.492 119.631C54.2455 119.842 54.003 120.064 53.7599 120.286L53.7596 120.286H53.7593V120.287H53.759V120.287C53.0404 120.943 52.3178 121.604 51.4798 122.03C49.7184 122.923 47.8774 123.327 46.0118 123.327C44.7439 123.327 43.4637 123.141 42.1885 122.797C41.1687 122.519 40.1739 121.797 39.3997 121.04C38.1071 119.772 38.1244 117.802 39.3824 116.495C40.0152 115.84 40.8413 115.276 41.6847 114.941C42.5208 114.609 43.3693 114.465 44.2179 114.465C45.2698 114.465 46.3244 114.686 47.3615 115.046C47.5077 115.098 47.6319 115.123 47.7411 115.123C47.9791 115.123 48.153 114.998 48.3639 114.733C48.4904 114.575 48.6167 114.417 48.7429 114.258L48.7436 114.258L48.7438 114.257L48.7442 114.256L48.7448 114.256L48.7451 114.256L48.7457 114.255C49.4898 113.32 50.2404 112.377 51.1178 111.582C54.1593 108.826 57.9083 107.915 61.888 107.761C62.6073 107.732 62.8455 107.541 62.8355 106.799C62.8149 105.28 62.8164 103.76 62.8182 102.241V102.24C62.8197 100.859 62.8212 99.4774 62.8058 98.0953C62.7961 97.4228 63.0762 97.2021 63.6792 97.1402C63.7709 97.1326 63.8604 97.1278 63.9496 97.1278C65.0637 97.1278 66.1229 97.8225 66.4777 99.0431C66.7681 100.053 66.8995 101.14 66.9196 102.196C66.9405 103.379 66.9202 104.562 66.8995 105.746C66.8792 106.929 66.8586 108.113 66.8798 109.295C66.8828 109.462 66.8859 109.63 66.8889 109.798V109.798V109.798V109.799C66.9205 111.614 66.9527 113.444 67.2567 115.222C67.7678 118.219 69.5815 120.596 71.4598 122.901C71.688 123.178 71.8816 123.305 72.1074 123.305C72.2662 123.305 72.4398 123.246 72.6555 123.131C76.0467 121.33 79.4486 119.547 82.8489 117.764L82.8504 117.763C83.8431 117.243 84.8355 116.723 85.8273 116.202C85.9754 116.125 86.1181 116.04 86.2768 115.945L86.2774 115.944C86.3551 115.898 86.4367 115.849 86.5247 115.798C86.0334 115.021 85.5794 114.299 85.1129 113.557C84.8483 113.695 84.5918 113.826 84.3414 113.954L84.3366 113.956L84.3354 113.957L84.3351 113.957C83.7715 114.245 83.2398 114.517 82.7187 114.81C82.5499 114.907 82.4061 114.964 82.2722 114.964C82.0983 114.964 81.942 114.865 81.7733 114.634C80.6768 113.118 79.8829 111.476 79.7961 109.588C79.7357 108.294 79.7147 107 79.6938 105.704V105.704V105.703V105.703V105.703V105.703V105.702V105.702C79.6792 104.811 79.6646 103.919 79.6373 103.028C79.5481 100.103 78.342 97.7357 75.8489 96.1824C74.8637 95.5696 73.7994 95.0847 72.7357 94.6003C72.3178 94.4097 71.8998 94.2194 71.4871 94.0215C71.254 93.9105 71.0067 93.8276 70.7126 93.7287C70.559 93.6771 70.393 93.6212 70.2094 93.5551C70.3487 93.4734 70.4649 93.4042 70.5666 93.3435C70.7432 93.2379 70.8762 93.1584 71.013 93.0862C71.7032 92.7232 72.3936 92.3611 73.0841 91.9994L73.0923 91.9951C75.0804 90.953 77.0686 89.9111 79.0443 88.8458C79.3223 88.6971 79.6398 88.3174 79.6546 88.0273C79.739 86.2507 79.8036 84.4668 79.7587 82.688C79.6844 79.5147 77.8036 77.5126 74.6504 77.1775C74.3872 77.1478 74.1269 77.1354 73.8689 77.1354C72.41 77.1354 71.0355 77.5672 69.7205 78.227C68.4841 78.8476 67.2525 79.4756 66.0206 80.1038L66.0197 80.1044L66.0182 80.105C65.2561 80.4935 64.4944 80.8822 63.7314 81.2689C63.5666 81.3526 63.3961 81.4237 63.1945 81.5071H63.1942C63.0801 81.5545 62.9563 81.6058 62.8182 81.6659V80.614V70C62.8182 68.8734 62.858 68.824 63.9323 68.5608C64.292 68.4741 64.6246 68.4294 64.9272 68.4294C66.2595 68.4294 67.0188 69.278 67.0907 70.9205C67.1262 71.7381 67.119 72.5581 67.1117 73.3781V73.3784C67.108 73.7551 67.1047 74.1317 67.1056 74.508V76.5475C67.2055 76.5126 67.2889 76.4865 67.3609 76.4643C67.4786 76.4276 67.5663 76.4003 67.6464 76.3587L68.6728 75.8225C72.0725 74.0464 75.4728 72.2698 78.8607 70.4689C79.0865 70.3472 79.295 69.9751 79.3099 69.7071C79.3618 68.7445 79.3645 67.7745 79.3223 66.807C79.1982 63.9611 77.2231 61.9168 74.3848 61.6164C74.0895 61.5866 73.8018 61.5718 73.5141 61.5718ZM32.0103 73.4683C32.2461 75.4831 33.854 76.9023 35.6404 76.9023C35.9454 76.9023 36.2531 76.8625 36.5605 76.7757C37.5754 76.4929 38.3593 75.6319 38.4461 74.7065C38.5357 73.7338 38.0889 72.9299 37.2355 72.5329C36.908 72.3794 36.5706 72.3023 36.2382 72.3023C35.6079 72.3023 34.9951 72.5751 34.4792 73.1335C34.308 73.3171 34.1517 73.4039 34.0052 73.4039C33.8637 73.4039 33.7299 73.3269 33.5957 73.1781C33.2492 72.7973 32.9223 72.3988 32.546 71.9396V71.9393H32.5457C32.3754 71.7317 32.1951 71.5117 31.9982 71.2753C31.9982 71.5439 31.9909 71.7985 31.9842 72.0434C31.9699 72.549 31.9569 73.0121 32.0103 73.4683ZM45.1017 68.5648C44.6734 67.841 44.2564 67.1366 43.7244 66.5338C43.1824 65.9208 42.5226 65.4112 41.8853 64.9187H41.885C41.6121 64.7077 41.3432 64.4998 41.0895 64.2886C41.7171 64.0404 42.5062 63.9214 43.3621 63.9214C45.9672 63.9214 49.22 65.0179 50.6689 66.9235C49.8495 67.3539 49.0431 67.7769 48.2492 68.1936L48.2458 68.1951L48.237 68.2L48.2182 68.2097L48.197 68.2209L48.1815 68.2291L48.1797 68.23L48.1439 68.2489C47.3132 68.6847 46.4959 69.1135 45.692 69.536C45.4856 69.2133 45.2926 68.8871 45.1017 68.5648ZM43.1785 61.4033C39.7545 61.4033 36.4822 62.6212 33.403 64.8965C30.5797 66.9854 29.024 69.9008 29.2574 73.5329C29.4185 76.0613 30.7038 77.9369 33.0185 78.9366C33.9266 79.3311 34.8322 79.532 35.7156 79.532C37.0874 79.532 38.4049 79.0458 39.6106 78.041C41.0646 76.8255 41.6476 75.173 41.2555 73.3071C40.8883 71.5557 39.6801 70.4291 37.9857 70.0346C37.668 69.9602 37.3357 69.9305 36.9957 69.9305C36.3842 69.9305 35.7502 70.0243 35.1484 70.1135L35.1448 70.1141C35.0358 70.1314 34.9414 70.139 34.8571 70.139C34.5369 70.139 34.3584 70.0149 34.2021 69.6625C33.681 68.509 34.088 67.3727 35.3159 66.6182C35.9338 66.2413 36.6558 66.0577 37.4 66.0577C38.6234 66.0577 39.9059 66.5514 40.871 67.4792C42.3472 68.8959 42.9402 70.6995 43.1536 72.6722C43.1772 72.8832 43.2118 73.0932 43.2513 73.3317C43.2737 73.4686 43.298 73.6149 43.3223 73.776C45.0728 72.8574 46.8064 71.9469 48.5335 71.0401C51.6143 69.4224 54.6744 67.8155 57.7745 66.1891C57.6492 65.9921 57.532 65.8021 57.4191 65.6185L57.4185 65.6176L57.4182 65.6173C57.1396 65.1648 56.8847 64.7508 56.5885 64.3681L55.8665 64.2167C55.214 64.4971 54.5863 64.8395 53.9736 65.2042C53.8121 65.3008 53.6731 65.3429 53.5417 65.3429C53.3308 65.3429 53.1399 65.2316 52.9041 65.0552C52.6571 64.871 52.4118 64.6795 52.1657 64.4877V64.4874C51.3226 63.8294 50.4716 63.1657 49.515 62.7602C47.3542 61.8422 45.2376 61.4033 43.1785 61.4033ZM54.458 39.4956C54.4677 38.1062 55.6464 36.9351 57.0307 36.9351H57.0531C58.4473 36.9475 59.6282 38.1484 59.6109 39.5378C59.5961 40.9396 58.4325 42.0807 57.0234 42.0807H57.0109C55.5967 42.0734 54.4455 40.9071 54.458 39.4956ZM77.5366 41.1927C76.3951 41.1927 75.4971 42.1253 75.5144 43.2941C75.5317 44.4155 76.4273 45.2914 77.5438 45.2914H77.5736C78.6777 45.2765 79.613 44.3335 79.6058 43.237C79.5982 42.1354 78.6628 41.2024 77.5563 41.1927H77.5366ZM43.19 36.2853C43.1527 35.1636 44.1153 34.1763 45.2467 34.1788C46.3706 34.1812 47.2662 35.0792 47.2786 36.213C47.2886 37.3496 46.4055 38.2601 45.2813 38.2725H45.2567C44.1502 38.2725 43.2246 37.3842 43.19 36.2853ZM51.0234 36.7615C49.9141 36.7615 48.9615 37.7093 48.969 38.8234C48.9763 39.9199 49.9193 40.8528 51.0206 40.8552H51.0282C52.1448 40.8552 53.0577 39.9545 53.0701 38.8355C53.0825 37.7093 52.1942 36.7888 51.0704 36.7615H51.0234ZM69.1824 34.1788H69.1876C70.3162 34.1788 71.2665 35.1563 71.2319 36.2877C71.2021 37.3942 70.2917 38.2725 69.18 38.2725H69.1478C68.0313 38.2549 67.1256 37.332 67.1332 36.2158C67.1405 35.1141 68.081 34.1812 69.1824 34.1788ZM36.8762 41.1951C35.7572 41.1951 34.8665 42.0956 34.864 43.2495C34.8613 44.3882 35.7396 45.2813 36.8686 45.2914H36.8859C38.0124 45.2914 38.898 44.4179 38.9105 43.2865C38.9253 42.1354 38.0768 41.2322 36.9429 41.1951H36.8762ZM61.3533 38.7736C61.3757 37.6744 62.3111 36.7615 63.41 36.7615H63.4249C64.549 36.769 65.447 37.6795 65.447 38.8082C65.447 39.952 64.5366 40.8577 63.4052 40.8577C63.3879 40.8577 63.3706 40.8577 63.353 40.8552C62.2516 40.8279 61.3311 39.8701 61.3533 38.7736ZM39.369 35.9651C38.2127 35.9651 37.3469 36.8109 37.3344 37.9548C37.3196 39.1111 38.23 40.0388 39.3666 40.0388H39.3912C40.4929 40.0264 41.4234 39.0862 41.4234 37.9821C41.4234 36.8558 40.525 35.97 39.3815 35.9651H39.369ZM73.0437 37.9845C73.0413 36.8209 73.8995 35.9627 75.0707 35.9651C76.2391 35.9651 77.0977 36.8285 77.0929 37.9921C77.0877 39.1332 76.1973 40.0388 75.0856 40.0388H75.0659C73.9269 40.0288 73.0461 39.1332 73.0437 37.9845Z" fill="#EAEAEA"/>
</g>
<defs>
<filter id="filter0_d" x="0.456465" y="0.998472" width="114.537" height="153.291" filterUnits="userSpaceOnUse" color-interpolation-filters="sRGB">
<feFlood flood-opacity="0" result="BackgroundImageFix"/>
<feColorMatrix in="SourceAlpha" type="matrix" values="0 0 0 0 0 0 0 0 0 0 0 0 0 0 0 0 0 0 127 0"/>
<feOffset/>
<feGaussianBlur stdDeviation="14.2343"/>
<feColorMatrix type="matrix" values="0 0 0 0 0 0 0 0 0 0 0 0 0 0 0 0 0 0 0.25 0"/>
<feBlend mode="normal" in2="BackgroundImageFix" result="effect1_dropShadow"/>
<feBlend mode="normal" in="SourceGraphic" in2="effect1_dropShadow" result="shape"/>
</filter>
</defs>
</svg>
