<svg width="142" height="48" viewBox="0 0 142 48" fill="none" xmlns="http://www.w3.org/2000/svg">
<rect x="0.5" y="0.5" width="141" height="47" rx="3.5" fill="#3B3F47"/>
<rect width="142" height="48" rx="4" fill="black" fill-opacity="0.01"/>
<g filter="url(#filter0_d)">
<path d="M40.8961 20.402V29H39.8761V22.682C39.8761 22.598 39.8781 22.508 39.8821 22.412C39.8901 22.316 39.8981 22.218 39.9061 22.118L36.9541 27.494C36.8621 27.674 36.7221 27.764 36.5341 27.764H36.3661C36.1781 27.764 36.0381 27.674 35.9461 27.494L32.9341 22.094C32.9581 22.306 32.9701 22.502 32.9701 22.682V29H31.9501V20.402H32.8081C32.9121 20.402 32.9921 20.412 33.0481 20.432C33.1041 20.452 33.1581 20.508 33.2101 20.6L36.1801 25.892C36.2281 25.988 36.2741 26.088 36.3181 26.192C36.3661 26.296 36.4101 26.402 36.4501 26.51C36.4901 26.402 36.5321 26.296 36.5761 26.192C36.6201 26.084 36.6681 25.982 36.7201 25.886L39.6361 20.6C39.6841 20.508 39.7361 20.452 39.7921 20.432C39.8521 20.412 39.9341 20.402 40.0381 20.402H40.8961ZM45.9609 26.264C45.4689 26.28 45.0489 26.32 44.7009 26.384C44.3569 26.444 44.0749 26.524 43.8549 26.624C43.6389 26.724 43.4809 26.842 43.3809 26.978C43.2849 27.114 43.2369 27.266 43.2369 27.434C43.2369 27.594 43.2629 27.732 43.3149 27.848C43.3669 27.964 43.4369 28.06 43.5249 28.136C43.6169 28.208 43.7229 28.262 43.8429 28.298C43.9669 28.33 44.0989 28.346 44.2389 28.346C44.4269 28.346 44.5989 28.328 44.7549 28.292C44.9109 28.252 45.0569 28.196 45.1929 28.124C45.3329 28.052 45.4649 27.966 45.5889 27.866C45.7169 27.766 45.8409 27.652 45.9609 27.524V26.264ZM42.5109 23.78C42.8469 23.456 43.2089 23.214 43.5969 23.054C43.9849 22.894 44.4149 22.814 44.8869 22.814C45.2269 22.814 45.5289 22.87 45.7929 22.982C46.0569 23.094 46.2789 23.25 46.4589 23.45C46.6389 23.65 46.7749 23.892 46.8669 24.176C46.9589 24.46 47.0049 24.772 47.0049 25.112V29H46.5309C46.4269 29 46.3469 28.984 46.2909 28.952C46.2349 28.916 46.1909 28.848 46.1589 28.748L46.0389 28.172C45.8789 28.32 45.7229 28.452 45.5709 28.568C45.4189 28.68 45.2589 28.776 45.0909 28.856C44.9229 28.932 44.7429 28.99 44.5509 29.03C44.3629 29.074 44.1529 29.096 43.9209 29.096C43.6849 29.096 43.4629 29.064 43.2549 29C43.0469 28.932 42.8649 28.832 42.7089 28.7C42.5569 28.568 42.4349 28.402 42.3429 28.202C42.2549 27.998 42.2109 27.758 42.2109 27.482C42.2109 27.242 42.2769 27.012 42.4089 26.792C42.5409 26.568 42.7549 26.37 43.0509 26.198C43.3469 26.026 43.7329 25.886 44.2089 25.778C44.6849 25.666 45.2689 25.602 45.9609 25.586V25.112C45.9609 24.64 45.8589 24.284 45.6549 24.044C45.4509 23.8 45.1529 23.678 44.7609 23.678C44.4969 23.678 44.2749 23.712 44.0949 23.78C43.9189 23.844 43.7649 23.918 43.6329 24.002C43.5049 24.082 43.3929 24.156 43.2969 24.224C43.2049 24.288 43.1129 24.32 43.0209 24.32C42.9489 24.32 42.8869 24.302 42.8349 24.266C42.7829 24.226 42.7389 24.178 42.7029 24.122L42.5109 23.78ZM49.6397 23.804C49.7717 23.656 49.9117 23.522 50.0597 23.402C50.2077 23.282 50.3637 23.18 50.5277 23.096C50.6957 23.008 50.8717 22.942 51.0557 22.898C51.2437 22.85 51.4457 22.826 51.6617 22.826C51.9937 22.826 52.2857 22.882 52.5377 22.994C52.7937 23.102 53.0057 23.258 53.1737 23.462C53.3457 23.662 53.4757 23.904 53.5637 24.188C53.6517 24.472 53.6957 24.786 53.6957 25.13V29H52.6217V25.13C52.6217 24.67 52.5157 24.314 52.3037 24.062C52.0957 23.806 51.7777 23.678 51.3497 23.678C51.0337 23.678 50.7377 23.754 50.4617 23.906C50.1897 24.058 49.9377 24.264 49.7057 24.524V29H48.6317V22.922H49.2737C49.4257 22.922 49.5197 22.996 49.5557 23.144L49.6397 23.804ZM60.3211 22.922V29H59.6851C59.5331 29 59.4371 28.926 59.3971 28.778L59.3131 28.124C59.0491 28.416 58.7531 28.652 58.4251 28.832C58.0971 29.008 57.7211 29.096 57.2971 29.096C56.9651 29.096 56.6711 29.042 56.4151 28.934C56.1631 28.822 55.9511 28.666 55.7791 28.466C55.6071 28.266 55.4771 28.024 55.3891 27.74C55.3051 27.456 55.2631 27.142 55.2631 26.798V22.922H56.3311V26.798C56.3311 27.258 56.4351 27.614 56.6431 27.866C56.8551 28.118 57.1771 28.244 57.6091 28.244C57.9251 28.244 58.2191 28.17 58.4911 28.022C58.7671 27.87 59.0211 27.662 59.2531 27.398V22.922H60.3211ZM65.3085 26.264C64.8165 26.28 64.3965 26.32 64.0485 26.384C63.7045 26.444 63.4225 26.524 63.2025 26.624C62.9865 26.724 62.8285 26.842 62.7285 26.978C62.6325 27.114 62.5845 27.266 62.5845 27.434C62.5845 27.594 62.6105 27.732 62.6625 27.848C62.7145 27.964 62.7845 28.06 62.8725 28.136C62.9645 28.208 63.0705 28.262 63.1905 28.298C63.3145 28.33 63.4465 28.346 63.5865 28.346C63.7745 28.346 63.9465 28.328 64.1025 28.292C64.2585 28.252 64.4045 28.196 64.5405 28.124C64.6805 28.052 64.8125 27.966 64.9365 27.866C65.0645 27.766 65.1885 27.652 65.3085 27.524V26.264ZM61.8585 23.78C62.1945 23.456 62.5565 23.214 62.9445 23.054C63.3325 22.894 63.7625 22.814 64.2345 22.814C64.5745 22.814 64.8765 22.87 65.1405 22.982C65.4045 23.094 65.6265 23.25 65.8065 23.45C65.9865 23.65 66.1225 23.892 66.2145 24.176C66.3065 24.46 66.3525 24.772 66.3525 25.112V29H65.8785C65.7745 29 65.6945 28.984 65.6385 28.952C65.5825 28.916 65.5385 28.848 65.5065 28.748L65.3865 28.172C65.2265 28.32 65.0705 28.452 64.9185 28.568C64.7665 28.68 64.6065 28.776 64.4385 28.856C64.2705 28.932 64.0905 28.99 63.8985 29.03C63.7105 29.074 63.5005 29.096 63.2685 29.096C63.0325 29.096 62.8105 29.064 62.6025 29C62.3945 28.932 62.2125 28.832 62.0565 28.7C61.9045 28.568 61.7825 28.402 61.6905 28.202C61.6025 27.998 61.5585 27.758 61.5585 27.482C61.5585 27.242 61.6245 27.012 61.7565 26.792C61.8885 26.568 62.1025 26.37 62.3985 26.198C62.6945 26.026 63.0805 25.886 63.5565 25.778C64.0325 25.666 64.6165 25.602 65.3085 25.586V25.112C65.3085 24.64 65.2065 24.284 65.0025 24.044C64.7985 23.8 64.5005 23.678 64.1085 23.678C63.8445 23.678 63.6225 23.712 63.4425 23.78C63.2665 23.844 63.1125 23.918 62.9805 24.002C62.8525 24.082 62.7405 24.156 62.6445 24.224C62.5525 24.288 62.4605 24.32 62.3685 24.32C62.2965 24.32 62.2345 24.302 62.1825 24.266C62.1305 24.226 62.0865 24.178 62.0505 24.122L61.8585 23.78ZM69.0834 20.162V29H68.0154V20.162H69.0834ZM77.4256 23.924C77.3776 24.012 77.3036 24.056 77.2036 24.056C77.1436 24.056 77.0756 24.034 76.9996 23.99C76.9236 23.946 76.8296 23.898 76.7176 23.846C76.6096 23.79 76.4796 23.74 76.3276 23.696C76.1756 23.648 75.9956 23.624 75.7876 23.624C75.6076 23.624 75.4456 23.648 75.3016 23.696C75.1576 23.74 75.0336 23.802 74.9296 23.882C74.8296 23.962 74.7516 24.056 74.6956 24.164C74.6436 24.268 74.6176 24.382 74.6176 24.506C74.6176 24.662 74.6616 24.792 74.7496 24.896C74.8416 25 74.9616 25.09 75.1096 25.166C75.2576 25.242 75.4256 25.31 75.6136 25.37C75.8016 25.426 75.9936 25.488 76.1896 25.556C76.3896 25.62 76.5836 25.692 76.7716 25.772C76.9596 25.852 77.1276 25.952 77.2756 26.072C77.4236 26.192 77.5416 26.34 77.6296 26.516C77.7216 26.688 77.7676 26.896 77.7676 27.14C77.7676 27.42 77.7176 27.68 77.6176 27.92C77.5176 28.156 77.3696 28.362 77.1736 28.538C76.9776 28.71 76.7376 28.846 76.4536 28.946C76.1696 29.046 75.8416 29.096 75.4696 29.096C75.0456 29.096 74.6616 29.028 74.3176 28.892C73.9736 28.752 73.6816 28.574 73.4416 28.358L73.6936 27.95C73.7256 27.898 73.7636 27.858 73.8076 27.83C73.8516 27.802 73.9076 27.788 73.9756 27.788C74.0476 27.788 74.1236 27.816 74.2036 27.872C74.2836 27.928 74.3796 27.99 74.4916 28.058C74.6076 28.126 74.7476 28.188 74.9116 28.244C75.0756 28.3 75.2796 28.328 75.5236 28.328C75.7316 28.328 75.9136 28.302 76.0696 28.25C76.2256 28.194 76.3556 28.12 76.4596 28.028C76.5636 27.936 76.6396 27.83 76.6876 27.71C76.7396 27.59 76.7656 27.462 76.7656 27.326C76.7656 27.158 76.7196 27.02 76.6276 26.912C76.5396 26.8 76.4216 26.706 76.2736 26.63C76.1256 26.55 75.9556 26.482 75.7636 26.426C75.5756 26.366 75.3816 26.304 75.1816 26.24C74.9856 26.176 74.7916 26.104 74.5996 26.024C74.4116 25.94 74.2436 25.836 74.0956 25.712C73.9476 25.588 73.8276 25.436 73.7356 25.256C73.6476 25.072 73.6036 24.85 73.6036 24.59C73.6036 24.358 73.6516 24.136 73.7476 23.924C73.8436 23.708 73.9836 23.52 74.1676 23.36C74.3516 23.196 74.5776 23.066 74.8456 22.97C75.1136 22.874 75.4196 22.826 75.7636 22.826C76.1636 22.826 76.5216 22.89 76.8376 23.018C77.1576 23.142 77.4336 23.314 77.6656 23.534L77.4256 23.924ZM80.943 29.096C80.463 29.096 80.093 28.962 79.833 28.694C79.577 28.426 79.449 28.04 79.449 27.536V23.816H78.717C78.653 23.816 78.599 23.798 78.555 23.762C78.511 23.722 78.489 23.662 78.489 23.582V23.156L79.485 23.03L79.731 21.152C79.743 21.092 79.769 21.044 79.809 21.008C79.853 20.968 79.909 20.948 79.977 20.948H80.517V23.042H82.275V23.816H80.517V27.464C80.517 27.72 80.579 27.91 80.703 28.034C80.827 28.158 80.987 28.22 81.183 28.22C81.295 28.22 81.391 28.206 81.471 28.178C81.555 28.146 81.627 28.112 81.687 28.076C81.747 28.04 81.797 28.008 81.837 27.98C81.881 27.948 81.919 27.932 81.951 27.932C82.007 27.932 82.057 27.966 82.101 28.034L82.413 28.544C82.229 28.716 82.007 28.852 81.747 28.952C81.487 29.048 81.219 29.096 80.943 29.096ZM84.3918 24.14C84.5838 23.724 84.8198 23.4 85.0998 23.168C85.3798 22.932 85.7218 22.814 86.1258 22.814C86.2538 22.814 86.3758 22.828 86.4918 22.856C86.6118 22.884 86.7178 22.928 86.8098 22.988L86.7318 23.786C86.7078 23.886 86.6478 23.936 86.5518 23.936C86.4958 23.936 86.4138 23.924 86.3058 23.9C86.1978 23.876 86.0758 23.864 85.9398 23.864C85.7478 23.864 85.5758 23.892 85.4238 23.948C85.2758 24.004 85.1418 24.088 85.0218 24.2C84.9058 24.308 84.7998 24.444 84.7038 24.608C84.6118 24.768 84.5278 24.952 84.4518 25.16V29H83.3778V22.922H83.9898C84.1058 22.922 84.1858 22.944 84.2298 22.988C84.2738 23.032 84.3038 23.108 84.3198 23.216L84.3918 24.14ZM91.5708 25.298C91.5708 25.05 91.5348 24.824 91.4628 24.62C91.3948 24.412 91.2928 24.234 91.1568 24.086C91.0248 23.934 90.8628 23.818 90.6708 23.738C90.4788 23.654 90.2608 23.612 90.0168 23.612C89.5048 23.612 89.0988 23.762 88.7988 24.062C88.5028 24.358 88.3188 24.77 88.2468 25.298H91.5708ZM92.4348 28.148C92.3028 28.308 92.1448 28.448 91.9608 28.568C91.7768 28.684 91.5788 28.78 91.3668 28.856C91.1588 28.932 90.9428 28.988 90.7188 29.024C90.4948 29.064 90.2728 29.084 90.0528 29.084C89.6328 29.084 89.2448 29.014 88.8888 28.874C88.5368 28.73 88.2308 28.522 87.9708 28.25C87.7148 27.974 87.5148 27.634 87.3708 27.23C87.2268 26.826 87.1548 26.362 87.1548 25.838C87.1548 25.414 87.2188 25.018 87.3468 24.65C87.4788 24.282 87.6668 23.964 87.9108 23.696C88.1548 23.424 88.4528 23.212 88.8048 23.06C89.1568 22.904 89.5528 22.826 89.9928 22.826C90.3568 22.826 90.6928 22.888 91.0008 23.012C91.3128 23.132 91.5808 23.308 91.8048 23.54C92.0328 23.768 92.2108 24.052 92.3388 24.392C92.4668 24.728 92.5308 25.112 92.5308 25.544C92.5308 25.712 92.5128 25.824 92.4768 25.88C92.4408 25.936 92.3728 25.964 92.2728 25.964H88.2108C88.2228 26.348 88.2748 26.682 88.3668 26.966C88.4628 27.25 88.5948 27.488 88.7628 27.68C88.9308 27.868 89.1308 28.01 89.3628 28.106C89.5948 28.198 89.8548 28.244 90.1428 28.244C90.4108 28.244 90.6408 28.214 90.8328 28.154C91.0288 28.09 91.1968 28.022 91.3368 27.95C91.4768 27.878 91.5928 27.812 91.6848 27.752C91.7808 27.688 91.8628 27.656 91.9308 27.656C92.0188 27.656 92.0868 27.69 92.1348 27.758L92.4348 28.148ZM95.6618 29.096C95.1818 29.096 94.8118 28.962 94.5518 28.694C94.2958 28.426 94.1678 28.04 94.1678 27.536V23.816H93.4358C93.3718 23.816 93.3178 23.798 93.2738 23.762C93.2298 23.722 93.2078 23.662 93.2078 23.582V23.156L94.2038 23.03L94.4498 21.152C94.4618 21.092 94.4878 21.044 94.5278 21.008C94.5718 20.968 94.6278 20.948 94.6958 20.948H95.2358V23.042H96.9938V23.816H95.2358V27.464C95.2358 27.72 95.2978 27.91 95.4218 28.034C95.5458 28.158 95.7058 28.22 95.9018 28.22C96.0138 28.22 96.1098 28.206 96.1898 28.178C96.2738 28.146 96.3458 28.112 96.4058 28.076C96.4658 28.04 96.5158 28.008 96.5558 27.98C96.5998 27.948 96.6378 27.932 96.6698 27.932C96.7258 27.932 96.7758 27.966 96.8198 28.034L97.1318 28.544C96.9478 28.716 96.7258 28.852 96.4658 28.952C96.2058 29.048 95.9378 29.096 95.6618 29.096ZM102.291 24.002C102.259 24.046 102.227 24.08 102.195 24.104C102.163 24.128 102.119 24.14 102.063 24.14C102.003 24.14 101.937 24.116 101.865 24.068C101.793 24.016 101.703 23.96 101.595 23.9C101.491 23.84 101.361 23.786 101.205 23.738C101.053 23.686 100.865 23.66 100.641 23.66C100.341 23.66 100.077 23.714 99.8494 23.822C99.6214 23.926 99.4294 24.078 99.2734 24.278C99.1214 24.478 99.0054 24.72 98.9254 25.004C98.8494 25.288 98.8114 25.606 98.8114 25.958C98.8114 26.326 98.8534 26.654 98.9374 26.942C99.0214 27.226 99.1394 27.466 99.2914 27.662C99.4474 27.854 99.6334 28.002 99.8494 28.106C100.069 28.206 100.315 28.256 100.587 28.256C100.847 28.256 101.061 28.226 101.229 28.166C101.397 28.102 101.535 28.032 101.643 27.956C101.755 27.88 101.847 27.812 101.919 27.752C101.995 27.688 102.069 27.656 102.141 27.656C102.229 27.656 102.297 27.69 102.345 27.758L102.645 28.148C102.513 28.312 102.363 28.452 102.195 28.568C102.027 28.684 101.845 28.782 101.649 28.862C101.457 28.938 101.255 28.994 101.043 29.03C100.831 29.066 100.615 29.084 100.395 29.084C100.015 29.084 99.6614 29.014 99.3334 28.874C99.0094 28.734 98.7274 28.532 98.4874 28.268C98.2474 28 98.0594 27.672 97.9234 27.284C97.7874 26.896 97.7194 26.454 97.7194 25.958C97.7194 25.506 97.7814 25.088 97.9054 24.704C98.0334 24.32 98.2174 23.99 98.4574 23.714C98.7014 23.434 98.9994 23.216 99.3514 23.06C99.7074 22.904 100.115 22.826 100.575 22.826C101.003 22.826 101.379 22.896 101.703 23.036C102.031 23.172 102.321 23.366 102.573 23.618L102.291 24.002ZM104.866 23.732C105.126 23.456 105.414 23.236 105.73 23.072C106.046 22.908 106.41 22.826 106.822 22.826C107.154 22.826 107.446 22.882 107.698 22.994C107.954 23.102 108.166 23.258 108.334 23.462C108.506 23.662 108.636 23.904 108.724 24.188C108.812 24.472 108.856 24.786 108.856 25.13V29H107.782V25.13C107.782 24.67 107.676 24.314 107.464 24.062C107.256 23.806 106.938 23.678 106.51 23.678C106.194 23.678 105.898 23.754 105.622 23.906C105.35 24.058 105.098 24.264 104.866 24.524V29H103.792V20.162H104.866V23.732Z" fill="#F6F6F6"/>
</g>
<rect x="0.5" y="0.5" width="141" height="47" rx="3.5" stroke="#3B3F47"/>
<path d="M49 0H92H88.758C87.2729 0 86.069 1.20394 86.069 2.68907V2.68907C86.069 3.96536 85.0343 5 83.758 5H57.242C55.9657 5 54.931 3.96536 54.931 2.68907V2.68907C54.931 1.20394 53.7271 0 52.242 0H49Z" fill="#151719"/>
<defs>
<filter id="filter0_d" x="28.5201" y="16.732" width="83.7658" height="15.794" filterUnits="userSpaceOnUse" color-interpolation-filters="sRGB">
<feFlood flood-opacity="0" result="BackgroundImageFix"/>
<feColorMatrix in="SourceAlpha" type="matrix" values="0 0 0 0 0 0 0 0 0 0 0 0 0 0 0 0 0 0 127 0" result="hardAlpha"/>
<feOffset/>
<feGaussianBlur stdDeviation="1.715"/>
<feColorMatrix type="matrix" values="0 0 0 0 0 0 0 0 0 0 0 0 0 0 0 0 0 0 0.5 0"/>
<feBlend mode="normal" in2="BackgroundImageFix" result="effect1_dropShadow"/>
<feBlend mode="normal" in="SourceGraphic" in2="effect1_dropShadow" result="shape"/>
</filter>
</defs>
</svg>
